<svg width="3599" height="1438" xmlns="http://www.w3.org/2000/svg" xmlns:xlink="http://www.w3.org/1999/xlink" xml:space="preserve" overflow="hidden"><g transform="translate(-218 -23)"><rect x="220.5" y="330.5" width="660" height="138" stroke="#EBB391" stroke-width="4.58333" stroke-miterlimit="8" fill="#DD8047"/><text fill="#FFFFFF" font-family="Calibri,Calibri_MSFontService,sans-serif" font-weight="400" font-size="83" transform="matrix(1 0 0 1 453.269 426)">Client</text><rect x="1540.5" y="247.5" width="550" height="677" stroke="#BFD3E4" stroke-width="4.58333" stroke-miterlimit="8" fill="#FFFFFF"/><text font-family="Calibri,Calibri_MSFontService,sans-serif" font-weight="700" font-size="83" transform="matrix(1 0 0 1 1705.58 341)">Server</text><path d="M880.5 399.5 1540.5 399.5" stroke="#D4E2ED" stroke-width="20.625" stroke-miterlimit="8" fill="none" fill-rule="evenodd"/><text fill="#355D7E" font-family="Calibri,Calibri_MSFontService,sans-serif" font-weight="700" font-size="64" transform="matrix(1 0 0 1 1061.28 417)">WebSocket</text><path d="M908 342.844 1487.22 342.844 1487.22 353.156 908 353.156ZM1482.06 332.531 1513 348 1482.06 363.469Z" fill="#94B6D2"/><text font-family="Consolas,Consolas_MSFontService,sans-serif" font-weight="400" font-size="55" transform="matrix(1 0 0 1 913 246)">OpenProject</text><text font-family="Consolas,Consolas_MSFontService,sans-serif" font-weight="400" font-size="55" transform="matrix(1 0 0 1 913 312)">GetFrame</text><path d="M3.22225e-06-5.15625 551.719-5.15591 551.719 5.15659-3.22225e-06 5.15625ZM546.562-15.4684 577.5 0.000360892 546.562 15.4691Z" fill="#94B6D2" transform="matrix(-1 0 0 1 1485.5 451)"/><text font-family="Consolas,Consolas_MSFontService,sans-serif" font-weight="400" font-size="55" transform="matrix(1 0 0 1 913 518)">Project info</text><text font-family="Consolas,Consolas_MSFontService,sans-serif" font-weight="400" font-size="55" transform="matrix(1 0 0 1 913 584)">Frame (PNG)</text><rect x="330" y="798" width="440" height="137" stroke="#B95B22" stroke-width="13.75" stroke-miterlimit="8" fill="#FFFFFF"/><text fill="#7B3D17" font-family="Calibri,Calibri_MSFontService,sans-serif" font-weight="400" font-size="83" transform="matrix(1 0 0 1 412.557 894)">Encoder</text><path d="M555.156 468 555.157 772.219 544.844 772.219 544.844 468ZM565.469 767.062 550 798 534.532 767.062Z" fill="#B95B22"/><text font-family="Consolas,Consolas_MSFontService,sans-serif" font-weight="400" font-size="55" transform="matrix(1 0 0 1 586.481 625)">Frames</text><text font-family="Consolas,Consolas_MSFontService,sans-serif" font-weight="400" font-size="55" transform="matrix(1 0 0 1 586.481 691)">(PNG)</text><g><g><g><path d="M513.833 1144.33 403.833 1144.33 403.833 1325.38 532.167 1325.38 532.167 1144.33ZM527.583 1148.92 527.583 1160.38 513.833 1160.38 513.833 1148.92ZM426.75 1201.57C426.775 1201.59 426.796 1201.61 426.821 1201.63 426.796 1201.64 426.775 1201.66 426.75 1201.68ZM422.167 1176.42 408.417 1176.42 408.417 1164.96 422.167 1164.96ZM422.167 1181 422.167 1192.46 408.417 1192.46 408.417 1181ZM422.167 1197.04 422.167 1208.5 408.417 1208.5 408.417 1197.04ZM422.167 1213.08 422.167 1224.54 408.417 1224.54 408.417 1213.08ZM422.167 1229.13 422.167 1240.58 408.417 1240.58 408.417 1229.13ZM422.167 1245.17 422.167 1256.63 408.417 1256.63 408.417 1245.17ZM422.167 1261.21 422.167 1272.67 408.417 1272.67 408.417 1261.21ZM422.167 1277.25 422.167 1288.71 408.417 1288.71 408.417 1277.25ZM422.167 1293.29 422.167 1304.75 408.417 1304.75 408.417 1293.29ZM426.75 1268.02C426.775 1268.04 426.796 1268.07 426.821 1268.08 426.796 1268.1 426.775 1268.12 426.75 1268.14ZM426.75 1258.92 426.75 1210.79C426.75 1206.99 429.828 1203.92 433.625 1203.92L502.375 1203.92C506.172 1203.92 509.25 1206.99 509.25 1210.79L509.25 1258.92C509.25 1262.71 506.172 1265.79 502.375 1265.79L433.625 1265.79C429.828 1265.79 426.75 1262.71 426.75 1258.92ZM509.25 1201.68C509.225 1201.66 509.204 1201.64 509.179 1201.63 509.204 1201.61 509.225 1201.59 509.25 1201.57ZM509.25 1268.02 509.25 1268.14C509.225 1268.12 509.204 1268.1 509.179 1268.08 509.204 1268.07 509.225 1268.04 509.25 1268.02ZM513.833 1293.29 527.583 1293.29 527.583 1304.75 513.833 1304.75ZM513.833 1288.71 513.833 1277.25 527.583 1277.25 527.583 1288.71ZM513.833 1272.67 513.833 1261.21 527.583 1261.21 527.583 1272.67ZM513.833 1256.63 513.833 1245.17 527.583 1245.17 527.583 1256.63ZM513.833 1240.58 513.833 1229.13 527.583 1229.13 527.583 1240.58ZM513.833 1224.54 513.833 1213.08 527.583 1213.08 527.583 1224.54ZM513.833 1208.5 513.833 1197.04 527.583 1197.04 527.583 1208.5ZM513.833 1192.46 513.833 1181 527.583 1181 527.583 1192.46ZM513.833 1176.42 513.833 1164.96 527.583 1164.96 527.583 1176.42ZM509.25 1148.92 509.25 1192.46C509.25 1196.26 506.172 1199.33 502.375 1199.33L433.625 1199.33C429.828 1199.33 426.75 1196.26 426.75 1192.46L426.75 1148.92ZM422.167 1148.92 422.167 1160.38 408.417 1160.38 408.417 1148.92ZM408.417 1320.79 408.417 1309.33 422.167 1309.33 422.167 1320.79ZM426.75 1320.79 426.75 1277.25C426.75 1273.45 429.828 1270.38 433.625 1270.38L502.375 1270.38C506.172 1270.38 509.25 1273.45 509.25 1277.25L509.25 1320.79ZM513.833 1320.79 513.833 1309.33 527.583 1309.33 527.583 1320.79Z"/></g></g></g><path d="M555.156 935 555.157 1099.98 544.844 1099.98 544.844 935ZM565.469 1094.82 550 1125.76 534.532 1094.82Z" fill="#B95B22"/><text font-family="Calibri,Calibri_MSFontService,sans-serif" font-weight="700" font-size="83" transform="matrix(1 0 0 1 555.5 1248)">.mp4 file</text><rect x="2740.5" y="571.5" width="550" height="137" stroke="#BFD3E4" stroke-width="4.58333" stroke-miterlimit="8" fill="#FFFFFF"/><text font-family="Calibri,Calibri_MSFontService,sans-serif" font-weight="700" font-size="83" transform="matrix(1 0 0 1 2835.45 667)">Chromium</text><rect x="1822.5" y="568.5" width="550" height="138" stroke="#BFD3E4" stroke-width="4.58333" stroke-miterlimit="8" fill="#D4E2ED"/><text font-family="Calibri,Calibri_MSFontService,sans-serif" font-weight="700" font-size="83" transform="matrix(1 0 0 1 1914.8 664)">Playwright</text><path d="M2372 595.844 2713.81 595.844 2713.81 606.156 2372 606.156ZM2708.66 585.531 2739.59 601 2708.66 616.469Z" fill="#94B6D2"/><path d="M5.20771e-06-5.15625 331.545-5.15592 331.545 5.15658-5.20771e-06 5.15625ZM326.389-15.4684 357.326 0.000360892 326.389 15.4691Z" fill="#94B6D2" transform="matrix(-1 0 0 1 2739.33 683)"/><text font-family="Consolas,Consolas_MSFontService,sans-serif" font-weight="400" font-size="55" transform="matrix(1 0 0 1 2403.22 514)">Open HTML</text><text font-family="Consolas,Consolas_MSFontService,sans-serif" font-weight="400" font-size="55" transform="matrix(1 0 0 1 2403.22 580)">Screenshot</text><text font-family="Consolas,Consolas_MSFontService,sans-serif" font-weight="400" font-size="55" transform="matrix(1 0 0 1 2405.48 753)">Screenshot</text><text font-family="Consolas,Consolas_MSFontService,sans-serif" font-weight="400" font-size="55" transform="matrix(1 0 0 1 2405.48 819)">(PNG)</text><text font-family="Calibri,Calibri_MSFontService,sans-serif" font-weight="400" font-size="73" transform="matrix(1 0 0 1 3085.5 397)">.html, .</text><text font-family="Calibri,Calibri_MSFontService,sans-serif" font-weight="400" font-size="73" transform="matrix(1 0 0 1 3294.5 397)">css</text><text font-family="Calibri,Calibri_MSFontService,sans-serif" font-weight="400" font-size="73" transform="matrix(1 0 0 1 3382.73 397)">, .</text><text font-family="Calibri,Calibri_MSFontService,sans-serif" font-weight="400" font-size="73" transform="matrix(1 0 0 1 3436.01 397)">js</text><path d="M2983.16 449 2983.16 541.892 2972.84 541.892 2972.84 449ZM2993.47 536.735 2978 567.673 2962.53 536.735Z" fill="#94B6D2"/><text font-family="Calibri,Calibri_MSFontService,sans-serif" font-weight="400" font-size="73" transform="matrix(1 0 0 1 3085.5 237)">project.yaml</text><g><g><g><path d="M27.9375 12.4167 27.9375 136.583 121.062 136.583 121.062 45.9199 87.5591 12.4167ZM88.495 17.7418 115.737 44.984C115.743 44.99 115.743 45 115.737 45.0059 115.734 45.0087 115.73 45.0104 115.726 45.0104L88.4687 45.0104 88.4687 17.7527C88.4688 17.7442 88.4758 17.7373 88.4843 17.7373 88.4884 17.7375 88.4922 17.7391 88.495 17.7418ZM31.0416 133.479 31.0416 15.5208 85.3645 15.5208 85.3645 48.1145 117.958 48.1145 117.958 133.479Z" transform="matrix(1.00671 0 0 1 2903 300)"/></g></g></g><rect x="2740" y="29.9999" width="907" height="455" stroke="#BFD3E4" stroke-width="13.75" stroke-miterlimit="8" stroke-dasharray="13.75 13.75" fill="none"/><text font-family="Calibri,Calibri_MSFontService,sans-serif" font-weight="700" font-size="73" transform="matrix(1 0 0 1 2947.38 116)">Movie “project”</text><path d="M0.982771-5.06173 788.839 147.906 786.874 158.03-0.982771 5.06173ZM785.742 136.8 813.165 157.882 779.846 167.17Z" fill="#94B6D2" transform="matrix(-1 0 0 1 2903.16 214)"/><text font-family="Consolas,Consolas_MSFontService,sans-serif" font-weight="400" font-size="55" transform="matrix(1 0 0 1 2180.44 159)">Scene timeline</text><text font-family="Consolas,Consolas_MSFontService,sans-serif" font-weight="400" font-size="55" transform="matrix(1 0 0 1 2180.44 225)">Width, Height</text><text font-family="Consolas,Consolas_MSFontService,sans-serif" font-weight="400" font-size="55" transform="matrix(1 0 0 1 2180.44 291)">FPS</text><path d="M1815.5 924.5 1815.5 1067.78" stroke="#D4E2ED" stroke-width="20.625" stroke-miterlimit="8" fill="none" fill-rule="evenodd"/><text fill="#355D7E" font-family="Calibri,Calibri_MSFontService,sans-serif" font-weight="700" font-size="64" transform="matrix(1 0 0 1 1763.52 995)">Pipe</text><rect x="1540.5" y="1067.5" width="550" height="138" stroke="#BFD3E4" stroke-width="4.58333" stroke-miterlimit="8" fill="#D4E2ED"/><text font-family="Calibri,Calibri_MSFontService,sans-serif" font-weight="700" font-size="83" transform="matrix(1 0 0 1 1671.98 1163)">Decoder</text><g><g><g><path d="M2062.83 1259.33 1952.83 1259.33 1952.83 1440.37 2081.17 1440.37 2081.17 1259.33ZM2076.58 1263.92 2076.58 1275.37 2062.83 1275.37 2062.83 1263.92ZM1975.75 1316.57C1975.78 1316.59 1975.8 1316.61 1975.82 1316.62 1975.8 1316.64 1975.78 1316.66 1975.75 1316.68ZM1971.17 1291.42 1957.42 1291.42 1957.42 1279.96 1971.17 1279.96ZM1971.17 1296 1971.17 1307.46 1957.42 1307.46 1957.42 1296ZM1971.17 1312.04 1971.17 1323.5 1957.42 1323.5 1957.42 1312.04ZM1971.17 1328.08 1971.17 1339.54 1957.42 1339.54 1957.42 1328.08ZM1971.17 1344.12 1971.17 1355.58 1957.42 1355.58 1957.42 1344.12ZM1971.17 1360.17 1971.17 1371.62 1957.42 1371.62 1957.42 1360.17ZM1971.17 1376.21 1971.17 1387.67 1957.42 1387.67 1957.42 1376.21ZM1971.17 1392.25 1971.17 1403.71 1957.42 1403.71 1957.42 1392.25ZM1971.17 1408.29 1971.17 1419.75 1957.42 1419.75 1957.42 1408.29ZM1975.75 1383.02C1975.78 1383.04 1975.8 1383.06 1975.82 1383.08 1975.8 1383.1 1975.78 1383.12 1975.75 1383.14ZM1975.75 1373.92 1975.75 1325.79C1975.75 1321.99 1978.83 1318.92 1982.63 1318.92L2051.38 1318.92C2055.17 1318.92 2058.25 1321.99 2058.25 1325.79L2058.25 1373.92C2058.25 1377.71 2055.17 1380.79 2051.38 1380.79L1982.63 1380.79C1978.83 1380.79 1975.75 1377.71 1975.75 1373.92ZM2058.25 1316.68C2058.22 1316.66 2058.2 1316.64 2058.18 1316.62 2058.2 1316.61 2058.22 1316.59 2058.25 1316.57ZM2058.25 1383.02 2058.25 1383.14C2058.22 1383.12 2058.2 1383.1 2058.18 1383.08 2058.2 1383.06 2058.22 1383.04 2058.25 1383.02ZM2062.83 1408.29 2076.58 1408.29 2076.58 1419.75 2062.83 1419.75ZM2062.83 1403.71 2062.83 1392.25 2076.58 1392.25 2076.58 1403.71ZM2062.83 1387.67 2062.83 1376.21 2076.58 1376.21 2076.58 1387.67ZM2062.83 1371.62 2062.83 1360.17 2076.58 1360.17 2076.58 1371.62ZM2062.83 1355.58 2062.83 1344.12 2076.58 1344.12 2076.58 1355.58ZM2062.83 1339.54 2062.83 1328.08 2076.58 1328.08 2076.58 1339.54ZM2062.83 1323.5 2062.83 1312.04 2076.58 1312.04 2076.58 1323.5ZM2062.83 1307.46 2062.83 1296 2076.58 1296 2076.58 1307.46ZM2062.83 1291.42 2062.83 1279.96 2076.58 1279.96 2076.58 1291.42ZM2058.25 1263.92 2058.25 1307.46C2058.25 1311.26 2055.17 1314.33 2051.38 1314.33L1982.63 1314.33C1978.83 1314.33 1975.75 1311.26 1975.75 1307.46L1975.75 1263.92ZM1971.17 1263.92 1971.17 1275.37 1957.42 1275.37 1957.42 1263.92ZM1957.42 1435.79 1957.42 1424.33 1971.17 1424.33 1971.17 1435.79ZM1975.75 1435.79 1975.75 1392.25C1975.75 1388.45 1978.83 1385.37 1982.63 1385.37L2051.38 1385.37C2055.17 1385.37 2058.25 1388.45 2058.25 1392.25L2058.25 1435.79ZM2062.83 1435.79 2062.83 1424.33 2076.58 1424.33 2076.58 1435.79Z"/></g></g></g><text font-family="Calibri,Calibri_MSFontService,sans-serif" font-weight="700" font-size="83" transform="matrix(1 0 0 1 2104.55 1364)">Input movie files</text><path d="M5.15625-1.30939e-05 5.15655 116.335-5.15595 116.335-5.15625 1.30939e-05ZM15.469 111.179 0.000360892 142.116-15.4685 111.179Z" fill="#94B6D2" transform="matrix(1 0 0 -1 1736 1066.12)"/><text font-family="Consolas,Consolas_MSFontService,sans-serif" font-weight="400" font-size="55" transform="matrix(1 0 0 1 1547.14 977)">Frame</text><text font-family="Consolas,Consolas_MSFontService,sans-serif" font-weight="400" font-size="55" transform="matrix(1 0 0 1 1547.14 1043)">(PNG)</text><path d="M1906.5 1356.27 1818.84 1356.27 1818.84 1227.78 1829.16 1227.78 1829.16 1351.12 1824 1345.96 1906.5 1345.96ZM1808.53 1232.94 1824 1202 1839.47 1232.94Z" fill="#94B6D2"/><g><g><g><path d="M27.9375 12.4167 27.9375 136.584 121.063 136.584 121.063 45.92 87.5593 12.4167ZM88.4952 17.7419 115.737 44.9841C115.744 44.9901 115.743 45.0001 115.737 45.006 115.734 45.0088 115.731 45.0105 115.727 45.0105L88.4689 45.0105 88.4689 17.7528C88.469 17.7442 88.476 17.7374 88.4845 17.7374 88.4886 17.7375 88.4925 17.7391 88.4952 17.7419ZM31.0417 133.479 31.0417 15.5209 85.3647 15.5209 85.3647 48.1146 117.958 48.1146 117.958 133.479Z" transform="matrix(1.00671 0 0 1 2903 139)"/></g></g></g><path d="M0-5.15625 929.713-5.15625 929.713 125.408 919.401 125.408 919.401 0 924.557 5.15625 0 5.15625ZM940.026 120.252 924.557 151.189 909.088 120.252Z" fill="#94B6D2" transform="matrix(1 0 0 -1 2090 859.19)"/><text font-family="Consolas,Consolas_MSFontService,sans-serif" font-weight="400" font-size="55" transform="matrix(1 0 0 1 2275.64 971)">Input frame (PNG)</text></g></svg>