<?xml version="1.0" encoding="UTF-8" standalone="no"?>
<svg
   width="4535.4199"
   height="940.58508"
   viewBox="0 0 4535.42 940.58509"
   version="1.2"
   id="svg206"
   sodipodi:docname="Saint-Saens-Symphony-No-3-Part-II-Second-640-Samples-1.svg"
   inkscape:version="1.4 (86a8ad7, 2024-10-11)"
   xmlns:inkscape="http://www.inkscape.org/namespaces/inkscape"
   xmlns:sodipodi="http://sodipodi.sourceforge.net/DTD/sodipodi-0.dtd"
   xmlns="http://www.w3.org/2000/svg"
   xmlns:svg="http://www.w3.org/2000/svg">
  <defs
     id="defs206" />
  <sodipodi:namedview
     id="namedview206"
     pagecolor="#ffffff"
     bordercolor="#000000"
     borderopacity="0.25"
     inkscape:showpageshadow="2"
     inkscape:pageopacity="0.0"
     inkscape:pagecheckerboard="0"
     inkscape:deskcolor="#d1d1d1"
     showgrid="false"
     inkscape:zoom="0.85372394"
     inkscape:cx="2267.1263"
     inkscape:cy="969.28288"
     inkscape:window-width="5120"
     inkscape:window-height="2054"
     inkscape:window-x="-11"
     inkscape:window-y="-11"
     inkscape:window-maximized="1"
     inkscape:current-layer="svg206" />
  <title
     id="title1">Saint-Saens-Symphony-No-3-Part-II-Second-640-Samples</title>
  <desc
     id="desc1">Generated by MuseScore Studio 4.4.2</desc>
  <path
     class=""
     fill="#ffffff"
     fill-rule="evenodd"
     d="M 0,0 H 4535.42 V 940.5851 H 0 V 0"
     id="path1"
     style="stroke-width:0.66515" />
  <polyline
     class="StaffLines"
     fill="none"
     stroke="#000000"
     stroke-width="2.73"
     stroke-linejoin="bevel"
     points="124,173.6 4535.42,173.6"
     id="polyline1" />
  <polyline
     class="StaffLines"
     fill="none"
     stroke="#000000"
     stroke-width="2.73"
     stroke-linejoin="bevel"
     points="124,198.4 4535.42,198.4"
     id="polyline2" />
  <polyline
     class="StaffLines"
     fill="none"
     stroke="#000000"
     stroke-width="2.73"
     stroke-linejoin="bevel"
     points="124,223.2 4535.42,223.2"
     id="polyline3" />
  <polyline
     class="StaffLines"
     fill="none"
     stroke="#000000"
     stroke-width="2.73"
     stroke-linejoin="bevel"
     points="124,248 4535.42,248"
     id="polyline4" />
  <polyline
     class="StaffLines"
     fill="none"
     stroke="#000000"
     stroke-width="2.73"
     stroke-linejoin="bevel"
     points="124,272.8 4535.42,272.8"
     id="polyline5" />
  <polyline
     class="StaffLines"
     fill="none"
     stroke="#000000"
     stroke-width="2.73"
     stroke-linejoin="bevel"
     points="124,468.17 4535.42,468.17"
     id="polyline6" />
  <polyline
     class="StaffLines"
     fill="none"
     stroke="#000000"
     stroke-width="2.73"
     stroke-linejoin="bevel"
     points="124,492.97 4535.42,492.97"
     id="polyline7" />
  <polyline
     class="StaffLines"
     fill="none"
     stroke="#000000"
     stroke-width="2.73"
     stroke-linejoin="bevel"
     points="124,517.77 4535.42,517.77"
     id="polyline8" />
  <polyline
     class="StaffLines"
     fill="none"
     stroke="#000000"
     stroke-width="2.73"
     stroke-linejoin="bevel"
     points="124,542.57 4535.42,542.57"
     id="polyline9" />
  <polyline
     class="StaffLines"
     fill="none"
     stroke="#000000"
     stroke-width="2.73"
     stroke-linejoin="bevel"
     points="124,567.37 4535.42,567.37"
     id="polyline10" />
  <polyline
     class="StaffLines"
     fill="none"
     stroke="#000000"
     stroke-width="2.73"
     stroke-linejoin="bevel"
     points="124,728.57 4535.42,728.57"
     id="polyline11" />
  <g
     id="g2"
     transform="translate(410.33934,632.05742)">
    <text
       xml:space="preserve"
       style="font-stretch:semi-expanded;font-size:56px;line-height:0.8;font-family:Ravie;-inkscape-font-specification:'Ravie Semi-Expanded';text-align:center;writing-mode:lr-tb;direction:ltr;text-anchor:middle;fill:#cccccc;stroke:#005500;stroke-width:0.755906;stroke-opacity:0"
       x="-151.10274"
       y="73.794342"
       id="text206-4-2"><tspan
         id="tspan206-8-4"
         x="-151.10274"
         y="73.794342"
         style="font-style:normal;font-variant:normal;font-weight:normal;font-stretch:normal;font-size:56px;font-family:'MJ-UD Shin Go Pr6N';-inkscape-font-specification:'MJ-UD Shin Go Pr6N';fill:#000000"
         sodipodi:role="line">(III)</tspan></text>
  </g>
  <polyline
     class="StaffLines"
     fill="none"
     stroke="#000000"
     stroke-width="2.73"
     stroke-linejoin="bevel"
     points="124,753.37 4535.42,753.37"
     id="polyline12" />
  <polyline
     class="StaffLines"
     fill="none"
     stroke="#000000"
     stroke-width="2.73"
     stroke-linejoin="bevel"
     points="124,778.17 4535.42,778.17"
     id="polyline13" />
  <polyline
     class="StaffLines"
     fill="none"
     stroke="#000000"
     stroke-width="2.73"
     stroke-linejoin="bevel"
     points="124,802.97 4535.42,802.97"
     id="polyline14" />
  <polyline
     class="StaffLines"
     fill="none"
     stroke="#000000"
     stroke-width="2.73"
     stroke-linejoin="bevel"
     points="124,827.77 4535.42,827.77"
     id="polyline15" />
  <path
     class="TieSegment"
     stroke="#000000"
     stroke-width="1.24"
     stroke-linecap="round"
     stroke-linejoin="round"
     fill-rule="evenodd"
     d="m 340.594,424.925 c 66.886,-37.697 267.542,-37.697 334.427,0 -66.885,-29.761 -267.541,-29.761 -334.427,0"
     id="path15" />
  <path
     class="TieSegment"
     stroke="#000000"
     stroke-width="1.24"
     stroke-linecap="round"
     stroke-linejoin="round"
     fill-rule="evenodd"
     d="m 3508.63,400.125 c 66.39,-37.591 265.55,-37.591 331.94,0 -66.39,-29.655 -265.55,-29.655 -331.94,0"
     id="path16" />
  <path
     class="TieSegment"
     stroke="#000000"
     stroke-width="1.24"
     stroke-linecap="round"
     stroke-linejoin="round"
     fill-rule="evenodd"
     d="m 1396.61,387.725 c 66.38,-37.591 265.55,-37.591 331.94,0 -66.39,-29.655 -265.56,-29.655 -331.94,0"
     id="path17" />
  <path
     class="TieSegment"
     stroke="#000000"
     stroke-width="1.24"
     stroke-linecap="round"
     stroke-linejoin="round"
     fill-rule="evenodd"
     d="m 2077.86,387.725 c 73.96,-39.158 295.84,-39.158 369.8,0 -73.96,-31.222 -295.84,-31.222 -369.8,0"
     id="path18" />
  <path
     class="TieSegment"
     stroke="#000000"
     stroke-width="1.24"
     stroke-linecap="round"
     stroke-linejoin="round"
     fill-rule="evenodd"
     d="m 3850.49,400.125 c 66.39,-37.591 265.56,-37.591 331.95,0 -66.39,-29.655 -265.56,-29.655 -331.95,0"
     id="path19" />
  <path
     class="TieSegment"
     stroke="#000000"
     stroke-width="1.24"
     stroke-linecap="round"
     stroke-linejoin="round"
     fill-rule="evenodd"
     d="m 1738.47,387.725 c 65.9,-37.485 263.58,-37.485 329.47,0 -65.89,-29.549 -263.57,-29.549 -329.47,0"
     id="path20" />
  <path
     class="TieSegment"
     stroke="#000000"
     stroke-width="1.24"
     stroke-linecap="round"
     stroke-linejoin="round"
     fill-rule="evenodd"
     d="m 3511.06,846.215 c 65.89,29.549 263.57,29.549 329.46,0 -65.89,37.485 -263.57,37.485 -329.46,0"
     id="path21" />
  <path
     class="TieSegment"
     stroke="#000000"
     stroke-width="1.24"
     stroke-linecap="round"
     stroke-linejoin="round"
     fill-rule="evenodd"
     d="m 2794.43,846.215 c 65.9,29.549 263.58,29.549 329.47,0 -65.89,37.485 -263.57,37.485 -329.47,0"
     id="path22" />
  <path
     class="TieSegment"
     stroke="#000000"
     stroke-width="1.24"
     stroke-linecap="round"
     stroke-linejoin="round"
     fill-rule="evenodd"
     d="m 2455.05,846.215 c 65.89,29.549 263.57,29.549 329.46,0 -65.89,37.485 -263.57,37.485 -329.46,0"
     id="path23" />
  <path
     class="TieSegment"
     stroke="#000000"
     stroke-width="1.24"
     stroke-linecap="round"
     stroke-linejoin="round"
     fill-rule="evenodd"
     d="m 1738.42,846.215 c 65.89,29.549 263.57,29.549 329.47,0 -65.9,37.485 -263.58,37.485 -329.47,0"
     id="path24" />
  <path
     class="TieSegment"
     stroke="#000000"
     stroke-width="1.24"
     stroke-linecap="round"
     stroke-linejoin="round"
     fill-rule="evenodd"
     d="m 1021.8,846.215 c 73.46,31.122 293.85,31.122 367.31,0 -73.46,39.058 -293.85,39.058 -367.31,0"
     id="path25" />
  <path
     class="TieSegment"
     stroke="#000000"
     stroke-width="1.24"
     stroke-linecap="round"
     stroke-linejoin="round"
     fill-rule="evenodd"
     d="m 1399.03,846.215 c 65.9,29.549 263.58,29.549 329.47,0 -65.89,37.485 -263.57,37.485 -329.47,0"
     id="path26" />
  <path
     class="TieSegment"
     stroke="#000000"
     stroke-width="1.24"
     stroke-linecap="round"
     stroke-linejoin="round"
     fill-rule="evenodd"
     d="m 682.41,846.215 c 65.893,29.549 263.573,29.549 329.47,0 -65.897,37.485 -263.577,37.485 -329.47,0"
     id="path27" />
  <path
     class="TieSegment"
     stroke="#000000"
     stroke-width="1.24"
     stroke-linecap="round"
     stroke-linejoin="round"
     fill-rule="evenodd"
     d="m 340.543,846.215 c 66.39,29.655 265.558,29.655 331.947,0 -66.389,37.591 -265.557,37.591 -331.947,0"
     id="path28" />
  <path
     class="TieSegment"
     stroke="#000000"
     stroke-width="1.24"
     stroke-linecap="round"
     stroke-linejoin="round"
     fill-rule="evenodd"
     d="m 2077.81,846.215 c 73.46,31.122 293.85,31.122 367.32,0 -73.47,39.058 -293.86,39.058 -367.32,0"
     id="path29" />
  <path
     class="TieSegment"
     stroke="#000000"
     stroke-width="1.24"
     stroke-linecap="round"
     stroke-linejoin="round"
     fill-rule="evenodd"
     d="m 3133.82,846.215 c 73.46,31.122 293.85,31.122 367.32,0 -73.47,39.058 -293.86,39.058 -367.32,0"
     id="path30" />
  <path
     class="TieSegment"
     stroke="#000000"
     stroke-width="1.24"
     stroke-linecap="round"
     stroke-linejoin="round"
     fill-rule="evenodd"
     d="m 3850.44,846.215 c 66.39,29.655 265.56,29.655 331.95,0 -66.39,37.591 -265.56,37.591 -331.95,0"
     id="path31" />
  <polyline
     class="BarLine"
     fill="none"
     stroke="#000000"
     stroke-width="4.46"
     stroke-linejoin="bevel"
     points="126.232,172.236 126.232,468.17"
     id="polyline31" />
  <polyline
     class="BarLine"
     fill="none"
     stroke="#000000"
     stroke-width="4.46"
     stroke-linejoin="bevel"
     points="4510.38,172.236 4510.38,468.17"
     id="polyline32" />
  <polyline
     class="BarLine"
     fill="none"
     stroke="#000000"
     stroke-width="13.64"
     stroke-linejoin="bevel"
     points="4528.6,172.236 4528.6,468.17"
     id="polyline33" />
  <polyline
     class="BarLine"
     fill="none"
     stroke="#000000"
     stroke-width="4.46"
     stroke-linejoin="bevel"
     points="1342.34,172.236 1342.34,468.17"
     id="polyline34" />
  <polyline
     class="BarLine"
     fill="none"
     stroke="#000000"
     stroke-width="4.46"
     stroke-linejoin="bevel"
     points="3454.36,172.236 3454.36,468.17"
     id="polyline35" />
  <polyline
     class="BarLine"
     fill="none"
     stroke="#000000"
     stroke-width="4.46"
     stroke-linejoin="bevel"
     points="2398.35,172.236 2398.35,468.17"
     id="polyline36" />
  <polyline
     class="BarLine"
     fill="none"
     stroke="#000000"
     stroke-width="4.46"
     stroke-linejoin="bevel"
     points="126.232,466.806 126.232,728.57"
     id="polyline37" />
  <polyline
     class="BarLine"
     fill="none"
     stroke="#000000"
     stroke-width="4.46"
     stroke-linejoin="bevel"
     points="4510.38,466.806 4510.38,568.734"
     id="polyline38" />
  <polyline
     class="BarLine"
     fill="none"
     stroke="#000000"
     stroke-width="13.64"
     stroke-linejoin="bevel"
     points="4528.6,466.806 4528.6,568.734"
     id="polyline39" />
  <polyline
     class="BarLine"
     fill="none"
     stroke="#000000"
     stroke-width="4.46"
     stroke-linejoin="bevel"
     points="3454.36,466.806 3454.36,568.734"
     id="polyline40" />
  <polyline
     class="BarLine"
     fill="none"
     stroke="#000000"
     stroke-width="4.46"
     stroke-linejoin="bevel"
     points="2398.35,466.806 2398.35,568.734"
     id="polyline41" />
  <polyline
     class="BarLine"
     fill="none"
     stroke="#000000"
     stroke-width="4.46"
     stroke-linejoin="bevel"
     points="1342.34,466.806 1342.34,568.734"
     id="polyline42" />
  <polyline
     class="BarLine"
     fill="none"
     stroke="#000000"
     stroke-width="4.46"
     stroke-linejoin="bevel"
     points="4510.38,727.206 4510.38,829.134"
     id="polyline43" />
  <polyline
     class="BarLine"
     fill="none"
     stroke="#000000"
     stroke-width="13.64"
     stroke-linejoin="bevel"
     points="4528.6,727.206 4528.6,829.134"
     id="polyline44" />
  <polyline
     class="BarLine"
     fill="none"
     stroke="#000000"
     stroke-width="4.46"
     stroke-linejoin="bevel"
     points="3454.36,727.206 3454.36,829.134"
     id="polyline45" />
  <polyline
     class="BarLine"
     fill="none"
     stroke="#000000"
     stroke-width="4.46"
     stroke-linejoin="bevel"
     points="1342.34,727.206 1342.34,829.134"
     id="polyline46" />
  <polyline
     class="BarLine"
     fill="none"
     stroke="#000000"
     stroke-width="4.46"
     stroke-linejoin="bevel"
     points="126.232,727.206 126.232,829.134"
     id="polyline47" />
  <polyline
     class="BarLine"
     fill="none"
     stroke="#000000"
     stroke-width="4.46"
     stroke-linejoin="bevel"
     points="2398.35,727.206 2398.35,829.134"
     id="polyline48" />
  <polyline
     class="LedgerLine"
     fill="none"
     stroke="#000000"
     stroke-width="3.97"
     stroke-linejoin="bevel"
     points="1369.78,297.6 1418.37,297.6"
     id="polyline49" />
  <polyline
     class="LedgerLine"
     fill="none"
     stroke="#000000"
     stroke-width="3.97"
     stroke-linejoin="bevel"
     points="4063.61,124 4112.2,124"
     id="polyline50" />
  <polyline
     class="LedgerLine"
     fill="none"
     stroke="#000000"
     stroke-width="3.97"
     stroke-linejoin="bevel"
     points="1234.96,297.6 1283.55,297.6"
     id="polyline51" />
  <polyline
     class="LedgerLine"
     fill="none"
     stroke="#000000"
     stroke-width="3.97"
     stroke-linejoin="bevel"
     points="313.767,297.6 362.359,297.6"
     id="polyline52" />
  <polyline
     class="LedgerLine"
     fill="none"
     stroke="#000000"
     stroke-width="3.97"
     stroke-linejoin="bevel"
     points="313.767,322.4 362.359,322.4"
     id="polyline53" />
  <polyline
     class="LedgerLine"
     fill="none"
     stroke="#000000"
     stroke-width="3.97"
     stroke-linejoin="bevel"
     points="313.767,347.2 362.359,347.2"
     id="polyline54" />
  <polyline
     class="LedgerLine"
     fill="none"
     stroke="#000000"
     stroke-width="3.97"
     stroke-linejoin="bevel"
     points="4160.57,148.8 4209.17,148.8"
     id="polyline55" />
  <polyline
     class="LedgerLine"
     fill="none"
     stroke="#000000"
     stroke-width="3.97"
     stroke-linejoin="bevel"
     points="4160.57,124 4209.17,124"
     id="polyline56" />
  <polyline
     class="LedgerLine"
     fill="none"
     stroke="#000000"
     stroke-width="3.97"
     stroke-linejoin="bevel"
     points="4063.61,148.8 4112.2,148.8"
     id="polyline57" />
  <polyline
     class="LedgerLine"
     fill="none"
     stroke="#000000"
     stroke-width="3.97"
     stroke-linejoin="bevel"
     points="459.218,297.6 507.811,297.6"
     id="polyline58" />
  <polyline
     class="LedgerLine"
     fill="none"
     stroke="#000000"
     stroke-width="3.97"
     stroke-linejoin="bevel"
     points="459.218,322.4 507.811,322.4"
     id="polyline59" />
  <polyline
     class="LedgerLine"
     fill="none"
     stroke="#000000"
     stroke-width="3.97"
     stroke-linejoin="bevel"
     points="556.186,297.6 604.779,297.6"
     id="polyline60" />
  <polyline
     class="LedgerLine"
     fill="none"
     stroke="#000000"
     stroke-width="3.97"
     stroke-linejoin="bevel"
     points="3966.64,148.8 4015.23,148.8"
     id="polyline61" />
  <polyline
     class="LedgerLine"
     fill="none"
     stroke="#000000"
     stroke-width="3.97"
     stroke-linejoin="bevel"
     points="3966.64,124 4015.23,124"
     id="polyline62" />
  <polyline
     class="LedgerLine"
     fill="none"
     stroke="#000000"
     stroke-width="3.97"
     stroke-linejoin="bevel"
     points="3966.64,99.2001 4015.23,99.2001"
     id="polyline63" />
  <polyline
     class="LedgerLine"
     fill="none"
     stroke="#000000"
     stroke-width="3.97"
     stroke-linejoin="bevel"
     points="3821.19,148.8 3869.78,148.8"
     id="polyline64" />
  <polyline
     class="LedgerLine"
     fill="none"
     stroke="#000000"
     stroke-width="3.97"
     stroke-linejoin="bevel"
     points="3821.19,124 3869.78,124"
     id="polyline65" />
  <polyline
     class="LedgerLine"
     fill="none"
     stroke="#000000"
     stroke-width="3.97"
     stroke-linejoin="bevel"
     points="3104.56,443.37 3153.15,443.37"
     id="polyline66" />
  <polyline
     class="LedgerLine"
     fill="none"
     stroke="#000000"
     stroke-width="3.97"
     stroke-linejoin="bevel"
     points="3250.01,443.37 3298.61,443.37"
     id="polyline67" />
  <polyline
     class="LedgerLine"
     fill="none"
     stroke="#000000"
     stroke-width="3.97"
     stroke-linejoin="bevel"
     points="2046.16,443.37 2099.53,443.37"
     id="polyline68" />
  <polyline
     class="LedgerLine"
     fill="none"
     stroke="#000000"
     stroke-width="3.97"
     stroke-linejoin="bevel"
     points="1137.99,443.37 1186.58,443.37"
     id="polyline69" />
  <polyline
     class="LedgerLine"
     fill="none"
     stroke="#000000"
     stroke-width="3.97"
     stroke-linejoin="bevel"
     points="1137.99,418.57 1186.58,418.57"
     id="polyline70" />
  <polyline
     class="LedgerLine"
     fill="none"
     stroke="#000000"
     stroke-width="3.97"
     stroke-linejoin="bevel"
     points="3479.41,418.57 3532.78,418.57"
     id="polyline71" />
  <polyline
     class="LedgerLine"
     fill="none"
     stroke="#000000"
     stroke-width="3.97"
     stroke-linejoin="bevel"
     points="1706.78,418.57 1760.14,418.57"
     id="polyline72" />
  <polyline
     class="LedgerLine"
     fill="none"
     stroke="#000000"
     stroke-width="3.97"
     stroke-linejoin="bevel"
     points="2046.16,418.57 2099.53,418.57"
     id="polyline73" />
  <polyline
     class="LedgerLine"
     fill="none"
     stroke="#000000"
     stroke-width="3.97"
     stroke-linejoin="bevel"
     points="3479.41,443.37 3532.78,443.37"
     id="polyline74" />
  <polyline
     class="LedgerLine"
     fill="none"
     stroke="#000000"
     stroke-width="3.97"
     stroke-linejoin="bevel"
     points="1706.78,443.37 1760.14,443.37"
     id="polyline75" />
  <polyline
     class="LedgerLine"
     fill="none"
     stroke="#000000"
     stroke-width="3.97"
     stroke-linejoin="bevel"
     points="2423.4,443.37 2476.77,443.37"
     id="polyline76" />
  <polyline
     class="LedgerLine"
     fill="none"
     stroke="#000000"
     stroke-width="3.97"
     stroke-linejoin="bevel"
     points="2423.4,418.57 2476.77,418.57"
     id="polyline77" />
  <polyline
     class="LedgerLine"
     fill="none"
     stroke="#000000"
     stroke-width="3.97"
     stroke-linejoin="bevel"
     points="1367.39,418.57 1420.76,418.57"
     id="polyline78" />
  <polyline
     class="LedgerLine"
     fill="none"
     stroke="#000000"
     stroke-width="3.97"
     stroke-linejoin="bevel"
     points="1367.39,443.37 1420.76,443.37"
     id="polyline79" />
  <polyline
     class="LedgerLine"
     fill="none"
     stroke="#000000"
     stroke-width="3.97"
     stroke-linejoin="bevel"
     points="3818.8,418.57 3872.17,418.57"
     id="polyline80" />
  <polyline
     class="LedgerLine"
     fill="none"
     stroke="#000000"
     stroke-width="3.97"
     stroke-linejoin="bevel"
     points="3818.8,443.37 3872.17,443.37"
     id="polyline81" />
  <polyline
     class="LedgerLine"
     fill="none"
     stroke="#000000"
     stroke-width="3.97"
     stroke-linejoin="bevel"
     points="650.767,443.37 704.133,443.37"
     id="polyline82" />
  <polyline
     class="LedgerLine"
     fill="none"
     stroke="#000000"
     stroke-width="3.97"
     stroke-linejoin="bevel"
     points="992.54,443.37 1041.13,443.37"
     id="polyline83" />
  <polyline
     class="LedgerLine"
     fill="none"
     stroke="#000000"
     stroke-width="3.97"
     stroke-linejoin="bevel"
     points="4158.19,418.57 4211.55,418.57"
     id="polyline84" />
  <polyline
     class="LedgerLine"
     fill="none"
     stroke="#000000"
     stroke-width="3.97"
     stroke-linejoin="bevel"
     points="311.38,443.37 364.746,443.37"
     id="polyline85" />
  <polyline
     class="LedgerLine"
     fill="none"
     stroke="#000000"
     stroke-width="3.97"
     stroke-linejoin="bevel"
     points="4158.19,443.37 4211.55,443.37"
     id="polyline86" />
  <polyline
     class="Stem"
     fill="none"
     stroke="#000000"
     stroke-width="2.48"
     stroke-linejoin="bevel"
     points="1408.95,281.232 1408.95,198.4"
     id="polyline87" />
  <polyline
     class="Stem"
     fill="none"
     stroke="#000000"
     stroke-width="2.48"
     stroke-linejoin="bevel"
     points="3520.97,206.832 3520.97,142.6"
     id="polyline88" />
  <polyline
     class="Stem"
     fill="none"
     stroke="#000000"
     stroke-width="2.48"
     stroke-linejoin="bevel"
     points="3636.68,190.167 3636.68,272.8"
     id="polyline89" />
  <polyline
     class="Stem"
     fill="none"
     stroke="#000000"
     stroke-width="2.48"
     stroke-linejoin="bevel"
     points="1864.04,177.767 1864.04,260.4"
     id="polyline90" />
  <polyline
     class="Stem"
     fill="none"
     stroke="#000000"
     stroke-width="2.48"
     stroke-linejoin="bevel"
     points="3733.64,165.367 3733.64,248"
     id="polyline91" />
  <polyline
     class="Stem"
     fill="none"
     stroke="#000000"
     stroke-width="2.48"
     stroke-linejoin="bevel"
     points="1554.4,256.432 1554.4,173.6"
     id="polyline92" />
  <polyline
     class="Stem"
     fill="none"
     stroke="#000000"
     stroke-width="2.48"
     stroke-linejoin="bevel"
     points="3830.61,128.167 3830.61,223.2"
     id="polyline93" />
  <polyline
     class="Stem"
     fill="none"
     stroke="#000000"
     stroke-width="2.48"
     stroke-linejoin="bevel"
     points="1651.37,231.632 1651.37,155"
     id="polyline94" />
  <polyline
     class="Stem"
     fill="none"
     stroke="#000000"
     stroke-width="2.48"
     stroke-linejoin="bevel"
     points="2464.96,268.832 2464.96,186"
     id="polyline95" />
  <polyline
     class="Stem"
     fill="none"
     stroke="#000000"
     stroke-width="2.48"
     stroke-linejoin="bevel"
     points="1718.59,202.567 1718.59,285.2"
     id="polyline96" />
  <polyline
     class="Stem"
     fill="none"
     stroke="#000000"
     stroke-width="2.48"
     stroke-linejoin="bevel"
     points="1961.01,190.167 1961.01,272.8"
     id="polyline97" />
  <polyline
     class="Stem"
     fill="none"
     stroke="#000000"
     stroke-width="2.48"
     stroke-linejoin="bevel"
     points="3976.06,103.367 3976.06,223.2"
     id="polyline98" />
  <polyline
     class="Stem"
     fill="none"
     stroke="#000000"
     stroke-width="2.48"
     stroke-linejoin="bevel"
     points="2203.43,227.367 2203.43,297.6"
     id="polyline99" />
  <polyline
     class="Stem"
     fill="none"
     stroke="#000000"
     stroke-width="2.48"
     stroke-linejoin="bevel"
     points="4073.03,115.767 4073.03,223.2"
     id="polyline100" />
  <polyline
     class="Stem"
     fill="none"
     stroke="#000000"
     stroke-width="2.48"
     stroke-linejoin="bevel"
     points="4315.45,165.367 4315.45,248"
     id="polyline101" />
  <polyline
     class="Stem"
     fill="none"
     stroke="#000000"
     stroke-width="2.48"
     stroke-linejoin="bevel"
     points="4170,128.167 4170,223.2"
     id="polyline102" />
  <polyline
     class="Stem"
     fill="none"
     stroke="#000000"
     stroke-width="2.48"
     stroke-linejoin="bevel"
     points="2057.98,202.567 2057.98,285.2"
     id="polyline103" />
  <polyline
     class="Stem"
     fill="none"
     stroke="#000000"
     stroke-width="2.48"
     stroke-linejoin="bevel"
     points="2330.14,244.032 2330.14,161.2"
     id="polyline104" />
  <polyline
     class="Stem"
     fill="none"
     stroke="#000000"
     stroke-width="2.48"
     stroke-linejoin="bevel"
     points="4412.42,190.167 4412.42,272.8"
     id="polyline105" />
  <polyline
     class="Stem"
     fill="none"
     stroke="#000000"
     stroke-width="2.48"
     stroke-linejoin="bevel"
     points="1244.38,301.767 1244.38,359.6"
     id="polyline106" />
  <polyline
     class="Stem"
     fill="none"
     stroke="#000000"
     stroke-width="2.48"
     stroke-linejoin="bevel"
     points="3356.41,227.367 3356.41,297.6"
     id="polyline107" />
  <polyline
     class="Stem"
     fill="none"
     stroke="#000000"
     stroke-width="2.48"
     stroke-linejoin="bevel"
     points="2435.21,276.967 2435.21,334.8"
     id="polyline108" />
  <polyline
     class="Stem"
     fill="none"
     stroke="#000000"
     stroke-width="2.48"
     stroke-linejoin="bevel"
     points="3259.44,214.967 3259.44,291.4"
     id="polyline109" />
  <polyline
     class="Stem"
     fill="none"
     stroke="#000000"
     stroke-width="2.48"
     stroke-linejoin="bevel"
     points="904.997,252.167 904.997,310"
     id="polyline110" />
  <polyline
     class="Stem"
     fill="none"
     stroke="#000000"
     stroke-width="2.48"
     stroke-linejoin="bevel"
     points="1001.96,264.567 1001.96,322.4"
     id="polyline111" />
  <polyline
     class="Stem"
     fill="none"
     stroke="#000000"
     stroke-width="2.48"
     stroke-linejoin="bevel"
     points="808.029,239.767 808.029,303.8"
     id="polyline112" />
  <polyline
     class="Stem"
     fill="none"
     stroke="#000000"
     stroke-width="2.48"
     stroke-linejoin="bevel"
     points="323.191,351.367 323.191,409.201"
     id="polyline113" />
  <polyline
     class="Stem"
     fill="none"
     stroke="#000000"
     stroke-width="2.48"
     stroke-linejoin="bevel"
     points="2920.05,165.367 2920.05,248"
     id="polyline114" />
  <polyline
     class="Stem"
     fill="none"
     stroke="#000000"
     stroke-width="2.48"
     stroke-linejoin="bevel"
     points="3491.22,239.767 3491.22,303.8"
     id="polyline115" />
  <polyline
     class="Stem"
     fill="none"
     stroke="#000000"
     stroke-width="2.48"
     stroke-linejoin="bevel"
     points="662.578,264.567 662.578,322.4"
     id="polyline116" />
  <polyline
     class="Stem"
     fill="none"
     stroke="#000000"
     stroke-width="2.48"
     stroke-linejoin="bevel"
     points="2774.6,190.167 2774.6,272.8"
     id="polyline117" />
  <polyline
     class="Stem"
     fill="none"
     stroke="#000000"
     stroke-width="2.48"
     stroke-linejoin="bevel"
     points="565.61,301.767 565.61,359.6"
     id="polyline118" />
  <polyline
     class="Stem"
     fill="none"
     stroke="#000000"
     stroke-width="2.48"
     stroke-linejoin="bevel"
     points="2677.63,227.367 2677.63,297.6"
     id="polyline119" />
  <polyline
     class="Stem"
     fill="none"
     stroke="#000000"
     stroke-width="2.48"
     stroke-linejoin="bevel"
     points="468.642,326.567 468.642,384.4"
     id="polyline120" />
  <polyline
     class="Stem"
     fill="none"
     stroke="#000000"
     stroke-width="2.48"
     stroke-linejoin="bevel"
     points="1147.42,289.367 1147.42,347.2"
     id="polyline121" />
  <polyline
     class="Stem"
     fill="none"
     stroke="#000000"
     stroke-width="2.48"
     stroke-linejoin="bevel"
     points="3017.02,177.767 3017.02,260.4"
     id="polyline122" />
  <polyline
     class="Stem"
     fill="none"
     stroke="#000000"
     stroke-width="2.48"
     stroke-linejoin="bevel"
     points="2580.66,252.167 2580.66,310"
     id="polyline123" />
  <polyline
     class="Stem"
     fill="none"
     stroke="#000000"
     stroke-width="2.48"
     stroke-linejoin="bevel"
     points="1379.2,314.167 1379.2,372"
     id="polyline124" />
  <polyline
     class="Stem"
     fill="none"
     stroke="#000000"
     stroke-width="2.48"
     stroke-linejoin="bevel"
     points="3113.99,190.167 3113.99,272.8"
     id="polyline125" />
  <polyline
     class="Stem"
     fill="none"
     stroke="#000000"
     stroke-width="2.48"
     stroke-linejoin="bevel"
     points="1001.96,435.136 1001.96,517.77"
     id="polyline126" />
  <polyline
     class="Stem"
     fill="none"
     stroke="#000000"
     stroke-width="2.48"
     stroke-linejoin="bevel"
     points="1147.42,422.736 1147.42,517.77"
     id="polyline127" />
  <polyline
     class="Stem"
     fill="none"
     stroke="#000000"
     stroke-width="2.48"
     stroke-linejoin="bevel"
     points="3113.99,447.536 3113.99,530.17"
     id="polyline128" />
  <polyline
     class="Stem"
     fill="none"
     stroke="#000000"
     stroke-width="2.48"
     stroke-linejoin="bevel"
     points="3259.44,435.136 3259.44,517.77"
     id="polyline129" />
  <path
     class="Note"
     d="m 3732.4,165.36951 c 0,4.2625 3.069,9.02103 11.1135,9.02103 10.3076,0 21.1265,-8.43203 21.1265,-17.15854 0,-5.85901 -4.96,-9.12949 -11.1135,-9.12949 -9.6254,0 -21.1265,8.13748 -21.1265,17.267"
     id="path129"
     style="stroke-width:0.992001" />
  <path
     class="Note"
     d="m 2077.8665,185.30251 c -9.6254,0 -21.1265,8.04448 -21.1265,17.267 0,4.2625 3.069,9.02103 11.1135,9.02103 10.3076,0 21.1265,-8.43203 21.1265,-17.15854 0,-5.85901 -4.96,-9.12949 -11.1135,-9.12949 m -13.6865,21.6225 c -3.2705,0 -3.968,-2.666 -3.968,-3.56501 0,-4.867 16.6625,-13.39201 21.328,-13.39201 2.3871,0 3.968,1.395 3.968,3.56501 0,4.96 -16.7709,13.39201 -21.328,13.39201"
     id="path130"
     style="stroke-width:0.992001" />
  <path
     class="Note"
     d="m 2299.15,252.16951 c 0,4.2625 3.069,9.02103 11.1135,9.02103 10.3076,0 21.1265,-8.43203 21.1265,-17.15854 0,-5.85901 -4.96,-9.12949 -11.1135,-9.12949 -9.6254,0 -21.1265,8.13748 -21.1265,17.267"
     id="path131"
     style="stroke-width:0.992001" />
  <path
     class="Note"
     d="m 1738.4765,185.30251 c -9.6254,0 -21.1265,8.04448 -21.1265,17.267 0,4.2625 3.069,9.02103 11.1135,9.02103 10.3076,0 21.1265,-8.43203 21.1265,-17.15854 0,-5.85901 -4.96,-9.12949 -11.1135,-9.12949 m -13.6865,21.6225 c -3.2705,0 -3.968,-2.666 -3.968,-3.56501 0,-4.867 16.6625,-13.39201 21.328,-13.39201 2.3871,0 3.968,1.395 3.968,3.56501 0,4.96 -16.7709,13.39201 -21.328,13.39201"
     id="path132"
     style="stroke-width:0.992001" />
  <path
     class="Note"
     d="m 3850.4965,110.90251 c -9.6254,0 -21.1265,8.04448 -21.1265,17.267 0,4.2625 3.069,9.02103 11.1135,9.02103 10.3076,0 21.1265,-8.43203 21.1265,-17.15854 0,-5.85901 -4.96,-9.12949 -11.1135,-9.12949 m -13.6865,21.6225 c -3.2705,0 -3.968,-2.666 -3.968,-3.56501 0,-4.867 16.6625,-13.39201 21.328,-13.39201 2.3871,0 3.968,1.395 3.968,3.56501 0,4.96 -16.7709,13.39201 -21.328,13.39201"
     id="path133"
     style="stroke-width:0.992001" />
  <path
     class="Note"
     d="m 1620.38,239.76951 c 0,4.2625 3.069,9.02103 11.1135,9.02103 10.3076,0 21.1265,-8.43203 21.1265,-17.15854 0,-5.85901 -4.96,-9.12949 -11.1135,-9.12949 -9.6254,0 -21.1265,8.13748 -21.1265,17.267"
     id="path134"
     style="stroke-width:0.992001" />
  <path
     class="Note"
     d="m 1959.77,190.16951 c 0,4.2625 3.069,9.02103 11.1135,9.02103 10.3076,0 21.1265,-8.43203 21.1265,-17.15854 0,-5.85901 -4.96,-9.12949 -11.1135,-9.12949 -9.6254,0 -21.1265,8.13748 -21.1265,17.267"
     id="path135"
     style="stroke-width:0.992001" />
  <path
     class="Note"
     d="m 3974.82,103.36961 c 0,4.2625 3.069,9.02103 11.1135,9.02103 10.3076,0 21.1265,-8.43203 21.1265,-17.158544 0,-5.859006 -4.96,-9.129484 -11.1135,-9.129484 -9.6254,0 -21.1265,8.137483 -21.1265,17.266998"
     id="path136"
     style="stroke-width:0.992001" />
  <path
     class="Note"
     d="m 2202.19,227.36951 c 0,4.2625 3.069,9.02103 11.1135,9.02103 10.3076,0 21.1265,-8.43203 21.1265,-17.15854 0,-5.85901 -4.96,-9.12949 -11.1135,-9.12949 -9.6254,0 -21.1265,8.13748 -21.1265,17.267"
     id="path137"
     style="stroke-width:0.992001" />
  <path
     class="Note"
     d="m 1523.41,264.56951 c 0,4.2625 3.069,9.02103 11.1135,9.02103 10.3076,0 21.1265,-8.43203 21.1265,-17.15854 0,-5.85901 -4.96,-9.12949 -11.1135,-9.12949 -9.6254,0 -21.1265,8.13748 -21.1265,17.267"
     id="path138"
     style="stroke-width:0.992001" />
  <path
     class="Note"
     d="m 4411.18,190.16951 c 0,4.2625 3.069,9.02103 11.1135,9.02103 10.3076,0 21.1265,-8.43203 21.1265,-17.15854 0,-5.85901 -4.96,-9.12949 -11.1135,-9.12949 -9.6254,0 -21.1265,8.13748 -21.1265,17.267"
     id="path139"
     style="stroke-width:0.992001" />
  <path
     class="Note"
     d="m 1862.8,177.76951 c 0,4.2625 3.069,9.02103 11.1135,9.02103 10.3076,0 21.1265,-8.43203 21.1265,-17.15854 0,-5.85901 -4.96,-9.12949 -11.1135,-9.12949 -9.6254,0 -21.1265,8.13748 -21.1265,17.267"
     id="path140"
     style="stroke-width:0.992001" />
  <path
     class="Note"
     d="m 2455.0965,259.70251 c -9.6254,0 -21.1265,8.04448 -21.1265,17.267 0,4.2625 3.069,9.02103 11.1135,9.02103 10.3076,0 21.1265,-8.43203 21.1265,-17.15854 0,-5.85901 -4.96,-9.12949 -11.1135,-9.12949 m -13.6865,21.6225 c -3.2705,0 -3.968,-2.666 -3.968,-3.565 0,-4.86701 16.6625,-13.39202 21.328,-13.39202 2.3871,0 3.968,1.395 3.968,3.56501 0,4.96 -16.7709,13.39201 -21.328,13.39201"
     id="path141"
     style="stroke-width:0.992001" />
  <path
     class="Note"
     d="m 4314.21,165.36951 c 0,4.2625 3.069,9.02103 11.1135,9.02103 10.3076,0 21.1265,-8.43203 21.1265,-17.15854 0,-5.85901 -4.96,-9.12949 -11.1135,-9.12949 -9.6254,0 -21.1265,8.13748 -21.1265,17.267"
     id="path142"
     style="stroke-width:0.992001" />
  <path
     class="Note"
     d="m 3635.44,190.16951 c 0,4.2625 3.069,9.02103 11.1135,9.02103 10.3076,0 21.1265,-8.43203 21.1265,-17.15854 0,-5.85901 -4.96,-9.12949 -11.1135,-9.12949 -9.6254,0 -21.1265,8.13748 -21.1265,17.267"
     id="path143"
     style="stroke-width:0.992001" />
  <path
     class="Note"
     d="m 1399.0865,272.10251 c -9.6254,0 -21.1265,8.04448 -21.1265,17.267 0,4.2625 3.069,9.02103 11.1135,9.02103 10.3076,0 21.1265,-8.43203 21.1265,-17.15854 0,-5.85901 -4.96,-9.12949 -11.1135,-9.12949 m -13.6865,21.6225 c -3.2705,0 -3.968,-2.666 -3.968,-3.56501 0,-4.867 16.6625,-13.39201 21.328,-13.39201 2.3871,0 3.968,1.395 3.968,3.56501 0,4.96 -16.7709,13.39201 -21.328,13.39201"
     id="path144"
     style="stroke-width:0.992001" />
  <path
     class="Note"
     d="m 4189.8865,110.90251 c -9.6254,0 -21.1265,8.04448 -21.1265,17.267 0,4.2625 3.069,9.02103 11.1135,9.02103 10.3076,0 21.1265,-8.43203 21.1265,-17.15854 0,-5.85901 -4.96,-9.12949 -11.1135,-9.12949 m -13.6865,21.6225 c -3.2705,0 -3.968,-2.666 -3.968,-3.56501 0,-4.867 16.6625,-13.39201 21.328,-13.39201 2.3871,0 3.968,1.395 3.968,3.56501 0,4.96 -16.7709,13.39201 -21.328,13.39201"
     id="path145"
     style="stroke-width:0.992001" />
  <path
     class="Note"
     d="m 3511.1065,197.70251 c -9.6254,0 -21.1265,8.04448 -21.1265,17.267 0,4.2625 3.069,9.02103 11.1135,9.02103 10.3076,0 21.1265,-8.43203 21.1265,-17.15854 0,-5.85901 -4.96,-9.12949 -11.1135,-9.12949 m -13.6865,21.6225 c -3.2705,0 -3.968,-2.666 -3.968,-3.56501 0,-4.867 16.6625,-13.39201 21.328,-13.39201 2.3871,0 3.968,1.395 3.968,3.56501 0,4.96 -16.7709,13.39201 -21.328,13.39201"
     id="path146"
     style="stroke-width:0.992001" />
  <path
     class="Note"
     d="m 4071.79,115.76951 c 0,4.2625 3.069,9.02103 11.1135,9.02103 10.3076,0 21.1265,-8.43203 21.1265,-17.15854 0,-5.85901 -4.96,-9.129488 -11.1135,-9.129488 -9.6254,0 -21.1265,8.137488 -21.1265,17.266998"
     id="path147"
     style="stroke-width:0.992001" />
  <path
     class="Note"
     d="m 3133.8765,172.90251 c -9.6254,0 -21.1265,8.04448 -21.1265,17.267 0,4.2625 3.069,9.02103 11.1135,9.02103 10.3076,0 21.1265,-8.43203 21.1265,-17.15854 0,-5.85901 -4.96,-9.12949 -11.1135,-9.12949 m -13.6865,21.6225 c -3.2705,0 -3.968,-2.666 -3.968,-3.56501 0,-4.867 16.6625,-13.39201 21.328,-13.39201 2.3871,0 3.968,1.395 3.968,3.56501 0,4.96 -16.7709,13.39201 -21.328,13.39201"
     id="path148"
     style="stroke-width:0.992001" />
  <path
     class="Note"
     d="m 2794.4865,172.90251 c -9.6254,0 -21.1265,8.04448 -21.1265,17.267 0,4.2625 3.069,9.02103 11.1135,9.02103 10.3076,0 21.1265,-8.43203 21.1265,-17.15854 0,-5.85901 -4.96,-9.12949 -11.1135,-9.12949 m -13.6865,21.6225 c -3.2705,0 -3.968,-2.666 -3.968,-3.56501 0,-4.867 16.6625,-13.39201 21.328,-13.39201 2.3871,0 3.968,1.395 3.968,3.56501 0,4.96 -16.7709,13.39201 -21.328,13.39201"
     id="path149"
     style="stroke-width:0.992001" />
  <path
     class="Note"
     d="m 2455.0965,259.70251 c -9.6254,0 -21.1265,8.04448 -21.1265,17.267 0,4.2625 3.069,9.02103 11.1135,9.02103 10.3076,0 21.1265,-8.43203 21.1265,-17.15854 0,-5.85901 -4.96,-9.12949 -11.1135,-9.12949 m -13.6865,21.6225 c -3.2705,0 -3.968,-2.666 -3.968,-3.565 0,-4.86701 16.6625,-13.39202 21.328,-13.39202 2.3871,0 3.968,1.395 3.968,3.56501 0,4.96 -16.7709,13.39201 -21.328,13.39201"
     id="path150"
     style="stroke-width:0.992001" />
  <path
     class="Note"
     d="m 1399.0865,296.90251 c -9.6254,0 -21.1265,8.04448 -21.1265,17.267 0,4.2625 3.069,9.02103 11.1135,9.02103 10.3076,0 21.1265,-8.43203 21.1265,-17.15854 0,-5.85901 -4.96,-9.12949 -11.1135,-9.12949 m -13.6865,21.6225 c -3.2705,0 -3.968,-2.666 -3.968,-3.565 0,-4.86701 16.6625,-13.39202 21.328,-13.39202 2.3871,0 3.968,1.395 3.968,3.56501 0,4.96 -16.7709,13.39201 -21.328,13.39201"
     id="path151"
     style="stroke-width:0.992001" />
  <path
     class="Note"
     d="m 1243.14,301.76951 c 0,4.2625 3.069,9.02103 11.1135,9.02103 10.3076,0 21.1265,-8.43203 21.1265,-17.15854 0,-5.85901 -4.96,-9.12949 -11.1135,-9.12949 -9.6254,0 -21.1265,8.13748 -21.1265,17.267"
     id="path152"
     style="stroke-width:0.992001" />
  <path
     class="Note"
     d="m 2918.81,165.36951 c 0,4.2625 3.069,9.02103 11.1135,9.02103 10.3076,0 21.1265,-8.43203 21.1265,-17.15854 0,-5.85901 -4.96,-9.12949 -11.1135,-9.12949 -9.6254,0 -21.1265,8.13748 -21.1265,17.267"
     id="path153"
     style="stroke-width:0.992001" />
  <path
     class="Note"
     d="m 2579.42,252.16951 c 0,4.2625 3.069,9.02103 11.1135,9.02103 10.3076,0 21.1265,-8.43203 21.1265,-17.15854 0,-5.85901 -4.96,-9.12949 -11.1135,-9.12949 -9.6254,0 -21.1265,8.13748 -21.1265,17.267"
     id="path154"
     style="stroke-width:0.992001" />
  <path
     class="Note"
     d="m 3015.78,177.76951 c 0,4.2625 3.069,9.02103 11.1135,9.02103 10.3076,0 21.1265,-8.43203 21.1265,-17.15854 0,-5.85901 -4.96,-9.12949 -11.1135,-9.12949 -9.6254,0 -21.1265,8.13748 -21.1265,17.267"
     id="path155"
     style="stroke-width:0.992001" />
  <path
     class="Note"
     d="m 3511.1065,222.50251 c -9.6254,0 -21.1265,8.04448 -21.1265,17.267 0,4.2625 3.069,9.02103 11.1135,9.02103 10.3076,0 21.1265,-8.43203 21.1265,-17.15854 0,-5.85901 -4.96,-9.12949 -11.1135,-9.12949 m -13.6865,21.6225 c -3.2705,0 -3.968,-2.666 -3.968,-3.56501 0,-4.867 16.6625,-13.39201 21.328,-13.39201 2.3871,0 3.968,1.395 3.968,3.56501 0,4.96 -16.7709,13.39201 -21.328,13.39201"
     id="path156"
     style="stroke-width:0.992001" />
  <path
     class="Note"
     d="m 1146.18,289.36951 c 0,4.2625 3.069,9.02103 11.1135,9.02103 10.3076,0 21.1265,-8.43203 21.1265,-17.15854 0,-5.85901 -4.96,-9.12949 -11.1135,-9.12949 -9.6254,0 -21.1265,8.13748 -21.1265,17.267"
     id="path157"
     style="stroke-width:0.992001" />
  <path
     class="Note"
     d="m 2676.39,227.36951 c 0,4.2625 3.069,9.02103 11.1135,9.02103 10.3076,0 21.1265,-8.43203 21.1265,-17.15854 0,-5.85901 -4.96,-9.12949 -11.1135,-9.12949 -9.6254,0 -21.1265,8.13748 -21.1265,17.267"
     id="path158"
     style="stroke-width:0.992001" />
  <path
     class="Note"
     d="m 1021.8465,247.30251 c -9.6254,0 -21.1265,8.04448 -21.1265,17.267 0,4.2625 3.069,9.02103 11.1135,9.02103 10.3076,0 21.1265,-8.43203 21.1265,-17.15854 0,-5.85901 -4.96,-9.12949 -11.1135,-9.12949 m -13.6865,21.6225 c -3.2705,0 -3.968,-2.666 -3.968,-3.56501 0,-4.867 16.6625,-13.39201 21.328,-13.39201 2.3871,0 3.968,1.395 3.968,3.56501 0,4.96 -16.7709,13.39201 -21.328,13.39201"
     id="path159"
     style="stroke-width:0.992001" />
  <path
     class="Note"
     d="m 903.757,252.16951 c 0,4.2625 3.069,9.02103 11.11349,9.02103 10.30758,0 21.12654,-8.43203 21.12654,-17.15854 0,-5.85901 -4.96,-9.12949 -11.11348,-9.12949 -9.62549,0 -21.12655,8.13748 -21.12655,17.267"
     id="path160"
     style="stroke-width:0.992001" />
  <path
     class="Note"
     d="m 3355.17,227.36951 c 0,4.2625 3.069,9.02103 11.1135,9.02103 10.3076,0 21.1265,-8.43203 21.1265,-17.15854 0,-5.85901 -4.96,-9.12949 -11.1135,-9.12949 -9.6254,0 -21.1265,8.13748 -21.1265,17.267"
     id="path161"
     style="stroke-width:0.992001" />
  <path
     class="Note"
     d="m 806.789,239.76951 c 0,4.2625 3.069,9.02103 11.11349,9.02103 10.30758,0 21.12654,-8.43203 21.12654,-17.15854 0,-5.85901 -4.96,-9.12949 -11.11348,-9.12949 -9.62549,0 -21.12655,8.13748 -21.12655,17.267"
     id="path162"
     style="stroke-width:0.992001" />
  <path
     class="Note"
     d="m 3258.2,214.96951 c 0,4.2625 3.069,9.02103 11.1135,9.02103 10.3076,0 21.1265,-8.43203 21.1265,-17.15854 0,-5.85901 -4.96,-9.12949 -11.1135,-9.12949 -9.6254,0 -21.1265,8.13749 -21.1265,17.267"
     id="path163"
     style="stroke-width:0.992001" />
  <path
     class="Note"
     d="m 682.46455,247.30251 c -9.62549,0 -21.12655,8.04448 -21.12655,17.267 0,4.2625 3.069,9.02103 11.11349,9.02103 10.30758,0 21.12654,-8.43203 21.12654,-17.15854 0,-5.85901 -4.96,-9.12949 -11.11348,-9.12949 m -13.68654,21.6225 c -3.2705,0 -3.96801,-2.666 -3.96801,-3.56501 0,-4.867 16.66255,-13.39201 21.32802,-13.39201 2.38706,0 3.96801,1.395 3.96801,3.56501 0,4.96 -16.77097,13.39201 -21.32802,13.39201"
     id="path164"
     style="stroke-width:0.992001" />
  <path
     class="Note"
     d="m 564.37,301.76951 c 0,4.2625 3.069,9.02103 11.11349,9.02103 10.30758,0 21.12654,-8.43203 21.12654,-17.15854 0,-5.85901 -4.96,-9.12949 -11.11348,-9.12949 -9.62549,0 -21.12655,8.13748 -21.12655,17.267"
     id="path165"
     style="stroke-width:0.992001" />
  <path
     class="Note"
     d="m 467.402,326.56951 c 0,4.2625 3.069,9.02103 11.11349,9.02103 10.30758,0 21.12654,-8.43203 21.12654,-17.15854 0,-5.85901 -4.96,-9.12949 -11.11348,-9.12949 -9.62549,0 -21.12655,8.13748 -21.12655,17.267"
     id="path166"
     style="stroke-width:0.992001" />
  <path
     class="Note"
     d="m 343.07755,334.10251 c -9.62549,0 -21.12655,8.04448 -21.12655,17.267 0,4.2625 3.069,9.02103 11.11349,9.02103 10.30758,0 21.12654,-8.43203 21.12654,-17.15854 0,-5.85901 -4.96,-9.12949 -11.11348,-9.12949 m -13.68654,21.6225 c -3.2705,0 -3.96801,-2.666 -3.96801,-3.56501 0,-4.867 16.66255,-13.39201 21.32803,-13.39201 2.38705,0 3.968,1.395 3.968,3.56501 0,4.96 -16.77097,13.39201 -21.32802,13.39201"
     id="path167"
     style="stroke-width:0.992001" />
  <path
     class="Note"
     d="m 2789.5235,442.28494 c -13.6865,0 -18.5535,6.94405 -18.5535,13.39206 0,6.44801 4.867,13.39206 18.5535,13.39206 13.6865,0 18.4451,-6.94405 18.4451,-13.39206 0,-6.44801 -4.7586,-13.39206 -18.4451,-13.39206 m 0.7905,23.60655 c -2.7745,0 -4.6655,-0.79048 -5.952,-3.27048 -1.2865,-2.48001 -3.0689,-8.92801 -3.1775,-11.51652 -0.2014,-2.6815 0.7906,-4.2625 3.1775,-5.053 1.1935,-0.40298 2.7745,-0.60455 4.3711,-0.60455 2.666,0 4.464,0.60455 5.8434,3.28605 1.395,2.57301 3.2861,9.02101 3.2861,11.50101 0,4.86701 -3.5806,5.65749 -7.5486,5.65749"
     id="path168"
     style="stroke-width:0.992001" />
  <path
     class="Note"
     d="m 677.50449,429.88494 c -13.68649,0 -18.55349,6.94405 -18.55349,13.39206 0,6.44801 4.867,13.39206 18.55349,13.39206 13.68654,0 18.44507,-6.94405 18.44507,-13.39206 0,-6.44801 -4.75853,-13.39206 -18.44507,-13.39206 m 0.79053,23.60655 c -2.77453,0 -4.66548,-0.79048 -5.95201,-3.27048 -1.28652,-2.48001 -3.06895,-8.92801 -3.17747,-11.51652 -0.20148,-2.6815 0.79052,-4.2625 3.17747,-5.053 1.19348,-0.40298 2.77453,-0.60455 4.37106,-0.60455 2.666,0 4.464,0.60455 5.84348,3.28605 1.39495,2.57301 3.286,9.02101 3.286,11.50101 0,4.86701 -3.58053,5.65749 -7.54853,5.65749"
     id="path169"
     style="stroke-width:0.992001" />
  <path
     class="Note"
     d="m 1394.1235,392.68494 c -13.6865,0 -18.5535,6.94405 -18.5535,13.39206 0,6.44801 4.867,13.39206 18.5535,13.39206 13.6865,0 18.4451,-6.94405 18.4451,-13.39206 0,-6.44801 -4.7586,-13.39206 -18.4451,-13.39206 m 0.7905,23.60655 c -2.7745,0 -4.6655,-0.79048 -5.952,-3.27048 -1.2865,-2.48001 -3.0689,-8.92801 -3.1775,-11.51652 -0.2014,-2.6815 0.7906,-4.2625 3.1775,-5.053 1.1935,-0.40298 2.7745,-0.60455 4.3711,-0.60455 2.666,0 4.464,0.60455 5.8434,3.28605 1.395,2.57301 3.2861,9.02101 3.2861,11.50101 0,4.86701 -3.5806,5.65749 -7.5486,5.65749"
     id="path170"
     style="stroke-width:0.992001" />
  <path
     class="Note"
     d="m 1167.3065,405.47251 c -9.6254,0 -21.1265,8.04448 -21.1265,17.267 0,4.2625 3.069,9.02103 11.1135,9.02103 10.3076,0 21.1265,-8.43203 21.1265,-17.15854 0,-5.85901 -4.96,-9.12949 -11.1135,-9.12949 m -13.6865,21.6225 c -3.2705,0 -3.968,-2.666 -3.968,-3.565 0,-4.86701 16.6625,-13.39202 21.328,-13.39202 2.3871,0 3.968,1.395 3.968,3.56501 0,4.96 -16.7709,13.39201 -21.328,13.39201"
     id="path171"
     style="stroke-width:0.992001" />
  <path
     class="Note"
     d="m 338.11749,429.88494 c -13.68649,0 -18.55349,6.94405 -18.55349,13.39206 0,6.44801 4.867,13.39206 18.55349,13.39206 13.68654,0 18.44507,-6.94405 18.44507,-13.39206 0,-6.44801 -4.75853,-13.39206 -18.44507,-13.39206 m 0.79053,23.60655 c -2.77453,0 -4.66548,-0.79048 -5.95201,-3.27048 -1.28652,-2.48001 -3.06895,-8.92801 -3.17747,-11.51652 -0.20148,-2.6815 0.79052,-4.2625 3.17747,-5.053 1.19348,-0.40298 2.77453,-0.60455 4.37106,-0.60455 2.666,0 4.464,0.60455 5.84348,3.28605 1.39495,2.57301 3.286,9.02101 3.286,11.50101 0,4.86701 -3.58053,5.65749 -7.54853,5.65749"
     id="path172"
     style="stroke-width:0.992001" />
  <path
     class="Note"
     d="m 2450.1435,392.68494 c -13.6865,0 -18.5535,6.94405 -18.5535,13.39206 0,6.44801 4.867,13.39206 18.5535,13.39206 13.6865,0 18.4451,-6.94405 18.4451,-13.39206 0,-6.44801 -4.7586,-13.39206 -18.4451,-13.39206 m 0.7905,23.60655 c -2.7745,0 -4.6655,-0.79048 -5.952,-3.27048 -1.2865,-2.48001 -3.0689,-8.92801 -3.1775,-11.51652 -0.2014,-2.6815 0.7906,-4.2625 3.1775,-5.053 1.1935,-0.40298 2.7745,-0.60455 4.3711,-0.60455 2.666,0 4.464,0.60455 5.8434,3.28605 1.395,2.57301 3.2861,9.02101 3.2861,11.50101 0,4.86701 -3.5806,5.65749 -7.5486,5.65749"
     id="path173"
     style="stroke-width:0.992001" />
  <path
     class="Note"
     d="m 3845.5335,405.08494 c -13.6865,0 -18.5535,6.94405 -18.5535,13.39206 0,6.44801 4.867,13.39206 18.5535,13.39206 13.6865,0 18.4451,-6.94405 18.4451,-13.39206 0,-6.44801 -4.7586,-13.39206 -18.4451,-13.39206 m 0.7905,23.60655 c -2.7745,0 -4.6655,-0.79048 -5.952,-3.27048 -1.2865,-2.48001 -3.0689,-8.92801 -3.1775,-11.51652 -0.2014,-2.6815 0.7906,-4.2625 3.1775,-5.053 1.1935,-0.40298 2.7745,-0.60455 4.3711,-0.60455 2.666,0 4.464,0.60455 5.8434,3.28605 1.395,2.57301 3.2861,9.02101 3.2861,11.50101 0,4.86701 -3.5806,5.65749 -7.5486,5.65749"
     id="path174"
     style="stroke-width:0.992001" />
  <path
     class="Note"
     d="m 3133.8765,430.27251 c -9.6254,0 -21.1265,8.04448 -21.1265,17.267 0,4.2625 3.069,9.02103 11.1135,9.02103 10.3076,0 21.1265,-8.43203 21.1265,-17.15854 0,-5.85901 -4.96,-9.12949 -11.1135,-9.12949 m -13.6865,21.6225 c -3.2705,0 -3.968,-2.666 -3.968,-3.565 0,-4.86701 16.6625,-13.39202 21.328,-13.39202 2.3871,0 3.968,1.395 3.968,3.56501 0,4.96 -16.7709,13.39201 -21.328,13.39201"
     id="path175"
     style="stroke-width:0.992001" />
  <path
     class="Note"
     d="m 4184.9235,405.08494 c -13.6865,0 -18.5535,6.94405 -18.5535,13.39206 0,6.44801 4.867,13.39206 18.5535,13.39206 13.6865,0 18.4451,-6.94405 18.4451,-13.39206 0,-6.44801 -4.7586,-13.39206 -18.4451,-13.39206 m 0.7905,23.60655 c -2.7745,0 -4.6655,-0.79048 -5.952,-3.27048 -1.2865,-2.48001 -3.0689,-8.92801 -3.1775,-11.51652 -0.2014,-2.6815 0.7906,-4.2625 3.1775,-5.053 1.1935,-0.40298 2.7745,-0.60455 4.3711,-0.60455 2.666,0 4.464,0.60455 5.8434,3.28605 1.395,2.57301 3.2861,9.02101 3.2861,11.50101 0,4.86701 -3.5806,5.65749 -7.5486,5.65749"
     id="path176"
     style="stroke-width:0.992001" />
  <path
     class="Note"
     d="m 2072.9035,392.68494 c -13.6865,0 -18.5535,6.94405 -18.5535,13.39206 0,6.44801 4.867,13.39206 18.5535,13.39206 13.6865,0 18.4451,-6.94405 18.4451,-13.39206 0,-6.44801 -4.7586,-13.39206 -18.4451,-13.39206 m 0.7905,23.60655 c -2.7745,0 -4.6655,-0.79048 -5.952,-3.27048 -1.2865,-2.48001 -3.0689,-8.92801 -3.1775,-11.51652 -0.2014,-2.6815 0.7906,-4.2625 3.1775,-5.053 1.1935,-0.40298 2.7745,-0.60455 4.3711,-0.60455 2.666,0 4.464,0.60455 5.8434,3.28605 1.395,2.57301 3.2861,9.02101 3.2861,11.50101 0,4.86701 -3.5806,5.65749 -7.5486,5.65749"
     id="path177"
     style="stroke-width:0.992001" />
  <path
     class="Note"
     d="m 1733.5135,392.68494 c -13.6865,0 -18.5535,6.94405 -18.5535,13.39206 0,6.44801 4.867,13.39206 18.5535,13.39206 13.6865,0 18.4451,-6.94405 18.4451,-13.39206 0,-6.44801 -4.7586,-13.39206 -18.4451,-13.39206 m 0.7905,23.60655 c -2.7745,0 -4.6655,-0.79048 -5.952,-3.27048 -1.2865,-2.48001 -3.0689,-8.92801 -3.1775,-11.51652 -0.2014,-2.6815 0.7906,-4.2625 3.1775,-5.053 1.1935,-0.40298 2.7745,-0.60455 4.3711,-0.60455 2.666,0 4.464,0.60455 5.8434,3.28605 1.395,2.57301 3.2861,9.02101 3.2861,11.50101 0,4.86701 -3.5806,5.65749 -7.5486,5.65749"
     id="path178"
     style="stroke-width:0.992001" />
  <path
     class="Note"
     d="m 3279.3265,417.87251 c -9.6254,0 -21.1265,8.04448 -21.1265,17.267 0,4.2625 3.069,9.02103 11.1135,9.02103 10.3076,0 21.1265,-8.43203 21.1265,-17.15854 0,-5.85901 -4.96,-9.12949 -11.1135,-9.12949 m -13.6865,21.6225 c -3.2705,0 -3.968,-2.666 -3.968,-3.565 0,-4.86701 16.6625,-13.39202 21.328,-13.39202 2.3871,0 3.968,1.395 3.968,3.56501 0,4.96 -16.7709,13.39201 -21.328,13.39201"
     id="path179"
     style="stroke-width:0.992001" />
  <path
     class="Note"
     d="m 1021.8465,417.87251 c -9.6254,0 -21.1265,8.04448 -21.1265,17.267 0,4.2625 3.069,9.02103 11.1135,9.02103 10.3076,0 21.1265,-8.43203 21.1265,-17.15854 0,-5.85901 -4.96,-9.12949 -11.1135,-9.12949 m -13.6865,21.6225 c -3.2705,0 -3.968,-2.666 -3.968,-3.565 0,-4.86701 16.6625,-13.39202 21.328,-13.39202 2.3871,0 3.968,1.395 3.968,3.56501 0,4.96 -16.7709,13.39201 -21.328,13.39201"
     id="path180"
     style="stroke-width:0.992001" />
  <path
     class="Note"
     d="m 3506.1535,405.08494 c -13.6865,0 -18.5535,6.94405 -18.5535,13.39206 0,6.44801 4.867,13.39206 18.5535,13.39206 13.6865,0 18.4451,-6.94405 18.4451,-13.39206 0,-6.44801 -4.7586,-13.39206 -18.4451,-13.39206 m 0.7905,23.60655 c -2.7745,0 -4.6655,-0.79048 -5.952,-3.27048 -1.2865,-2.48001 -3.0689,-8.92801 -3.1775,-11.51652 -0.2014,-2.6815 0.7906,-4.2625 3.1775,-5.053 1.1935,-0.40298 2.7745,-0.60455 4.3711,-0.60455 2.666,0 4.464,0.60455 5.8434,3.28605 1.395,2.57301 3.2861,9.02101 3.2861,11.50101 0,4.86701 -3.5806,5.65749 -7.5486,5.65749"
     id="path181"
     style="stroke-width:0.992001" />
  <path
     class="Note"
     d="m 2789.5235,814.28494 c -13.6865,0 -18.5535,6.94405 -18.5535,13.39206 0,6.44801 4.867,13.39206 18.5535,13.39206 13.6865,0 18.4451,-6.94405 18.4451,-13.39206 0,-6.44801 -4.7586,-13.39206 -18.4451,-13.39206 m 0.7905,23.60655 c -2.7745,0 -4.6655,-0.79048 -5.952,-3.27048 -1.2865,-2.48001 -3.0689,-8.92801 -3.1775,-11.51652 -0.2014,-2.6815 0.7906,-4.2625 3.1775,-5.053 1.1935,-0.40298 2.7745,-0.60455 4.3711,-0.60455 2.666,0 4.464,0.60455 5.8434,3.28605 1.395,2.57301 3.2861,9.02101 3.2861,11.50101 0,4.86701 -3.5806,5.65749 -7.5486,5.65749"
     id="path182"
     style="stroke-width:0.992001" />
  <path
     class="Note"
     d="m 2450.1435,814.28494 c -13.6865,0 -18.5535,6.94405 -18.5535,13.39206 0,6.44801 4.867,13.39206 18.5535,13.39206 13.6865,0 18.4451,-6.94405 18.4451,-13.39206 0,-6.44801 -4.7586,-13.39206 -18.4451,-13.39206 m 0.7905,23.60655 c -2.7745,0 -4.6655,-0.79048 -5.952,-3.27048 -1.2865,-2.48001 -3.0689,-8.92801 -3.1775,-11.51652 -0.2014,-2.6815 0.7906,-4.2625 3.1775,-5.053 1.1935,-0.40298 2.7745,-0.60455 4.3711,-0.60455 2.666,0 4.464,0.60455 5.8434,3.28605 1.395,2.57301 3.2861,9.02101 3.2861,11.50101 0,4.86701 -3.5806,5.65749 -7.5486,5.65749"
     id="path183"
     style="stroke-width:0.992001" />
  <path
     class="Note"
     d="m 3845.5335,814.28494 c -13.6865,0 -18.5535,6.94405 -18.5535,13.39206 0,6.44801 4.867,13.39206 18.5535,13.39206 13.6865,0 18.4451,-6.94405 18.4451,-13.39206 0,-6.44801 -4.7586,-13.39206 -18.4451,-13.39206 m 0.7905,23.60655 c -2.7745,0 -4.6655,-0.79048 -5.952,-3.27048 -1.2865,-2.48001 -3.0689,-8.92801 -3.1775,-11.51652 -0.2014,-2.6815 0.7906,-4.2625 3.1775,-5.053 1.1935,-0.40298 2.7745,-0.60455 4.3711,-0.60455 2.666,0 4.464,0.60455 5.8434,3.28605 1.395,2.57301 3.2861,9.02101 3.2861,11.50101 0,4.86701 -3.5806,5.65749 -7.5486,5.65749"
     id="path184"
     style="stroke-width:0.992001" />
  <path
     class="Note"
     d="m 338.11749,814.28494 c -13.68649,0 -18.55349,6.94405 -18.55349,13.39206 0,6.44801 4.867,13.39206 18.55349,13.39206 13.68654,0 18.44507,-6.94405 18.44507,-13.39206 0,-6.44801 -4.75853,-13.39206 -18.44507,-13.39206 m 0.79053,23.60655 c -2.77453,0 -4.66548,-0.79048 -5.95201,-3.27048 -1.28652,-2.48001 -3.06895,-8.92801 -3.17747,-11.51652 -0.20148,-2.6815 0.79052,-4.2625 3.17747,-5.053 1.19348,-0.40298 2.77453,-0.60455 4.37106,-0.60455 2.666,0 4.464,0.60455 5.84348,3.28605 1.39495,2.57301 3.286,9.02101 3.286,11.50101 0,4.86701 -3.58053,5.65749 -7.54853,5.65749"
     id="path185"
     style="stroke-width:0.992001" />
  <path
     class="Note"
     d="m 677.50449,814.28494 c -13.68649,0 -18.55349,6.94405 -18.55349,13.39206 0,6.44801 4.867,13.39206 18.55349,13.39206 13.68654,0 18.44507,-6.94405 18.44507,-13.39206 0,-6.44801 -4.75853,-13.39206 -18.44507,-13.39206 m 0.79053,23.60655 c -2.77453,0 -4.66548,-0.79048 -5.95201,-3.27048 -1.28652,-2.48001 -3.06895,-8.92801 -3.17747,-11.51652 -0.20148,-2.6815 0.79052,-4.2625 3.17747,-5.053 1.19348,-0.40298 2.77453,-0.60455 4.37106,-0.60455 2.666,0 4.464,0.60455 5.84348,3.28605 1.39495,2.57301 3.286,9.02101 3.286,11.50101 0,4.86701 -3.58053,5.65749 -7.54853,5.65749"
     id="path186"
     style="stroke-width:0.992001" />
  <path
     class="Note"
     d="m 1733.5135,814.28494 c -13.6865,0 -18.5535,6.94405 -18.5535,13.39206 0,6.44801 4.867,13.39206 18.5535,13.39206 13.6865,0 18.4451,-6.94405 18.4451,-13.39206 0,-6.44801 -4.7586,-13.39206 -18.4451,-13.39206 m 0.7905,23.60655 c -2.7745,0 -4.6655,-0.79048 -5.952,-3.27048 -1.2865,-2.48001 -3.0689,-8.92801 -3.1775,-11.51652 -0.2014,-2.6815 0.7906,-4.2625 3.1775,-5.053 1.1935,-0.40298 2.7745,-0.60455 4.3711,-0.60455 2.666,0 4.464,0.60455 5.8434,3.28605 1.395,2.57301 3.2861,9.02101 3.2861,11.50101 0,4.86701 -3.5806,5.65749 -7.5486,5.65749"
     id="path187"
     style="stroke-width:0.992001" />
  <path
     class="Note"
     d="m 3128.9135,814.28494 c -13.6865,0 -18.5535,6.94405 -18.5535,13.39206 0,6.44801 4.867,13.39206 18.5535,13.39206 13.6865,0 18.4451,-6.94405 18.4451,-13.39206 0,-6.44801 -4.7586,-13.39206 -18.4451,-13.39206 m 0.7905,23.60655 c -2.7745,0 -4.6655,-0.79048 -5.952,-3.27048 -1.2865,-2.48001 -3.0689,-8.92801 -3.1775,-11.51652 -0.2014,-2.6815 0.7906,-4.2625 3.1775,-5.053 1.1935,-0.40298 2.7745,-0.60455 4.3711,-0.60455 2.666,0 4.464,0.60455 5.8434,3.28605 1.395,2.57301 3.2861,9.02101 3.2861,11.50101 0,4.86701 -3.5806,5.65749 -7.5486,5.65749"
     id="path188"
     style="stroke-width:0.992001" />
  <path
     class="Note"
     d="m 4184.9235,814.28494 c -13.6865,0 -18.5535,6.94405 -18.5535,13.39206 0,6.44801 4.867,13.39206 18.5535,13.39206 13.6865,0 18.4451,-6.94405 18.4451,-13.39206 0,-6.44801 -4.7586,-13.39206 -18.4451,-13.39206 m 0.7905,23.60655 c -2.7745,0 -4.6655,-0.79048 -5.952,-3.27048 -1.2865,-2.48001 -3.0689,-8.92801 -3.1775,-11.51652 -0.2014,-2.6815 0.7906,-4.2625 3.1775,-5.053 1.1935,-0.40298 2.7745,-0.60455 4.3711,-0.60455 2.666,0 4.464,0.60455 5.8434,3.28605 1.395,2.57301 3.2861,9.02101 3.2861,11.50101 0,4.86701 -3.5806,5.65749 -7.5486,5.65749"
     id="path189"
     style="stroke-width:0.992001" />
  <path
     class="Note"
     d="m 1016.8905,814.28494 c -13.6865,0 -18.5535,6.94405 -18.5535,13.39206 0,6.44801 4.867,13.39206 18.5535,13.39206 13.6865,0 18.4451,-6.94405 18.4451,-13.39206 0,-6.44801 -4.7586,-13.39206 -18.4451,-13.39206 m 0.7905,23.60655 c -2.7745,0 -4.6655,-0.79048 -5.952,-3.27048 -1.2865,-2.48001 -3.0689,-8.92801 -3.1775,-11.51652 -0.2014,-2.6815 0.7906,-4.2625 3.1775,-5.053 1.1935,-0.40298 2.7745,-0.60455 4.3711,-0.60455 2.666,0 4.464,0.60455 5.8434,3.28605 1.395,2.57301 3.2861,9.02101 3.2861,11.50101 0,4.86701 -3.5806,5.65749 -7.5486,5.65749"
     id="path190"
     style="stroke-width:0.992001" />
  <path
     class="Note"
     d="m 3506.1535,814.28494 c -13.6865,0 -18.5535,6.94405 -18.5535,13.39206 0,6.44801 4.867,13.39206 18.5535,13.39206 13.6865,0 18.4451,-6.94405 18.4451,-13.39206 0,-6.44801 -4.7586,-13.39206 -18.4451,-13.39206 m 0.7905,23.60655 c -2.7745,0 -4.6655,-0.79048 -5.952,-3.27048 -1.2865,-2.48001 -3.0689,-8.92801 -3.1775,-11.51652 -0.2014,-2.6815 0.7906,-4.2625 3.1775,-5.053 1.1935,-0.40298 2.7745,-0.60455 4.3711,-0.60455 2.666,0 4.464,0.60455 5.8434,3.28605 1.395,2.57301 3.2861,9.02101 3.2861,11.50101 0,4.86701 -3.5806,5.65749 -7.5486,5.65749"
     id="path191"
     style="stroke-width:0.992001" />
  <path
     class="Note"
     d="m 1394.1235,814.28494 c -13.6865,0 -18.5535,6.94405 -18.5535,13.39206 0,6.44801 4.867,13.39206 18.5535,13.39206 13.6865,0 18.4451,-6.94405 18.4451,-13.39206 0,-6.44801 -4.7586,-13.39206 -18.4451,-13.39206 m 0.7905,23.60655 c -2.7745,0 -4.6655,-0.79048 -5.952,-3.27048 -1.2865,-2.48001 -3.0689,-8.92801 -3.1775,-11.51652 -0.2014,-2.6815 0.7906,-4.2625 3.1775,-5.053 1.1935,-0.40298 2.7745,-0.60455 4.3711,-0.60455 2.666,0 4.464,0.60455 5.8434,3.28605 1.395,2.57301 3.2861,9.02101 3.2861,11.50101 0,4.86701 -3.5806,5.65749 -7.5486,5.65749"
     id="path192"
     style="stroke-width:0.992001" />
  <path
     class="Note"
     d="m 2072.9035,814.28494 c -13.6865,0 -18.5535,6.94405 -18.5535,13.39206 0,6.44801 4.867,13.39206 18.5535,13.39206 13.6865,0 18.4451,-6.94405 18.4451,-13.39206 0,-6.44801 -4.7586,-13.39206 -18.4451,-13.39206 m 0.7905,23.60655 c -2.7745,0 -4.6655,-0.79048 -5.952,-3.27048 -1.2865,-2.48001 -3.0689,-8.92801 -3.1775,-11.51652 -0.2014,-2.6815 0.7906,-4.2625 3.1775,-5.053 1.1935,-0.40298 2.7745,-0.60455 4.3711,-0.60455 2.666,0 4.464,0.60455 5.8434,3.28605 1.395,2.57301 3.2861,9.02101 3.2861,11.50101 0,4.86701 -3.5806,5.65749 -7.5486,5.65749"
     id="path193"
     style="stroke-width:0.992001" />
  <path
     class="Clef"
     d="m 159.26254,298.88658 c 0,6.55653 4.96,15.19001 18.35202,15.19001 4.66548,0 8.742,-1.19347 12.30696,-3.37905 5.36305,-3.76643 6.74253,-10.32296 6.74253,-16.56949 0,-3.85948 -0.58895,-8.32349 -1.58095,-13.98097 -0.29453,-1.984 -0.89905,-4.96 -1.488,-8.83506 9.71843,-3.17747 16.95696,-13.29896 16.95696,-23.51352 0,-14.97304 -10.61748,-25.09453 -25.09455,-25.09453 -0.992,-5.952 -1.984,-11.81106 -2.77442,-17.36001 10.41601,-11.02054 17.65444,-23.42055 17.65444,-39.18404 0,-9.03654 -2.77443,-16.36802 -4.37096,-19.94815 -2.37147,-5.05325 -5.25453,-8.52526 -7.03705,-8.52526 -0.69748,0 -3.76643,1.19338 -7.03696,5.05326 -6.35506,7.54813 -8.13748,20.24267 -8.13748,28.56615 0,5.36296 0.496,10.23001 2.18547,21.3435 -0.10852,0.0931 -5.27,5.34748 -7.34705,7.03706 -9.03644,8.33895 -21.5295,20.42897 -21.5295,40.28451 0,18.53807 16.16654,33.12356 34.62708,33.12356 2.86748,0 5.54896,-0.29453 7.82749,-0.69748 1.89095,9.53244 3.08453,16.47645 3.08453,21.73098 0,10.32306 -5.36306,15.77906 -15.37602,15.77906 -2.38705,0 -4.464,-0.496 -4.66558,-0.496 -0.093,-0.10852 -0.29442,-0.20157 -0.29442,-0.29452 0,-0.20148 0.20147,-0.31 0.496,-0.31 4.66548,-0.79053 9.31548,-4.75853 9.31548,-11.09802 0,-5.36305 -4.06105,-11.02053 -11.50106,-11.02053 -6.94401,0 -11.31496,5.65748 -11.31496,12.19854 m 20.73897,-132.43214 c 0.89905,-3.968 5.456,-14.38401 10.61758,-14.38401 1.48801,0 3.85948,4.75843 3.85948,11.70244 0,10.32306 -7.62601,18.05759 -14.47706,24.80002 -0.58895,-3.968 -1.08495,-7.82748 -1.08495,-11.99696 0,-3.67348 0.29452,-7.05253 1.08495,-10.12149 m 8.72653,101.97463 c -1.984,0.40295 -3.85948,0.60443 -5.75053,0.60443 -14.18244,0 -26.288,-9.92001 -26.288,-24.9085 0,-12.09007 8.52503,-22.90903 17.26704,-30.45756 1.674,-1.488 3.27053,-2.86748 4.75853,-4.35548 0.88348,5.34748 1.58095,10.01296 2.27843,14.08949 -9.03644,2.68148 -15.17444,12.19854 -15.17444,21.52955 0,6.944 5.456,16.46101 13.39201,16.46101 0.79043,0 1.68948,-0.40295 1.68948,-1.28652 0,-0.89895 -0.992,-1.39495 -2.18548,-2.18548 -3.87505,-2.387 -6.06053,-4.96001 -6.06053,-9.82701 0,-6.04501 4.57253,-10.91206 10.32296,-12.29154 l 5.75053,32.62761 M 202.81753,250.077 c 0,7.05251 -2.88295,14.29102 -9.92001,17.17407 -2.07695,-11.90406 -4.75843,-27.68308 -5.456,-32.05413 8.928,0 15.37601,6.06055 15.37601,14.88006"
     id="path194"
     style="stroke-width:0.992001" />
  <path
     class="Clef"
     d="m 159.26254,593.45658 c 0,6.55653 4.96,15.19001 18.35202,15.19001 4.66548,0 8.742,-1.19347 12.30696,-3.37905 5.36305,-3.76643 6.74253,-10.32296 6.74253,-16.56949 0,-3.85948 -0.58895,-8.32349 -1.58095,-13.98097 -0.29453,-1.984 -0.89905,-4.96 -1.488,-8.83506 9.71843,-3.17747 16.95696,-13.29896 16.95696,-23.51352 0,-14.97304 -10.61748,-25.09453 -25.09455,-25.09453 -0.992,-5.952 -1.984,-11.81106 -2.77442,-17.36001 10.41601,-11.02054 17.65444,-23.42055 17.65444,-39.18404 0,-9.03654 -2.77443,-16.36802 -4.37096,-19.94815 -2.37147,-5.05325 -5.25453,-8.52526 -7.03705,-8.52526 -0.69748,0 -3.76643,1.19338 -7.03696,5.05326 -6.35506,7.54813 -8.13748,20.24267 -8.13748,28.56615 0,5.36296 0.496,10.23001 2.18547,21.3435 -0.10852,0.0931 -5.27,5.34748 -7.34705,7.03706 -9.03644,8.33895 -21.5295,20.42897 -21.5295,40.28451 0,18.53807 16.16654,33.12356 34.62708,33.12356 2.86748,0 5.54896,-0.29452 7.82749,-0.69748 1.89095,9.53244 3.08453,16.47645 3.08453,21.73098 0,10.32306 -5.36306,15.77906 -15.37602,15.77906 -2.38705,0 -4.464,-0.496 -4.66558,-0.496 -0.093,-0.10852 -0.29442,-0.20157 -0.29442,-0.29452 0,-0.20148 0.20147,-0.31 0.496,-0.31 4.66548,-0.79053 9.31548,-4.75853 9.31548,-11.09802 0,-5.36305 -4.06105,-11.02053 -11.50106,-11.02053 -6.94401,0 -11.31496,5.65748 -11.31496,12.19854 m 20.73897,-132.43214 c 0.89905,-3.968 5.456,-14.38401 10.61758,-14.38401 1.48801,0 3.85948,4.75843 3.85948,11.70244 0,10.32306 -7.62601,18.05759 -14.47706,24.80002 -0.58895,-3.968 -1.08495,-7.82748 -1.08495,-11.99696 0,-3.67348 0.29452,-7.05253 1.08495,-10.12149 m 8.72653,101.97463 c -1.984,0.40295 -3.85948,0.60443 -5.75053,0.60443 -14.18244,0 -26.288,-9.92001 -26.288,-24.9085 0,-12.09007 8.52503,-22.90903 17.26704,-30.45756 1.674,-1.488 3.27053,-2.86748 4.75853,-4.35548 0.88348,5.34748 1.58095,10.01296 2.27843,14.08949 -9.03644,2.68148 -15.17444,12.19854 -15.17444,21.52955 0,6.944 5.456,16.46101 13.39201,16.46101 0.79043,0 1.68948,-0.40295 1.68948,-1.28652 0,-0.89895 -0.992,-1.39495 -2.18548,-2.18548 -3.87505,-2.387 -6.06053,-4.96 -6.06053,-9.82701 0,-6.04501 4.57253,-10.91206 10.32296,-12.29154 l 5.75053,32.62761 M 202.81753,544.647 c 0,7.05251 -2.88295,14.29102 -9.92001,17.17407 -2.07695,-11.90406 -4.75843,-27.68308 -5.456,-32.05413 8.928,0 15.37601,6.06055 15.37601,14.88006"
     id="path195"
     style="stroke-width:0.992001" />
  <path
     class="Clef"
     d="m 172.26708,728.47693 c -7.54854,0 -13.59359,4.35557 -13.70202,4.35557 -5.84355,4.26243 -9.61006,10.81899 -9.61006,18.0575 0,7.23851 4.15401,12.60149 11.50101,12.60149 6.35506,0 11.31506,-4.26248 11.31506,-10.81899 0,-5.65751 -4.96,-10.30756 -10.52453,-10.30756 -1.19348,0 -2.27853,0.186 -3.17748,0.496 -0.992,0.38757 -2.66605,1.37955 -3.47205,2.07705 0.6975,-4.37105 3.67353,-8.72653 7.54848,-10.81906 2.48,-1.37948 5.65758,-1.984 9.12958,-1.984 10.12149,0 15.08149,8.13758 15.08149,24.80007 0,12.89607 -8.246,31.44956 -17.96454,40.19157 -10.32296,9.42401 -20.04151,13.88801 -20.13451,13.88801 0,0 -1.19351,0.682 -1.19351,1.87548 0,0.20148 0.093,0.29453 0.093,0.496 0.31,0.992 1.19351,1.19348 1.891,1.19348 l 0.29451,-0.0929 c 0.20149,0 11.51655,-4.66548 20.53751,-11.71802 13.88802,-10.01306 29.55856,-27.6675 29.55856,-45.92657 0,-17.26706 -9.31549,-28.36507 -27.1715,-28.36507 m 31.1395,12.58601 c 0,2.79005 2.18548,4.96005 4.77401,4.96005 2.57295,0 4.75853,-2.17 4.75853,-4.96005 0,-2.77443 -2.18558,-5.05296 -4.75853,-5.05296 -2.58853,0 -4.77401,2.27853 -4.77401,5.05296 m 0,24.5056 c 0,2.77452 2.18548,5.06853 4.77401,5.06853 2.57295,0 4.75853,-2.29401 4.75853,-5.06853 0,-2.77453 -2.18558,-5.05303 -4.75853,-5.05303 -2.58853,0 -4.77401,2.2785 -4.77401,5.05303"
     id="path196"
     style="stroke-width:0.992001" />
  <path
     class="TimeSig"
     d="m 263.2365,197.315 c 4.96001,-1.891 8.43201,-5.06851 8.43201,-10.52449 0,-0.88357 -0.29442,-12.10558 -17.36002,-12.10558 -17.06549,0 -16.56949,12.10558 -16.56949,12.10558 h 0.093 l -0.093,0.20148 c 0,3.565 2.883,6.355 6.44801,6.355 3.56505,0 6.35505,-2.79 6.35505,-6.355 0,-2.88305 -2.18557,-5.65748 -4.96005,-6.24653 0.093,-0.10853 0.186,-0.20148 0.2945,-0.29453 1.37955,-0.992 3.2705,-1.488 5.16155,-1.488 4.15401,0 8.61801,2.48 8.61801,7.82758 0,6.24648 -4.65,7.14548 -5.84358,7.34698 -1.19347,0.20151 -6.74243,0.589 -7.93598,0.589 -1.1935,0 -1.2865,1.395 -1.2865,1.395 v 1.98401 c 0,0 0.186,1.085 1.2865,1.1935 1.68955,0.093 3.96798,0.093 7.14556,0.589 4.35548,0.589 6.634,3.565 6.634,10.50906 0,6.64948 -4.464,8.43201 -8.61801,8.43201 -2.79,0 -5.36305,-0.79053 -6.44805,-1.58105 3.27048,-0.20148 5.95205,-3.06895 5.95205,-6.35496 0,-3.56505 -2.79,-6.44805 -6.35505,-6.44805 -3.56501,0 -6.44801,2.883 -6.44801,6.44805 0,8.13749 7.44001,12.21401 14.78707,12.21401 9.51696,0 19.84002,-3.286 19.84002,-14.08958 0,-7.23849 -4.96001,-10.32299 -9.33106,-11.70249 h 0.20147"
     id="path197"
     style="stroke-width:0.992001" />
  <path
     class="TimeSig"
     d="m 262.33807,267.04949 v -42.65604 c 0,-0.69747 -0.496,-1.19347 -1.19357,-1.19347 h -9.82696 c -0.20148,0 -0.38748,0.093 -0.58905,0.20147 -0.10843,0.093 -0.29443,0.29453 -0.40295,0.38748 L 239.212,243.04 c -0.093,0.20149 -0.093,0.403 -0.093,0.589 0,0.403 0.29451,0.806 0.589,0.992 l 1.891,1.10049 c 0.20151,0.093 0.403,0.20151 0.589,0.20151 0.403,0 0.80601,-0.31 0.99201,-0.60451 l 7.05248,-12.10555 v 33.83655 h -7.54848 c -0.68201,0 -1.17801,0.49601 -1.17801,1.19358 v 2.17 c 0,0.69748 0.496,1.19348 1.17801,1.19348 h 27.18702 c 0.69748,0 1.10053,-0.496 1.10053,-1.19348 v -2.17 c 0,-0.69757 -0.40305,-1.19358 -1.10053,-1.19358 h -7.53296"
     id="path198"
     style="stroke-width:0.992001" />
  <path
     class="TimeSig"
     d="m 263.2365,491.885 c 4.96001,-1.891 8.43201,-5.06851 8.43201,-10.52449 0,-0.88357 -0.29442,-12.10558 -17.36002,-12.10558 -17.06549,0 -16.56949,12.10558 -16.56949,12.10558 h 0.093 l -0.093,0.20148 c 0,3.565 2.883,6.355 6.44801,6.355 3.56505,0 6.35505,-2.79 6.35505,-6.355 0,-2.88305 -2.18557,-5.65748 -4.96005,-6.24653 0.093,-0.10853 0.186,-0.20148 0.2945,-0.29453 1.37955,-0.992 3.2705,-1.488 5.16155,-1.488 4.15401,0 8.61801,2.48 8.61801,7.82758 0,6.24648 -4.65,7.14548 -5.84358,7.34698 -1.19347,0.20151 -6.74243,0.589 -7.93598,0.589 -1.1935,0 -1.2865,1.395 -1.2865,1.395 v 1.98401 c 0,0 0.186,1.085 1.2865,1.1935 1.68955,0.093 3.96798,0.093 7.14556,0.589 4.35548,0.589 6.634,3.565 6.634,10.50906 0,6.64948 -4.464,8.43201 -8.61801,8.43201 -2.79,0 -5.36305,-0.79053 -6.44805,-1.58105 3.27048,-0.20148 5.95205,-3.06895 5.95205,-6.35496 0,-3.56505 -2.79,-6.44805 -6.35505,-6.44805 -3.56501,0 -6.44801,2.883 -6.44801,6.44805 0,8.13749 7.44001,12.21401 14.78707,12.21401 9.51696,0 19.84002,-3.286 19.84002,-14.08958 0,-7.23849 -4.96001,-10.32299 -9.33106,-11.70249 h 0.20147"
     id="path199"
     style="stroke-width:0.992001" />
  <path
     class="TimeSig"
     d="m 262.33807,561.61949 v -42.65604 c 0,-0.69747 -0.496,-1.19347 -1.19357,-1.19347 h -9.82696 c -0.20148,0 -0.38748,0.0929 -0.58905,0.20147 -0.10843,0.093 -0.29443,0.29453 -0.40295,0.38748 L 239.212,537.61 c -0.093,0.20149 -0.093,0.403 -0.093,0.589 0,0.403 0.29451,0.806 0.589,0.992 l 1.891,1.10049 c 0.20151,0.093 0.403,0.20151 0.589,0.20151 0.403,0 0.80601,-0.31 0.99201,-0.60451 l 7.05248,-12.10555 v 33.83655 h -7.54848 c -0.68201,0 -1.17801,0.49601 -1.17801,1.19358 v 2.17 c 0,0.69748 0.496,1.19348 1.17801,1.19348 h 27.18702 c 0.69748,0 1.10053,-0.496 1.10053,-1.19348 v -2.17 c 0,-0.69757 -0.40305,-1.19358 -1.10053,-1.19358 h -7.53296"
     id="path200"
     style="stroke-width:0.992001" />
  <path
     class="TimeSig"
     d="m 263.2365,752.285 c 4.96001,-1.891 8.43201,-5.06851 8.43201,-10.52449 0,-0.88357 -0.29442,-12.10558 -17.36002,-12.10558 -17.06549,0 -16.56949,12.10558 -16.56949,12.10558 h 0.093 l -0.093,0.20148 c 0,3.565 2.883,6.355 6.44801,6.355 3.56505,0 6.35505,-2.79 6.35505,-6.355 0,-2.88305 -2.18557,-5.65748 -4.96005,-6.24653 0.093,-0.10853 0.186,-0.20148 0.2945,-0.29453 1.37955,-0.992 3.2705,-1.488 5.16155,-1.488 4.15401,0 8.61801,2.48 8.61801,7.82758 0,6.24648 -4.65,7.14548 -5.84358,7.34698 -1.19347,0.20151 -6.74243,0.589 -7.93598,0.589 -1.1935,0 -1.2865,1.395 -1.2865,1.395 v 1.98401 c 0,0 0.186,1.085 1.2865,1.1935 1.68955,0.093 3.96798,0.093 7.14556,0.589 4.35548,0.589 6.634,3.565 6.634,10.50906 0,6.64948 -4.464,8.43201 -8.61801,8.43201 -2.79,0 -5.36305,-0.79053 -6.44805,-1.58105 3.27048,-0.20148 5.95205,-3.06895 5.95205,-6.35496 0,-3.56505 -2.79,-6.44805 -6.35505,-6.44805 -3.56501,0 -6.44801,2.883 -6.44801,6.44805 0,8.13749 7.44001,12.21401 14.78707,12.21401 9.51696,0 19.84002,-3.286 19.84002,-14.08958 0,-7.23849 -4.96001,-10.32299 -9.33106,-11.70249 h 0.20147"
     id="path201"
     style="stroke-width:0.992001" />
  <path
     class="TimeSig"
     d="m 262.33807,822.01949 v -42.65604 c 0,-0.69747 -0.496,-1.19347 -1.19357,-1.19347 h -9.82696 c -0.20148,0 -0.38748,0.0929 -0.58905,0.20147 -0.10843,0.0931 -0.29443,0.29453 -0.40295,0.38748 L 239.212,798.01 c -0.093,0.20149 -0.093,0.403 -0.093,0.589 0,0.403 0.29451,0.806 0.589,0.992 l 1.891,1.10049 c 0.20151,0.093 0.403,0.20151 0.589,0.20151 0.403,0 0.80601,-0.31 0.99201,-0.60451 l 7.05248,-12.10555 v 33.83655 h -7.54848 c -0.68201,0 -1.17801,0.49601 -1.17801,1.19358 v 2.17 c 0,0.69748 0.496,1.19348 1.17801,1.19348 h 27.18702 c 0.69748,0 1.10053,-0.496 1.10053,-1.19348 v -2.17 c 0,-0.69757 -0.40305,-1.19358 -1.10053,-1.19358 h -7.53296"
     id="path202"
     style="stroke-width:0.992001" />
  <path
     class="Tempo"
     d="m 262.47,5.77202 h -3.156 V 48.0376 c -1.188,-0.5937 -2.485,-0.9843 -3.969,-1.1875 -3.656,0 -6.437,0.5 -9.703,2.1719 -5.141,2.7813 -8.406,7.3281 -8.406,11.2969 0,4.1562 3.359,6.5312 7.218,6.9219 3.672,0 6.438,-0.5 9.704,-2.2813 5.046,-2.6719 8.312,-7.125 8.312,-11.0781 V 5.77202 m -7.016,44.43748 c 0.594,-0.0937 0.985,-0.1875 1.375,-0.1875 1,0 1.985,0.4844 2.579,1.4844 0.203,0.3906 0.296,0.8906 0.296,1.375 0,0.8906 -0.5,1.8906 -1.187,2.6875 -2.766,2.9687 -10.094,7.125 -14.063,8.2031 -0.484,0.2031 -0.89,0.2031 -1.281,0.2031 -1.187,0 -2.187,-0.5 -2.781,-1.3906 -0.188,-0.3906 -0.297,-0.8906 -0.297,-1.375 0,-0.8906 0.406,-1.7812 1.188,-2.6719 3.078,-3.2812 9.906,-6.9375 14.171,-8.3281"
     id="path203" />
  <path
     class="Tempo"
     d="m 284.314,43.7251 h 30.234 v -6.9062 h -30.234 v 6.9062 m 0,12.3594 h 30.234 v -6.9062 h -30.234 v 6.9062 m 72.203,-36.9687 h -2.109 c -3.782,2.8281 -8.032,4.0312 -15.172,4.1406 v 3.3594 h 2.515 c 5.344,0 5.407,0.125 5.344,5.0468 v 21.2969 c 0,3.7188 0,3.9063 -0.422,4.5 -0.547,0.6563 -1.75,0.9063 -4.984,0.9063 h -1.922 v 3.2343 h 23.937 v -3.2343 h -1.921 c -3.172,0 -4.313,-0.25 -4.86,-0.9063 -0.406,-0.5937 -0.406,-0.8437 -0.406,-4.5 V 19.1158 m 32.797,20.4062 c 5.094,-1.3281 9.656,-3.5937 9.656,-9.7812 0,-6.3594 -5.641,-10.625 -14.156,-10.625 -4.391,0 -7.922,1.1406 -10.438,3.3593 -1.984,1.75 -3.187,4.2657 -3.187,6.5469 0,3.125 2.344,5.4531 5.406,5.4531 2.875,0 4.859,-1.9062 4.859,-4.7343 0,-1.625 -0.656,-2.875 -2.343,-4.5 -0.297,-0.2969 -0.422,-0.4844 -0.422,-0.7188 0,-1.1406 2.219,-2.2812 4.562,-2.2812 3.782,0 6,2.7656 6,7.4375 0,5.2187 -1.734,8.4062 -4.687,8.4062 -0.469,0 -1.078,-0.0625 -2.031,-0.2969 -1.329,-0.3125 -1.735,-0.3593 -2.407,-0.3593 -1.5,0 -2.218,0.6562 -2.218,1.9687 0,1.3906 0.906,2.2813 2.156,2.2813 0.422,0 0.781,-0.0625 1.812,-0.1719 1.375,-0.125 1.735,-0.1875 2.157,-0.1875 3.718,0 5.578,2.875 5.578,8.5156 0,6.0625 -2.516,9.4844 -6.953,9.4844 -2.532,0 -5.172,-1.2656 -5.172,-2.5156 0,-0.3594 0.187,-0.7188 0.547,-1.0782 1.796,-1.6875 2.218,-2.4687 2.218,-4.2031 0,-2.8281 -2.218,-4.9844 -5.156,-4.9844 -3.25,0 -5.406,2.3438 -5.406,5.7032 0,6.0625 5.875,10.2031 14.515,10.2031 7.922,0 15.844,-3.2969 15.844,-12.4219 0,-3.7812 -1.672,-7.0781 -4.437,-8.7031 -1.735,-0.9531 -3.125,-1.375 -6.297,-1.7969 m 37.109,-2.5781 c 3.969,-1.5 7.094,-3.8438 7.094,-8.5781 0,-5.5313 -5.234,-9.25 -13.031,-9.25 -9.297,0 -15.297,4.9843 -15.297,12.7812 0,4.75 2.219,8.2188 6.969,10.75 -1.86,0.5938 -2.641,0.8281 -3.672,1.375 -3,1.5625 -4.61,4.3125 -4.61,7.7969 0,6.4844 5.813,10.625 14.938,10.625 9.656,0 16.203,-5.5313 16.203,-13.75 0,-5.6406 -2.766,-9.3594 -8.594,-11.75 m -3.359,-1.2656 c -2.516,-0.5938 -4.375,-1.1407 -5.516,-1.5625 -2.75,-1.0157 -4.562,-3.4688 -4.562,-6.1094 0,-3.3125 2.765,-5.7656 6.484,-5.7656 4.016,0 6.547,2.6406 6.547,6.8437 0,2.7031 -1.031,4.9844 -2.953,6.5938 m -7.672,8.5781 c 2.453,0.6719 5.453,1.5625 6.953,2.0469 3.781,1.3125 5.219,2.9375 5.219,6 0,4.0781 -3.36,7.0156 -8.094,7.0156 -4.859,0 -7.797,-2.875 -7.797,-7.6719 0,-3.1875 1.016,-5.2187 3.719,-7.3906"
     id="path204" />
  <path
     class="Tempo"
     d="m 253.736,105.406 h 6.718 c 12.532,0 18.891,-4.265 18.891,-12.6715 0,-4.5 -2.219,-8.1562 -6.062,-9.9531 -3.235,-1.5 -6.766,-2.0937 -12.766,-2.0937 h -23.828 v 3.2968 h 0.906 c 3.172,0 4.375,0.2344 4.922,0.8438 0.422,0.6562 0.422,0.8281 0.422,4.5469 V 115.36 c 0,3.718 0,3.906 -0.422,4.562 -0.547,0.594 -1.75,0.844 -4.922,0.844 h -0.906 V 124 h 23.765 v -3.234 h -1.328 c -3.234,0 -4.437,-0.25 -4.968,-0.844 -0.422,-0.656 -0.422,-0.844 -0.422,-4.562 v -9.954 m 0,-3.312 V 87.5783 c -0.063,-2.875 0.593,-3.5938 3.297,-3.5938 h 2.39 c 5.766,0 8.344,2.7032 8.344,8.7032 0,6.8906 -2.813,9.4063 -10.563,9.4063 h -3.468 m 38.437,-22.3126 c -2.937,0 -5.344,2.4063 -5.344,5.2813 0,2.9375 2.407,5.3437 5.219,5.3437 3.063,0 5.406,-2.3437 5.406,-5.3437 0,-2.875 -2.406,-5.2813 -5.281,-5.2813 m 4.86,15.8438 -14.094,0.4218 v 3.0469 h 0.828 c 3.672,0.0625 3.844,0.3125 3.844,5.6411 v 13.859 c -0.063,0.844 -0.125,1.203 -0.36,1.562 -0.359,0.547 -1.562,0.782 -4.078,0.782 h -0.234 V 124 h 18.765 v -3.062 h -0.359 c -3.781,-0.063 -4.312,-0.422 -4.312,-2.578 V 95.6252 m 30.812,-4.3282 -6.781,-8.2812 c -1.438,-1.7344 -1.438,-1.7344 -1.735,-1.9688 -0.953,-0.7187 -1.859,-1.0781 -2.875,-1.0781 -1.921,0 -3.421,1.3125 -3.421,3 0,1.25 0.718,2.2656 2.156,3.1094 l 8.828,5.2187 h 3.828 m 10.438,4.3282 -14.219,0.4218 v 3.0469 h 0.969 c 3.718,0.0625 3.89,0.3125 3.843,5.8281 v 4.797 c 0,3 -0.25,4.625 -1.031,6.187 -0.953,2.032 -3.047,3.407 -5.328,3.407 -3,0 -4.266,-1.86 -4.266,-6.407 V 95.6252 l -14.218,0.4218 v 3.0469 h 0.953 c 3.718,0.0625 3.906,0.3125 3.843,5.8281 v 7.625 c 0,4.438 0.125,5.516 0.969,7.188 1.61,3.359 4.735,5.171 8.875,5.171 4.25,0 7.141,-1.562 10.61,-5.828 V 124 l 13.984,-0.656 v -3.25 h -1.672 c -3.125,0 -3.359,-0.297 -3.312,-3.953 V 95.6252 m 44.031,-15.8438 -13.625,31.7966 c -2.75,6.485 -4.985,8.828 -8.516,9.188 V 124 h 17.344 v -3.234 c -4.266,-0.25 -5.953,-1.391 -5.953,-4.141 0,-1.031 0.25,-1.984 0.906,-3.422 l 0.953,-2.281 h 14.953 l 2.282,5.875 c 0.656,1.688 0.718,1.984 0.718,2.469 0,1.078 -0.843,1.437 -3.484,1.437 l -1.016,0.063 V 124 h 21.047 v -3.234 c -3.406,-0.125 -4.375,-0.719 -5.64,-3.781 L 386.876,79.7814 h -4.562 m -1.266,12.7813 5.828,14.3433 h -11.89 l 6.062,-14.3433 m 41.563,-12.7813 -14.407,0.9063 v 3.0468 h 1.141 c 3.672,0 3.906,0.3125 3.844,5.5938 v 29.2657 c -0.063,0.844 -0.125,1.203 -0.36,1.562 -0.421,0.547 -1.562,0.782 -4.203,0.782 h -0.234 V 124 h 18.719 v -3.062 h -0.422 c -3.594,-0.125 -4.078,-0.422 -4.078,-2.578 V 79.7814 m 21,0 -14.407,0.9063 v 3.0468 h 1.141 c 3.672,0 3.906,0.3125 3.844,5.5938 v 29.2657 c -0.063,0.844 -0.125,1.203 -0.36,1.562 -0.421,0.547 -1.562,0.782 -4.203,0.782 h -0.234 V 124 h 18.719 v -3.062 h -0.422 c -3.594,-0.125 -4.078,-0.422 -4.078,-2.578 V 79.7814 m 38.047,30.5466 v -0.968 c 0,-8.938 -5.532,-14.6411 -14.344,-14.6411 -4.86,0 -8.828,1.5625 -11.828,4.625 -2.688,2.8121 -4.313,6.7811 -4.313,10.7341 0,4.328 1.86,8.578 4.86,11.157 2.765,2.343 6.781,3.671 11.343,3.671 7.016,0 11.641,-3.125 14.282,-9.546 l -2.954,-1.204 c -2.39,4.688 -5.031,6.657 -9,6.657 -2.75,0 -5.156,-1.313 -6.656,-3.594 -1.015,-1.625 -1.437,-3.484 -1.5,-6.891 h 20.11 m -20.047,-3.312 c 0,-5.688 2.281,-9.1721 5.875,-9.1721 3.125,0 4.75,2.5161 4.75,7.2501 0,1.453 -0.422,1.922 -1.625,1.922 h -9 m 37.422,11.172 c -3.188,0 -3.907,-0.313 -3.907,-1.75 0,-1.5 1.078,-1.985 4.563,-1.985 h 1.078 c 3.969,0 6.187,-0.359 8.469,-1.437 3.468,-1.563 5.515,-4.61 5.515,-8.328 0,-2.828 -0.968,-4.625 -3.593,-6.7816 0.765,-1.1406 1.5,-1.6875 2.218,-1.6875 0.172,0 0.297,0.0625 0.297,0.2969 v 0.25 c 0,1.375 1.563,2.7031 3.235,2.7031 2.109,0 3.718,-1.6875 3.718,-3.8437 0,-2.3438 -1.797,-3.9063 -4.437,-3.9063 -2.766,0 -5.031,1.4375 -7.672,4.75 -2.281,-1.1406 -4.984,-1.75 -8.047,-1.75 -8.219,0 -14.156,4.3281 -14.156,10.2661 0,4.078 2.281,6.953 6.594,8.453 -4.735,0.906 -6.954,2.765 -6.954,5.875 0,2.64 1.922,4.625 5.454,5.593 -4.016,0.594 -6.36,2.516 -6.36,5.329 0,3.968 4.797,5.89 14.641,5.89 11.156,0 17.406,-3.547 17.406,-9.969 0,-3.359 -1.984,-6.171 -4.984,-7.078 -1.985,-0.656 -4.625,-0.89 -8.938,-0.89 h -4.14 m 1.625,-20.3441 c 2.875,0 4.375,2.3911 4.375,6.9531 0,4.328 -1.625,6.781 -4.438,6.781 -3.906,0 -4.562,-4.015 -4.562,-7.14 0,-4.438 1.562,-6.5941 4.625,-6.5941 m 2.265,28.7341 c 3.735,0 4.453,0.125 5.469,0.782 0.531,0.359 0.891,1.14 0.891,1.984 0,2.453 -2.985,3.656 -9.172,3.656 -4.625,0 -7.266,-1.265 -7.266,-3.484 0,-1.313 0.719,-2.281 2.219,-2.938 h 7.859 m 33.781,-30.9528 -13.375,0.4218 v 3.0469 h 0.907 c 3.718,0.0625 3.89,0.3125 3.828,5.8281 v 13.672 c -0.047,0.844 -0.11,1.203 -0.36,1.562 -0.406,0.547 -1.546,0.782 -4.14,0.782 h -0.235 V 124 h 20.047 v -3.062 h -1.328 c -4.015,-0.063 -4.5,-0.36 -4.5,-2.578 v -4.204 c 0.25,-8.875 2.766,-14.3277 7.078,-15.4683 -0.781,1.0781 -1.015,1.7343 -1.015,2.8123 0,2.578 1.922,4.438 4.5,4.438 2.937,0 5.156,-2.219 5.156,-5.157 0,-3.484 -2.75,-6.0621 -6.594,-6.0621 -4.625,0 -7.859,2.6406 -9.969,8.1561 v -7.2498 m 35.032,-0.9063 c -9.547,0 -16.625,6.4841 -16.625,15.1871 0,8.688 6.906,15 16.375,15 9.484,0 16.5,-6.359 16.5,-14.953 0,-8.515 -7.141,-15.2341 -16.25,-15.2341 m -0.125,3.125 c 5.64,0 6,8.0311 6,12.0621 0,7.61 -2.157,11.875 -6.063,11.875 -4.015,0 -6.062,-4.015 -6.062,-11.937 0,-7.984 2.047,-12.0001 6.125,-12.0001"
     id="path205" />
  <path
     class="Bracket"
     d="m 88.098233,500.685 c 9.300046,-12.47044 26.640667,-37.92158 26.640667,-85.0421 0,-59.59096 -19.762531,-120.40849 -19.762531,-157.0008 0,-39.96586 17.921931,-77.27383 18.600031,-78.5004 0.58125,-0.71566 0.58125,-1.32862 0.58125,-1.32862 0,-0.71566 0,-1.32927 -0.58125,-1.32927 0,0 -0.6781,-0.61296 -1.25935,-0.61296 0,0 -0.67815,0.61296 -1.2594,1.22657 -0.58126,1.32862 -27.90005,36.69501 -27.90005,89.64157 0,58.26234 18.01878,98.1255 18.01878,173.35505 0,14.41202 -5.037509,38.02363 -17.437529,57.64873 -0.581251,0.61361 -1.162502,1.22657 -1.162502,1.94223 0,1.32862 0.581251,1.94223 1.162502,2.55519 12.40002,19.6251 17.437529,42.52105 17.437529,56.93307 0,75.22955 -18.01878,115.19541 -18.01878,173.35505 0,53.04939 27.31879,89.64206 27.90005,90.35756 0.58125,0.61328 1.84065,1.22656 2.51875,0.61328 0.58125,-0.61328 0.58125,-0.61328 0.58125,-1.32878 0,-0.61329 0,-1.32879 -0.58125,-1.94207 -0.6781,-1.32882 -18.600031,-38.63692 -18.600031,-78.5004 0,-36.59296 19.762531,-97.51254 19.762531,-157.0008 0,-47.73413 -17.340621,-72.67436 -26.640667,-85.0421"
     id="path206"
     style="stroke-width:6.36856" />
  <text
     xml:space="preserve"
     style="font-stretch:semi-expanded;font-size:56px;line-height:0.8;font-family:Ravie;-inkscape-font-specification:'Ravie Semi-Expanded';text-align:center;writing-mode:lr-tb;direction:ltr;text-anchor:middle;fill:#cccccc;stroke:#005500;stroke-width:0.755906;stroke-opacity:0"
     x="260.03723"
     y="335.0029"
     id="text206"><tspan
       id="tspan206"
       x="260.03723"
       y="335.0029"
       style="font-style:normal;font-variant:normal;font-weight:normal;font-stretch:normal;font-size:56px;font-family:'MJ-UD Shin Go Pr6N';-inkscape-font-specification:'MJ-UD Shin Go Pr6N';fill:#000000"
       sodipodi:role="line">(Ia)</tspan></text>
  <text
     xml:space="preserve"
     style="font-stretch:semi-expanded;font-size:56px;line-height:0.8;font-family:Ravie;-inkscape-font-specification:'Ravie Semi-Expanded';text-align:center;writing-mode:lr-tb;direction:ltr;text-anchor:middle;fill:#cccccc;stroke:#005500;stroke-width:0.755906;stroke-opacity:0"
     x="1393.3792"
     y="152.24132"
     id="text206-0"><tspan
       id="tspan206-9"
       x="1393.3792"
       y="152.24132"
       style="font-style:normal;font-variant:normal;font-weight:normal;font-stretch:normal;font-size:56px;font-family:'MJ-UD Shin Go Pr6N';-inkscape-font-specification:'MJ-UD Shin Go Pr6N';fill:#000000"
       sodipodi:role="line">(Ib)</tspan></text>
  <g
     id="g1"
     transform="translate(613.52631,514.09487)"
     inkscape:transform-center-x="79.651042"
     inkscape:transform-center-y="-101.90648">
    <text
       xml:space="preserve"
       style="font-stretch:semi-expanded;font-size:56px;line-height:0.8;font-family:Ravie;-inkscape-font-specification:'Ravie Semi-Expanded';text-align:center;writing-mode:lr-tb;direction:ltr;text-anchor:middle;fill:#cccccc;stroke:#005500;stroke-width:0.755906;stroke-opacity:0"
       x="-354.91568"
       y="-59.738277"
       id="text206-4"><tspan
         id="tspan206-8"
         x="-354.91568"
         y="-59.738277"
         style="font-style:normal;font-variant:normal;font-weight:normal;font-stretch:normal;font-size:56px;font-family:'MJ-UD Shin Go Pr6N';-inkscape-font-specification:'MJ-UD Shin Go Pr6N';fill:#000000"
         sodipodi:role="line">(II)</tspan></text>
  </g>
</svg>
