<?xml version="1.0" encoding="UTF-8" standalone="no"?>
<svg
   xmlns:dc="http://purl.org/dc/elements/1.1/"
   xmlns:cc="http://creativecommons.org/ns#"
   xmlns:rdf="http://www.w3.org/1999/02/22-rdf-syntax-ns#"
   xmlns:svg="http://www.w3.org/2000/svg"
   xmlns="http://www.w3.org/2000/svg"
   xmlns:sodipodi="http://sodipodi.sourceforge.net/DTD/sodipodi-0.dtd"
   xmlns:inkscape="http://www.inkscape.org/namespaces/inkscape"
   width="2775.6311"
   height="576.00098"
   viewBox="0 0 2775.6311 576.00098"
   version="1.2"
   id="svg4254"
   sodipodi:docname="P100-110-1.svg"
   inkscape:version="1.0.1 (3bc2e813f5, 2020-09-07)">
  <metadata
     id="metadata4260">
    <rdf:RDF>
      <cc:Work
         rdf:about="">
        <dc:format>image/svg+xml</dc:format>
        <dc:type
           rdf:resource="http://purl.org/dc/dcmitype/StillImage" />
        <dc:title>P100-110</dc:title>
      </cc:Work>
    </rdf:RDF>
  </metadata>
  <defs
     id="defs4258" />
  <sodipodi:namedview
     pagecolor="#ffffff"
     bordercolor="#666666"
     borderopacity="1"
     objecttolerance="10"
     gridtolerance="10"
     guidetolerance="10"
     inkscape:pageopacity="0"
     inkscape:pageshadow="2"
     inkscape:window-width="813"
     inkscape:window-height="480"
     id="namedview4256"
     showgrid="false"
     fit-margin-top="0"
     fit-margin-left="0"
     fit-margin-right="0"
     fit-margin-bottom="0"
     inkscape:zoom="0.25454545"
     inkscape:cx="1387.361"
     inkscape:cy="332.73229"
     inkscape:window-x="0"
     inkscape:window-y="0"
     inkscape:window-maximized="0"
     inkscape:current-layer="svg4254" />
  <title
     id="title4018">P100-110</title>
  <desc
     id="desc4020">Generated by MuseScore 3.5.2</desc>
  <polyline
     class="StaffLines"
     fill="none"
     stroke="#000000"
     stroke-width="2"
     stroke-linejoin="bevel"
     points="517.732,316.732 2918.27,316.732"
     id="polyline4022"
     transform="translate(-142.639,-232.982)" />
  <polyline
     class="StaffLines"
     fill="none"
     stroke="#000000"
     stroke-width="2"
     stroke-linejoin="bevel"
     points="517.732,341.732 2918.27,341.732"
     id="polyline4024"
     transform="translate(-142.639,-232.982)" />
  <polyline
     class="StaffLines"
     fill="none"
     stroke="#000000"
     stroke-width="2"
     stroke-linejoin="bevel"
     points="517.732,366.732 2918.27,366.732"
     id="polyline4026"
     transform="translate(-142.639,-232.982)" />
  <polyline
     class="StaffLines"
     fill="none"
     stroke="#000000"
     stroke-width="2"
     stroke-linejoin="bevel"
     points="517.732,391.732 2918.27,391.732"
     id="polyline4028"
     transform="translate(-142.639,-232.982)" />
  <polyline
     class="StaffLines"
     fill="none"
     stroke="#000000"
     stroke-width="2"
     stroke-linejoin="bevel"
     points="517.732,416.732 2918.27,416.732"
     id="polyline4030"
     transform="translate(-142.639,-232.982)" />
  <polyline
     class="StaffLines"
     fill="none"
     stroke="#000000"
     stroke-width="2"
     stroke-linejoin="bevel"
     points="517.732,579.233 2918.27,579.233"
     id="polyline4032"
     transform="translate(-142.639,-232.982)" />
  <polyline
     class="StaffLines"
     fill="none"
     stroke="#000000"
     stroke-width="2"
     stroke-linejoin="bevel"
     points="517.732,741.733 2918.27,741.733"
     id="polyline4034"
     transform="translate(-142.639,-232.982)" />
  <path
     class="InstrumentName"
     d="m 122.546,517.423 c 0,1.197 -0.218,2.38 -0.656,3.546 -0.437,1.167 -1.167,2.321 -2.187,3.461 -1.021,1.141 -2.532,2.063 -4.532,2.766 -2,0.703 -4.38,1.055 -7.14,1.055 H 88 v -1.141 c 2.479,-0.083 4.057,-0.443 4.734,-1.078 0.677,-0.636 1.016,-2.073 1.016,-4.313 v -26.64 c 0,-2.198 -0.329,-3.607 -0.985,-4.227 -0.656,-0.62 -2.245,-1.013 -4.765,-1.179 v -1.141 h 16.796 c 10.48,0 15.719,3.432 15.719,10.297 0,1.312 -0.239,2.479 -0.719,3.5 -0.479,1.021 -0.968,1.799 -1.468,2.336 -0.5,0.536 -1.271,1.047 -2.313,1.531 -1.042,0.484 -1.703,0.755 -1.984,0.812 -0.281,0.058 -0.86,0.201 -1.735,0.43 0.917,0.24 1.605,0.419 2.063,0.539 0.458,0.12 1.299,0.456 2.523,1.008 1.224,0.552 2.175,1.146 2.852,1.781 0.677,0.636 1.315,1.537 1.914,2.703 0.599,1.167 0.898,2.485 0.898,3.954 m -18.89,8.546 c 1.802,0 3.362,-0.119 4.679,-0.359 1.318,-0.24 2.558,-0.648 3.719,-1.227 1.162,-0.578 2.052,-1.445 2.672,-2.601 0.62,-1.156 0.93,-2.589 0.93,-4.297 0,-1.635 -0.31,-3.021 -0.93,-4.156 -0.62,-1.136 -1.37,-2.003 -2.25,-2.602 -0.88,-0.599 -2.101,-1.057 -3.664,-1.375 -1.562,-0.317 -2.943,-0.508 -4.141,-0.57 -1.198,-0.063 -2.796,-0.094 -4.796,-0.094 v 14.828 c 0,0.959 0.26,1.607 0.781,1.946 0.521,0.338 1.521,0.507 3,0.507 m -3.781,-19.562 h 5.703 c 2.791,0 4.958,-0.633 6.5,-1.899 1.541,-1.265 2.312,-3.08 2.312,-5.445 0,-2.687 -0.898,-4.734 -2.695,-6.14 -1.797,-1.407 -4.419,-2.11 -7.867,-2.11 h -2.641 c -0.875,0 -1.312,0.604 -1.312,1.813 v 13.781 m 26.718,15.922 c 0,-0.719 0.081,-1.386 0.242,-2 0.162,-0.615 0.443,-1.193 0.844,-1.735 0.401,-0.541 0.781,-1.031 1.141,-1.468 0.359,-0.438 0.898,-0.883 1.617,-1.336 0.719,-0.453 1.318,-0.831 1.797,-1.133 0.479,-0.302 1.208,-0.662 2.187,-1.078 0.98,-0.417 1.73,-0.735 2.25,-0.953 0.521,-0.219 1.342,-0.547 2.461,-0.985 1.12,-0.437 1.94,-0.755 2.461,-0.953 v -3.64 c 0,-3.303 -1.521,-4.954 -4.562,-4.954 -1.198,0 -2.216,0.289 -3.055,0.868 -0.838,0.578 -1.258,1.268 -1.258,2.07 0,0.323 0.05,0.763 0.149,1.32 0.099,0.558 0.148,0.919 0.148,1.086 0,0.677 -0.271,1.266 -0.812,1.766 -0.542,0.5 -1.172,0.75 -1.891,0.75 -0.677,0 -1.276,-0.261 -1.797,-0.781 -0.521,-0.521 -0.781,-1.12 -0.781,-1.797 0,-1.886 0.969,-3.477 2.906,-4.774 1.938,-1.297 4.328,-1.945 7.172,-1.945 3.281,0 5.542,0.786 6.781,2.359 1.24,1.573 1.86,3.969 1.86,7.188 v 11.64 c 0,1.313 0.13,2.219 0.39,2.719 0.261,0.5 0.729,0.75 1.407,0.75 0.843,0 1.723,-0.38 2.64,-1.14 v 1.578 c -1.042,1.198 -1.95,2.013 -2.726,2.445 -0.776,0.432 -1.664,0.648 -2.664,0.648 -1.24,0 -2.152,-0.349 -2.735,-1.046 -0.583,-0.698 -0.953,-1.844 -1.109,-3.438 -3.438,2.99 -6.36,4.484 -8.766,4.484 -1.833,0 -3.341,-0.609 -4.523,-1.828 -1.183,-1.218 -1.774,-2.781 -1.774,-4.687 m 15,-1.547 v -8.656 c -3.604,1.312 -6.125,2.583 -7.562,3.812 -1.438,1.229 -2.156,2.724 -2.156,4.485 0,1.625 0.398,2.835 1.195,3.632 0.797,0.797 1.659,1.196 2.586,1.196 1.354,0 2.812,-0.459 4.375,-1.375 0.646,-0.355 1.067,-0.732 1.265,-1.133 0.198,-0.401 0.297,-1.055 0.297,-1.961 m 25.578,-18.938 c 0.042,0 0.365,-0.198 0.969,-0.593 h 0.656 l 0.235,8.156 h -0.891 c -0.687,-2.677 -1.531,-4.576 -2.531,-5.695 -1,-1.12 -2.359,-1.68 -4.078,-1.68 -1.354,0 -2.464,0.38 -3.328,1.141 -0.865,0.76 -1.297,1.739 -1.297,2.937 0,1.719 0.864,3.078 2.594,4.078 l 6.468,3.844 c 1.802,1.083 3.094,2.174 3.875,3.273 0.782,1.099 1.172,2.388 1.172,3.868 0,2.083 -0.831,3.882 -2.492,5.398 -1.661,1.516 -3.654,2.273 -5.977,2.273 -1,0 -2.338,-0.179 -4.015,-0.539 -1.677,-0.359 -2.719,-0.539 -3.125,-0.539 -0.594,0 -1.052,0.24 -1.375,0.719 h -0.781 v -9.359 h 0.968 c 0.636,2.802 1.396,4.781 2.282,5.937 1.27,1.646 3.046,2.469 5.328,2.469 1.52,0 2.731,-0.391 3.632,-1.172 0.902,-0.781 1.352,-1.833 1.352,-3.156 0,-1.792 -1.042,-3.292 -3.125,-4.5 l -3.469,-1.969 c -2.562,-1.437 -4.375,-2.818 -5.437,-4.141 -1.063,-1.323 -1.594,-2.823 -1.594,-4.5 0,-2.166 0.771,-3.937 2.313,-5.312 1.541,-1.375 3.494,-2.063 5.859,-2.063 1.312,0 2.549,0.188 3.711,0.563 1.161,0.375 1.862,0.562 2.101,0.562 m 22,0 c 0.042,0 0.365,-0.198 0.969,-0.593 h 0.656 l 0.235,8.156 h -0.891 c -0.687,-2.677 -1.531,-4.576 -2.531,-5.695 -1,-1.12 -2.359,-1.68 -4.078,-1.68 -1.354,0 -2.464,0.38 -3.328,1.141 -0.865,0.76 -1.297,1.739 -1.297,2.937 0,1.719 0.864,3.078 2.594,4.078 l 6.468,3.844 c 1.802,1.083 3.094,2.174 3.875,3.273 0.782,1.099 1.172,2.388 1.172,3.868 0,2.083 -0.831,3.882 -2.492,5.398 -1.661,1.516 -3.654,2.273 -5.977,2.273 -1,0 -2.338,-0.179 -4.015,-0.539 -1.677,-0.359 -2.719,-0.539 -3.125,-0.539 -0.594,0 -1.052,0.24 -1.375,0.719 h -0.781 v -9.359 h 0.968 c 0.636,2.802 1.396,4.781 2.282,5.937 1.27,1.646 3.046,2.469 5.328,2.469 1.52,0 2.731,-0.391 3.632,-1.172 0.902,-0.781 1.352,-1.833 1.352,-3.156 0,-1.792 -1.042,-3.292 -3.125,-4.5 l -3.469,-1.969 c -2.562,-1.437 -4.375,-2.818 -5.437,-4.141 -1.063,-1.323 -1.594,-2.823 -1.594,-4.5 0,-2.166 0.771,-3.937 2.313,-5.312 1.541,-1.375 3.494,-2.063 5.859,-2.063 1.312,0 2.549,0.188 3.711,0.563 1.161,0.375 1.862,0.562 2.101,0.562 m 61.954,6.375 c 0,1.792 -0.198,3.55 -0.594,5.274 -0.396,1.724 -1.136,3.505 -2.219,5.344 -1.083,1.838 -2.464,3.427 -4.141,4.765 -1.677,1.339 -3.906,2.448 -6.687,3.328 -2.781,0.881 -5.932,1.321 -9.453,1.321 H 211 v -1.141 c 2.27,-0.167 3.718,-0.57 4.343,-1.211 0.625,-0.641 0.938,-2.039 0.938,-4.195 v -26.625 c 0,-2.198 -0.292,-3.597 -0.875,-4.196 -0.584,-0.598 -2.052,-1.002 -4.406,-1.21 v -1.141 h 16.187 c 3.646,0 6.898,0.409 9.758,1.226 2.859,0.818 5.159,1.878 6.898,3.18 1.74,1.302 3.18,2.844 4.321,4.625 1.14,1.781 1.919,3.531 2.336,5.25 0.416,1.719 0.625,3.521 0.625,5.406 m -6.532,0.407 c 0,-1.709 -0.169,-3.352 -0.508,-4.93 -0.338,-1.578 -0.947,-3.175 -1.828,-4.789 -0.88,-1.615 -2.02,-2.997 -3.422,-4.149 -1.401,-1.151 -3.242,-2.096 -5.523,-2.835 -2.281,-0.74 -4.88,-1.11 -7.797,-1.11 -1.239,0 -2.07,0.159 -2.492,0.477 -0.422,0.317 -0.633,0.935 -0.633,1.851 v 30.375 c 0,0.959 0.222,1.607 0.664,1.946 0.443,0.338 1.263,0.507 2.461,0.507 12.719,0 19.078,-5.781 19.078,-17.343 m 26.563,-2.094 c -0.604,0 -1.347,-0.349 -2.227,-1.047 -0.88,-0.698 -1.461,-1.047 -1.742,-1.047 -0.792,0 -1.687,0.578 -2.687,1.735 -1,1.156 -1.5,2.213 -1.5,3.171 v 13.5 c 0,1.73 0.338,2.894 1.015,3.493 0.677,0.599 2.037,0.934 4.078,1.007 v 0.907 h -14.406 v -0.907 c 1.927,-0.354 3.12,-0.752 3.578,-1.195 0.458,-0.443 0.688,-1.424 0.688,-2.945 v -15 c 0,-1.313 -0.151,-2.24 -0.453,-2.781 -0.303,-0.542 -0.834,-0.813 -1.594,-0.813 -0.636,0 -1.334,0.078 -2.094,0.234 v -0.953 c 3.198,-1.041 6.156,-2.12 8.875,-3.234 l 0.313,0.109 v 5.532 c 1.479,-2.125 2.737,-3.597 3.773,-4.415 1.036,-0.817 2.174,-1.226 3.414,-1.226 1.042,0 1.854,0.279 2.438,0.836 0.583,0.557 0.875,1.336 0.875,2.336 0,0.844 -0.211,1.505 -0.633,1.984 -0.422,0.479 -0.992,0.719 -1.711,0.719 m 31.734,18.594 v 0.843 c -3.114,0.875 -5.854,1.818 -8.219,2.829 l -0.234,-0.125 v -5.094 c -0.125,0.114 -0.477,0.471 -1.055,1.07 -0.578,0.599 -0.987,1.013 -1.226,1.242 -0.24,0.229 -0.651,0.584 -1.235,1.063 -0.583,0.479 -1.093,0.823 -1.531,1.031 -0.437,0.208 -0.997,0.404 -1.68,0.586 -0.682,0.182 -1.362,0.273 -2.039,0.273 -2.198,0 -3.958,-0.718 -5.281,-2.156 -1.323,-1.437 -1.984,-3.349 -1.984,-5.734 v -15.047 c 0,-1.386 -0.258,-2.349 -0.774,-2.891 -0.515,-0.541 -1.497,-0.849 -2.945,-0.922 v -0.843 h 8.766 v 19.468 c 0,1.23 0.419,2.292 1.257,3.188 0.839,0.896 1.842,1.344 3.008,1.344 0.438,0 0.956,-0.06 1.555,-0.18 0.599,-0.12 1.289,-0.349 2.07,-0.688 0.782,-0.338 1.443,-0.875 1.985,-1.609 0.541,-0.734 0.812,-1.638 0.812,-2.711 v -14.031 c 0,-1.469 -0.271,-2.443 -0.812,-2.922 -0.542,-0.479 -1.756,-0.76 -3.641,-0.844 v -1.015 h 9.484 v 20.484 c 0,1.385 0.222,2.297 0.664,2.734 0.443,0.438 1.362,0.657 2.758,0.657 h 0.297 m 0.985,-20.641 v -1.016 c 2.875,-0.833 5.671,-1.77 8.39,-2.812 l 0.422,0.125 v 4.609 c 2.479,-1.927 4.32,-3.198 5.523,-3.812 1.204,-0.615 2.467,-0.922 3.79,-0.922 3.156,0 5.276,1.713 6.359,5.141 3.114,-3.428 6.37,-5.141 9.766,-5.141 4.645,0 6.968,3.588 6.968,10.766 v 12.281 c 0,2.229 0.86,3.406 2.578,3.531 l 1.563,0.109 v 0.907 h -13.141 v -0.907 c 1.761,-0.198 2.86,-0.533 3.297,-1.007 0.438,-0.474 0.656,-1.571 0.656,-3.289 v -12.594 c 0,-2.469 -0.32,-4.18 -0.961,-5.133 -0.64,-0.953 -1.82,-1.43 -3.539,-1.43 -2.635,0 -4.812,1.214 -6.531,3.641 v 15.047 c 0,1.864 0.289,3.117 0.867,3.758 0.578,0.64 1.727,0.976 3.446,1.007 v 0.907 H 319.89 v -0.907 c 1.719,-0.114 2.828,-0.429 3.328,-0.945 0.5,-0.516 0.75,-1.612 0.75,-3.289 v -12.953 c 0,-4.177 -1.317,-6.266 -3.953,-6.266 -1.125,0 -2.377,0.279 -3.758,0.836 -1.38,0.558 -2.487,1.456 -3.32,2.696 v 16.828 c 0,1.156 0.279,1.942 0.836,2.359 0.557,0.417 1.638,0.661 3.242,0.734 v 0.907 h -13.328 v -0.907 c 1.688,-0.031 2.81,-0.325 3.367,-0.882 0.558,-0.558 0.836,-1.654 0.836,-3.289 v -15.094 c 0,-1.438 -0.148,-2.435 -0.445,-2.992 -0.297,-0.558 -0.847,-0.836 -1.649,-0.836 -0.604,0 -1.244,0.078 -1.921,0.234"
     id="path4036" />
  <path
     class="InstrumentName"
     d="m 82.765,357.657 c 0,-1.886 -0.659,-3.557 -1.976,-5.016 -1.318,-1.458 -2.917,-2.708 -4.797,-3.75 -1.88,-1.041 -3.75,-2.112 -5.61,-3.211 -1.859,-1.099 -3.448,-2.508 -4.765,-4.226 -1.318,-1.719 -1.977,-3.719 -1.977,-6 0,-3.042 1.029,-5.513 3.086,-7.414 2.057,-1.901 4.487,-2.852 7.289,-2.852 1.677,0 3.495,0.341 5.453,1.023 1.959,0.683 3.141,1.024 3.547,1.024 1.042,0 1.682,-0.682 1.922,-2.047 h 1.25 l 1.328,12.781 h -1.5 c -0.958,-3.521 -2.427,-6.119 -4.406,-7.797 -1.979,-1.677 -4.172,-2.515 -6.578,-2.515 -1.844,0 -3.344,0.518 -4.5,1.554 -1.156,1.037 -1.735,2.378 -1.735,4.024 0,1.594 0.68,3.112 2.039,4.555 1.36,1.442 3.618,3.044 6.774,4.804 3.958,2.115 6.818,4.203 8.578,6.266 1.76,2.062 2.641,4.333 2.641,6.812 0,3.084 -1.18,5.675 -3.539,7.774 -2.36,2.099 -5.258,3.148 -8.696,3.148 -2,0 -4.031,-0.341 -6.093,-1.023 -2.063,-0.682 -3.334,-1.024 -3.813,-1.024 -0.437,0 -0.815,0.191 -1.133,0.571 -0.317,0.38 -0.497,0.851 -0.539,1.414 H 63.687 L 61.89,353.813 h 1.391 c 1.479,3.635 3.198,6.315 5.156,8.039 1.958,1.724 4.276,2.586 6.953,2.586 2.198,0 3.977,-0.63 5.336,-1.891 1.359,-1.26 2.039,-2.89 2.039,-4.89 m 9.922,-15.844 v -1.016 c 2.969,-0.864 5.729,-1.744 8.281,-2.64 l 0.422,0.109 v 4.688 c 2.042,-1.896 3.654,-3.17 4.836,-3.821 1.182,-0.651 2.471,-0.976 3.867,-0.976 2.198,0 3.927,0.784 5.188,2.351 1.26,1.568 1.89,3.769 1.89,6.602 v 13.766 c 0,1.489 0.24,2.484 0.719,2.984 0.479,0.5 1.458,0.828 2.938,0.984 v 0.907 h -12.469 v -0.907 c 1.521,-0.114 2.531,-0.513 3.031,-1.195 0.5,-0.682 0.75,-1.966 0.75,-3.852 v -12.578 c 0,-3.885 -1.463,-5.828 -4.39,-5.828 -1,0 -1.92,0.232 -2.758,0.695 -0.839,0.464 -1.977,1.373 -3.414,2.727 v 16.906 c 0,1.084 0.278,1.847 0.836,2.289 0.557,0.443 1.596,0.722 3.117,0.836 v 0.907 H 92.812 v -0.907 c 1.521,-0.114 2.521,-0.463 3,-1.047 0.479,-0.583 0.719,-1.734 0.719,-3.453 v -14.922 c 0,-1.489 -0.159,-2.502 -0.477,-3.039 -0.317,-0.536 -0.898,-0.804 -1.742,-0.804 -0.76,0 -1.302,0.078 -1.625,0.234 m 29.906,18.016 c 0,-0.719 0.081,-1.386 0.242,-2 0.162,-0.615 0.443,-1.193 0.844,-1.735 0.401,-0.541 0.781,-1.031 1.141,-1.468 0.359,-0.438 0.898,-0.883 1.617,-1.336 0.719,-0.454 1.318,-0.831 1.797,-1.133 0.479,-0.302 1.208,-0.662 2.187,-1.078 0.98,-0.417 1.73,-0.735 2.25,-0.953 0.521,-0.219 1.342,-0.547 2.461,-0.985 1.12,-0.437 1.94,-0.755 2.461,-0.953 v -3.641 c 0,-3.302 -1.521,-4.953 -4.562,-4.953 -1.198,0 -2.216,0.289 -3.055,0.867 -0.838,0.579 -1.258,1.269 -1.258,2.071 0,0.323 0.05,0.763 0.149,1.32 0.099,0.557 0.148,0.919 0.148,1.086 0,0.677 -0.271,1.266 -0.812,1.766 -0.542,0.5 -1.172,0.75 -1.891,0.75 -0.677,0 -1.276,-0.261 -1.797,-0.782 -0.521,-0.52 -0.781,-1.119 -0.781,-1.796 0,-1.886 0.969,-3.477 2.906,-4.774 1.938,-1.297 4.328,-1.945 7.172,-1.945 3.281,0 5.542,0.786 6.781,2.359 1.24,1.573 1.86,3.969 1.86,7.188 v 11.64 c 0,1.313 0.13,2.219 0.39,2.719 0.261,0.5 0.729,0.75 1.407,0.75 0.843,0 1.723,-0.38 2.64,-1.141 v 1.579 c -1.042,1.197 -1.95,2.013 -2.726,2.445 -0.776,0.432 -1.664,0.648 -2.664,0.648 -1.24,0 -2.152,-0.349 -2.735,-1.047 -0.583,-0.697 -0.953,-1.843 -1.109,-3.437 -3.438,2.99 -6.36,4.484 -8.766,4.484 -1.833,0 -3.341,-0.609 -4.523,-1.828 -1.183,-1.219 -1.774,-2.781 -1.774,-4.687 m 15,-1.547 v -8.656 c -3.604,1.312 -6.125,2.583 -7.562,3.812 -1.438,1.229 -2.156,2.724 -2.156,4.484 0,1.625 0.398,2.836 1.195,3.633 0.797,0.797 1.659,1.196 2.586,1.196 1.354,0 2.812,-0.459 4.375,-1.375 0.646,-0.355 1.067,-0.732 1.265,-1.133 0.198,-0.401 0.297,-1.055 0.297,-1.961 m 27.563,-14.25 c -0.604,0 -1.347,-0.349 -2.227,-1.047 -0.88,-0.698 -1.461,-1.047 -1.742,-1.047 -0.792,0 -1.687,0.578 -2.687,1.734 -1,1.157 -1.5,2.214 -1.5,3.172 v 13.5 c 0,1.729 0.338,2.894 1.015,3.492 0.677,0.599 2.037,0.935 4.078,1.008 v 0.907 h -14.406 v -0.907 c 1.927,-0.354 3.12,-0.752 3.578,-1.195 0.458,-0.443 0.688,-1.424 0.688,-2.945 v -15 c 0,-1.313 -0.151,-2.24 -0.453,-2.782 -0.303,-0.541 -0.834,-0.812 -1.594,-0.812 -0.636,0 -1.334,0.078 -2.094,0.234 v -0.953 c 3.198,-1.041 6.156,-2.12 8.875,-3.234 l 0.313,0.109 v 5.531 c 1.479,-2.125 2.737,-3.596 3.773,-4.414 1.036,-0.817 2.174,-1.226 3.414,-1.226 1.042,0 1.854,0.278 2.438,0.836 0.583,0.557 0.875,1.336 0.875,2.336 0,0.843 -0.211,1.505 -0.633,1.984 -0.422,0.479 -0.992,0.719 -1.711,0.719 m 8.75,5.094 c 0.083,2.52 0.424,4.692 1.023,6.515 0.599,1.823 1.38,3.182 2.344,4.078 0.964,0.896 1.935,1.534 2.914,1.914 0.979,0.381 2.005,0.571 3.078,0.571 1.927,0 3.599,-0.479 5.016,-1.438 1.416,-0.958 2.849,-2.578 4.297,-4.859 l 0.953,0.422 c -1.24,3.239 -2.959,5.718 -5.156,7.437 -2.198,1.719 -4.719,2.578 -7.563,2.578 -3.437,0 -6.167,-1.208 -8.187,-3.625 -2.021,-2.416 -3.032,-5.687 -3.032,-9.812 0,-4.438 1.17,-8.005 3.508,-10.703 2.339,-2.698 5.352,-4.047 9.039,-4.047 3.031,0 5.388,0.909 7.07,2.726 1.683,1.818 2.743,4.565 3.18,8.243 h -18.484 m 0.125,-1.797 h 12.234 c -0.396,-2.594 -1.013,-4.391 -1.851,-5.391 -0.839,-1 -2.18,-1.5 -4.024,-1.5 -3.594,0 -5.713,2.297 -6.359,6.891 m 77.094,-1.61 c 0,1.792 -0.198,3.55 -0.594,5.274 -0.396,1.724 -1.136,3.505 -2.219,5.343 -1.083,1.839 -2.464,3.428 -4.141,4.766 -1.677,1.339 -3.906,2.448 -6.687,3.328 -2.781,0.88 -5.932,1.321 -9.453,1.321 H 211 v -1.141 c 2.27,-0.167 3.718,-0.57 4.343,-1.211 0.625,-0.641 0.938,-2.039 0.938,-4.195 v -26.625 c 0,-2.198 -0.292,-3.597 -0.875,-4.196 -0.584,-0.599 -2.052,-1.002 -4.406,-1.211 v -1.14 h 16.187 c 3.646,0 6.898,0.409 9.758,1.226 2.859,0.818 5.159,1.878 6.898,3.18 1.74,1.302 3.18,2.844 4.321,4.625 1.14,1.781 1.919,3.531 2.336,5.25 0.416,1.719 0.625,3.521 0.625,5.406 m -6.532,0.407 c 0,-1.709 -0.169,-3.352 -0.508,-4.93 -0.338,-1.578 -0.947,-3.175 -1.828,-4.789 -0.88,-1.615 -2.02,-2.998 -3.422,-4.149 -1.401,-1.151 -3.242,-2.096 -5.523,-2.836 -2.281,-0.739 -4.88,-1.109 -7.797,-1.109 -1.239,0 -2.07,0.159 -2.492,0.477 -0.422,0.317 -0.633,0.935 -0.633,1.851 v 30.375 c 0,0.959 0.222,1.607 0.664,1.945 0.443,0.339 1.263,0.508 2.461,0.508 12.719,0 19.078,-5.781 19.078,-17.343 m 26.563,-2.094 c -0.604,0 -1.347,-0.349 -2.227,-1.047 -0.88,-0.698 -1.461,-1.047 -1.742,-1.047 -0.792,0 -1.687,0.578 -2.687,1.734 -1,1.157 -1.5,2.214 -1.5,3.172 v 13.5 c 0,1.729 0.338,2.894 1.015,3.492 0.677,0.599 2.037,0.935 4.078,1.008 v 0.907 h -14.406 v -0.907 c 1.927,-0.354 3.12,-0.752 3.578,-1.195 0.458,-0.443 0.688,-1.424 0.688,-2.945 v -15 c 0,-1.313 -0.151,-2.24 -0.453,-2.782 -0.303,-0.541 -0.834,-0.812 -1.594,-0.812 -0.636,0 -1.334,0.078 -2.094,0.234 v -0.953 c 3.198,-1.041 6.156,-2.12 8.875,-3.234 l 0.313,0.109 v 5.531 c 1.479,-2.125 2.737,-3.596 3.773,-4.414 1.036,-0.817 2.174,-1.226 3.414,-1.226 1.042,0 1.854,0.278 2.438,0.836 0.583,0.557 0.875,1.336 0.875,2.336 0,0.843 -0.211,1.505 -0.633,1.984 -0.422,0.479 -0.992,0.719 -1.711,0.719 m 31.734,18.594 v 0.843 c -3.114,0.875 -5.854,1.818 -8.219,2.828 l -0.234,-0.125 v -5.093 c -0.125,0.114 -0.477,0.471 -1.055,1.07 -0.578,0.599 -0.987,1.013 -1.226,1.242 -0.24,0.229 -0.651,0.584 -1.235,1.063 -0.583,0.479 -1.093,0.823 -1.531,1.031 -0.437,0.208 -0.997,0.404 -1.68,0.586 -0.682,0.182 -1.362,0.273 -2.039,0.273 -2.198,0 -3.958,-0.718 -5.281,-2.156 -1.323,-1.437 -1.984,-3.349 -1.984,-5.734 v -15.047 c 0,-1.386 -0.258,-2.349 -0.774,-2.891 -0.515,-0.541 -1.497,-0.849 -2.945,-0.922 v -0.843 h 8.766 v 19.468 c 0,1.229 0.419,2.292 1.257,3.188 0.839,0.896 1.842,1.344 3.008,1.344 0.438,0 0.956,-0.06 1.555,-0.18 0.599,-0.12 1.289,-0.349 2.07,-0.688 0.782,-0.338 1.443,-0.875 1.985,-1.609 0.541,-0.734 0.812,-1.638 0.812,-2.711 v -14.031 c 0,-1.469 -0.271,-2.443 -0.812,-2.922 -0.542,-0.479 -1.756,-0.76 -3.641,-0.844 v -1.015 h 9.484 v 20.484 c 0,1.385 0.222,2.297 0.664,2.734 0.443,0.438 1.362,0.657 2.758,0.657 h 0.297 m 0.985,-20.641 v -1.016 c 2.875,-0.833 5.671,-1.771 8.39,-2.812 l 0.422,0.125 v 4.609 c 2.479,-1.927 4.32,-3.198 5.523,-3.812 1.204,-0.615 2.467,-0.922 3.79,-0.922 3.156,0 5.276,1.713 6.359,5.14 3.114,-3.427 6.37,-5.14 9.766,-5.14 4.645,0 6.968,3.588 6.968,10.765 v 12.282 c 0,2.229 0.86,3.406 2.578,3.531 l 1.563,0.109 v 0.907 h -13.141 v -0.907 c 1.761,-0.198 2.86,-0.534 3.297,-1.008 0.438,-0.473 0.656,-1.57 0.656,-3.289 v -12.593 c 0,-2.469 -0.32,-4.18 -0.961,-5.133 -0.64,-0.953 -1.82,-1.43 -3.539,-1.43 -2.635,0 -4.812,1.214 -6.531,3.641 v 15.047 c 0,1.864 0.289,3.117 0.867,3.757 0.578,0.641 1.727,0.977 3.446,1.008 v 0.907 H 319.89 v -0.907 c 1.719,-0.114 2.828,-0.429 3.328,-0.945 0.5,-0.516 0.75,-1.612 0.75,-3.289 v -12.953 c 0,-4.177 -1.317,-6.266 -3.953,-6.266 -1.125,0 -2.377,0.279 -3.758,0.836 -1.38,0.557 -2.487,1.456 -3.32,2.695 v 16.829 c 0,1.156 0.279,1.942 0.836,2.359 0.557,0.417 1.638,0.661 3.242,0.734 v 0.907 h -13.328 v -0.907 c 1.688,-0.031 2.81,-0.325 3.367,-0.883 0.558,-0.557 0.836,-1.653 0.836,-3.289 v -15.093 c 0,-1.438 -0.148,-2.435 -0.445,-2.993 -0.297,-0.557 -0.847,-0.835 -1.649,-0.835 -0.604,0 -1.244,0.078 -1.921,0.234"
     id="path4038" />
  <path
     class="InstrumentName"
     d="m 14.218,110.172 h -3.25 c -3.354,0 -5.601,0.453 -6.742,1.36 -1.141,0.906 -2.07,2.974 -2.789,6.203 H 0 l 0.359,-10.203 h 33.828 l 0.359,10.203 h -1.437 c -0.677,-3.271 -1.586,-5.349 -2.727,-6.235 -1.14,-0.885 -3.409,-1.328 -6.804,-1.328 h -3.25 v 30.563 c 0,2.187 0.341,3.601 1.023,4.242 0.682,0.641 2.263,1.018 4.742,1.133 v 1.14 H 8.578 v -1.14 c 2.479,-0.156 4.039,-0.565 4.679,-1.227 0.641,-0.661 0.961,-2.263 0.961,-4.804 v -29.907 m 38.938,15.36 c -0.604,0 -1.347,-0.349 -2.227,-1.047 -0.88,-0.698 -1.461,-1.047 -1.742,-1.047 -0.792,0 -1.687,0.578 -2.687,1.734 -1,1.157 -1.5,2.214 -1.5,3.172 v 13.5 c 0,1.729 0.338,2.893 1.015,3.492 0.677,0.599 2.037,0.935 4.078,1.008 v 0.906 H 35.687 v -0.906 c 1.927,-0.354 3.12,-0.752 3.578,-1.195 0.458,-0.443 0.688,-1.425 0.688,-2.945 v -15 c 0,-1.313 -0.151,-2.24 -0.453,-2.782 -0.303,-0.541 -0.834,-0.812 -1.594,-0.812 -0.636,0 -1.334,0.078 -2.094,0.234 v -0.953 c 3.198,-1.042 6.156,-2.12 8.875,-3.234 L 45,119.766 v 5.531 c 1.479,-2.125 2.737,-3.596 3.773,-4.414 1.036,-0.817 2.174,-1.226 3.414,-1.226 1.042,0 1.854,0.278 2.438,0.836 0.583,0.557 0.875,1.336 0.875,2.336 0,0.843 -0.211,1.505 -0.633,1.984 -0.422,0.479 -0.992,0.719 -1.711,0.719 m 31.734,18.593 v 0.844 c -3.114,0.875 -5.854,1.818 -8.219,2.828 l -0.234,-0.125 v -5.093 c -0.125,0.114 -0.477,0.471 -1.055,1.07 -0.578,0.599 -0.987,1.013 -1.226,1.242 -0.24,0.229 -0.651,0.583 -1.235,1.063 -0.583,0.479 -1.093,0.822 -1.531,1.031 -0.437,0.208 -0.997,0.403 -1.68,0.586 -0.682,0.182 -1.362,0.273 -2.039,0.273 -2.198,0 -3.958,-0.719 -5.281,-2.156 -1.323,-1.438 -1.984,-3.349 -1.984,-5.734 v -15.047 c 0,-1.386 -0.258,-2.349 -0.774,-2.891 -0.515,-0.542 -1.497,-0.849 -2.945,-0.922 v -0.844 h 8.766 v 19.469 c 0,1.229 0.419,2.292 1.257,3.188 0.839,0.896 1.842,1.343 3.008,1.343 0.438,0 0.956,-0.059 1.555,-0.179 0.599,-0.12 1.289,-0.349 2.07,-0.688 0.782,-0.338 1.443,-0.875 1.985,-1.609 0.541,-0.735 0.812,-1.638 0.812,-2.711 v -14.031 c 0,-1.469 -0.271,-2.443 -0.812,-2.922 -0.542,-0.479 -1.756,-0.761 -3.641,-0.844 v -1.016 h 9.484 v 20.485 c 0,1.385 0.222,2.297 0.664,2.734 0.443,0.438 1.362,0.656 2.758,0.656 h 0.297 m 0.985,-20.64 v -1.016 c 2.875,-0.833 5.671,-1.771 8.39,-2.812 l 0.422,0.125 v 4.609 c 2.479,-1.927 4.32,-3.198 5.523,-3.812 1.204,-0.615 2.467,-0.922 3.79,-0.922 3.156,0 5.276,1.713 6.359,5.14 3.114,-3.427 6.37,-5.14 9.766,-5.14 4.645,0 6.968,3.588 6.968,10.765 v 12.282 c 0,2.229 0.86,3.406 2.578,3.531 l 1.563,0.109 v 0.906 h -13.141 v -0.906 c 1.761,-0.198 2.86,-0.534 3.297,-1.008 0.438,-0.474 0.656,-1.57 0.656,-3.289 v -12.593 c 0,-2.469 -0.32,-4.18 -0.961,-5.133 -0.64,-0.953 -1.82,-1.43 -3.539,-1.43 -2.635,0 -4.812,1.214 -6.531,3.641 v 15.047 c 0,1.864 0.289,3.117 0.867,3.757 0.578,0.641 1.727,0.977 3.446,1.008 v 0.906 H 101.89 v -0.906 c 1.719,-0.114 2.828,-0.43 3.328,-0.945 0.5,-0.516 0.75,-1.612 0.75,-3.289 v -12.953 c 0,-4.177 -1.317,-6.266 -3.953,-6.266 -1.125,0 -2.377,0.279 -3.758,0.836 -1.38,0.557 -2.487,1.456 -3.32,2.695 v 16.828 c 0,1.157 0.279,1.943 0.836,2.36 0.557,0.416 1.638,0.661 3.242,0.734 v 0.906 H 85.687 v -0.906 c 1.688,-0.031 2.81,-0.325 3.367,-0.883 0.558,-0.557 0.836,-1.653 0.836,-3.289 v -15.093 c 0,-1.438 -0.148,-2.435 -0.445,-2.993 -0.297,-0.557 -0.847,-0.836 -1.649,-0.836 -0.604,0 -1.244,0.079 -1.921,0.235 m 47.062,0.187 v -0.953 c 2.521,-0.76 5.401,-1.781 8.641,-3.062 l 0.359,0.109 v 4.625 c 2.552,-3.156 5.432,-4.734 8.641,-4.734 2.916,0 5.315,1.203 7.195,3.609 1.88,2.406 2.82,5.479 2.82,9.219 0,4.344 -1.211,7.989 -3.633,10.937 -2.421,2.948 -5.408,4.422 -8.96,4.422 -1.282,0 -2.352,-0.172 -3.211,-0.515 -0.86,-0.344 -1.81,-0.99 -2.852,-1.938 v 9.344 c 0,1.864 0.32,3.062 0.961,3.594 0.641,0.531 2.081,0.817 4.32,0.859 v 1.078 h -14.531 v -1.016 c 1.76,-0.156 2.901,-0.494 3.422,-1.015 0.521,-0.521 0.781,-1.563 0.781,-3.125 v -28.078 c 0,-1.396 -0.159,-2.315 -0.476,-2.758 -0.318,-0.443 -0.977,-0.664 -1.977,-0.664 -0.646,0 -1.146,0.021 -1.5,0.062 m 9,3.563 v 14.828 c 0,0.885 0.69,1.771 2.07,2.656 1.381,0.886 2.769,1.328 4.164,1.328 2.157,0 3.907,-1.034 5.25,-3.101 1.344,-2.068 2.016,-4.774 2.016,-8.117 0,-3.5 -0.672,-6.305 -2.016,-8.415 -1.343,-2.109 -3.135,-3.164 -5.375,-3.164 -1.395,0 -2.763,0.443 -4.101,1.329 -1.339,0.885 -2.008,1.77 -2.008,2.656 m 25.969,3.39 c 0.083,2.521 0.424,4.693 1.023,6.516 0.599,1.823 1.38,3.182 2.344,4.078 0.964,0.896 1.935,1.534 2.914,1.914 0.979,0.38 2.005,0.571 3.078,0.571 1.927,0 3.599,-0.48 5.016,-1.438 1.416,-0.958 2.849,-2.578 4.297,-4.859 l 0.953,0.422 c -1.24,3.239 -2.959,5.718 -5.156,7.437 -2.198,1.719 -4.719,2.578 -7.563,2.578 -3.437,0 -6.167,-1.208 -8.187,-3.625 -2.021,-2.416 -3.032,-5.687 -3.032,-9.812 0,-4.438 1.17,-8.006 3.508,-10.703 2.339,-2.698 5.352,-4.047 9.039,-4.047 3.031,0 5.388,0.909 7.07,2.726 1.683,1.818 2.743,4.565 3.18,8.242 h -18.484 m 0.125,-1.796 h 12.234 c -0.396,-2.594 -1.013,-4.391 -1.851,-5.391 -0.839,-1 -2.18,-1.5 -4.024,-1.5 -3.594,0 -5.713,2.297 -6.359,6.891 m 36.609,-8.579 v 1.797 h -6.062 v 17.157 c 0,1.885 0.239,3.257 0.718,4.117 0.48,0.859 1.276,1.289 2.391,1.289 1.24,0 2.443,-0.698 3.609,-2.094 l 0.782,0.656 c -1.927,3.115 -4.328,4.672 -7.203,4.672 -3.563,0 -5.344,-2.552 -5.344,-7.656 v -18.141 h -3.172 c -0.167,-0.114 -0.25,-0.244 -0.25,-0.39 0,-0.188 0.06,-0.339 0.18,-0.453 0.119,-0.115 0.351,-0.274 0.695,-0.477 0.344,-0.203 0.755,-0.497 1.234,-0.883 0.479,-0.385 1.138,-1.086 1.977,-2.101 0.838,-1.016 1.758,-2.232 2.758,-3.649 0.635,-0.937 1.036,-1.505 1.203,-1.703 0.281,0 0.422,0.266 0.422,0.797 v 7.062 h 6.062 m 23.172,20.454 v -26.625 c 0,-2.209 -0.331,-3.623 -0.992,-4.243 -0.662,-0.619 -2.268,-1.007 -4.82,-1.164 v -1.14 h 17.812 v 1.14 c -2.521,0.115 -4.13,0.492 -4.828,1.133 -0.698,0.641 -1.047,2.065 -1.047,4.274 v 26.625 c 0,2.208 0.359,3.64 1.078,4.296 0.719,0.657 2.318,1.026 4.797,1.11 v 1.14 H 222 v -1.14 c 2.52,-0.084 4.119,-0.446 4.796,-1.086 0.677,-0.641 1.016,-2.081 1.016,-4.32 m 20,0 v -26.625 c 0,-2.209 -0.331,-3.623 -0.992,-4.243 -0.662,-0.619 -2.268,-1.007 -4.82,-1.164 v -1.14 h 17.812 v 1.14 c -2.521,0.115 -4.13,0.492 -4.828,1.133 -0.698,0.641 -1.047,2.065 -1.047,4.274 v 26.625 c 0,2.208 0.359,3.64 1.078,4.296 0.719,0.657 2.318,1.026 4.797,1.11 v 1.14 H 242 v -1.14 c 2.52,-0.084 4.119,-0.446 4.796,-1.086 0.677,-0.641 1.016,-2.081 1.016,-4.32 m 21.797,6.671 c 0,0 -0.156,0.037 -0.469,0.11 -0.364,0.083 -0.745,0.125 -1.14,0.125 -1.084,0 -1.946,-0.271 -2.586,-0.813 -0.641,-0.541 -0.961,-1.291 -0.961,-2.25 0,-1 0.33,-1.82 0.992,-2.461 0.661,-0.64 1.513,-0.961 2.555,-0.961 1.354,0 2.492,0.511 3.414,1.532 0.921,1.021 1.382,2.291 1.382,3.812 0,1.802 -0.619,3.542 -1.859,5.219 -1.24,1.677 -2.859,3.016 -4.859,4.016 l -0.547,-1.141 c 3.281,-2.24 4.922,-4.359 4.922,-6.359 0,-0.553 -0.282,-0.829 -0.844,-0.829 m 28.203,-6.671 v -26.625 c 0,-2.209 -0.331,-3.623 -0.992,-4.243 -0.662,-0.619 -2.268,-1.007 -4.82,-1.164 v -1.14 h 17.812 v 1.14 c -2.521,0.115 -4.13,0.492 -4.828,1.133 -0.698,0.641 -1.047,2.065 -1.047,4.274 v 26.625 c 0,2.208 0.359,3.64 1.078,4.296 0.719,0.657 2.318,1.026 4.797,1.11 v 1.14 H 292 v -1.14 c 2.52,-0.084 4.119,-0.446 4.796,-1.086 0.677,-0.641 1.016,-2.081 1.016,-4.32 m 20,0 v -26.625 c 0,-2.209 -0.331,-3.623 -0.992,-4.243 -0.662,-0.619 -2.268,-1.007 -4.82,-1.164 v -1.14 h 17.812 v 1.14 c -2.521,0.115 -4.13,0.492 -4.828,1.133 -0.698,0.641 -1.047,2.065 -1.047,4.274 v 26.625 c 0,2.208 0.359,3.64 1.078,4.296 0.719,0.657 2.318,1.026 4.797,1.11 v 1.14 H 312 v -1.14 c 2.52,-0.084 4.119,-0.446 4.796,-1.086 0.677,-0.641 1.016,-2.081 1.016,-4.32 m 20,0 v -26.625 c 0,-2.209 -0.331,-3.623 -0.992,-4.243 -0.662,-0.619 -2.268,-1.007 -4.82,-1.164 v -1.14 h 17.812 v 1.14 c -2.521,0.115 -4.13,0.492 -4.828,1.133 -0.698,0.641 -1.047,2.065 -1.047,4.274 v 26.625 c 0,2.208 0.359,3.64 1.078,4.296 0.719,0.657 2.318,1.026 4.797,1.11 v 1.14 H 332 v -1.14 c 2.52,-0.084 4.119,-0.446 4.796,-1.086 0.677,-0.641 1.016,-2.081 1.016,-4.32"
     id="path4040" />
  <path
     class="SlurSegment"
     stroke="#000000"
     stroke-width="1.75"
     stroke-linecap="round"
     stroke-linejoin="round"
     fill-rule="evenodd"
     d="M 794.807,61.797 C 843.976,34.37 920.821,55.972 948.501,105 919.741,59.823 842.893,38.221 794.807,61.797"
     id="path4042" />
  <path
     class="SlurSegment"
     stroke="#000000"
     stroke-width="1.75"
     stroke-linecap="round"
     stroke-linejoin="round"
     fill-rule="evenodd"
     d="m 2251.331,206.25 c 54.71,50.705 225.21,58.205 284.16,12.5 -59.13,49.701 -229.63,42.201 -284.16,-12.5"
     id="path4044" />
  <polyline
     class="BarLine"
     stroke="#000000"
     stroke-width="4"
     stroke-linejoin="bevel"
     points="519.732,690.733 519.732,792.733"
     id="polyline4046"
     transform="translate(-142.639,-232.982)" />
  <polyline
     class="BarLine"
     stroke="#000000"
     stroke-width="4"
     stroke-linejoin="bevel"
     points="1322.58,690.733 1322.58,792.733"
     id="polyline4048"
     transform="translate(-142.639,-232.982)" />
  <polyline
     class="BarLine"
     stroke="#000000"
     stroke-width="4"
     stroke-linejoin="bevel"
     points="1830.85,690.733 1830.85,792.733"
     id="polyline4050"
     transform="translate(-142.639,-232.982)" />
  <polyline
     class="BarLine"
     stroke="#000000"
     stroke-width="4"
     stroke-linejoin="bevel"
     points="2350.51,690.733 2350.51,792.733"
     id="polyline4052"
     transform="translate(-142.639,-232.982)" />
  <polyline
     class="BarLine"
     stroke="#000000"
     stroke-width="4"
     stroke-linejoin="bevel"
     points="2916.27,690.733 2916.27,792.733"
     id="polyline4054"
     transform="translate(-142.639,-232.982)" />
  <polyline
     class="BarLine"
     stroke="#000000"
     stroke-width="4"
     stroke-linejoin="bevel"
     points="519.732,528.233 519.732,741.733"
     id="polyline4056"
     transform="translate(-142.639,-232.982)" />
  <polyline
     class="BarLine"
     stroke="#000000"
     stroke-width="4"
     stroke-linejoin="bevel"
     points="1322.58,528.233 1322.58,630.233"
     id="polyline4058"
     transform="translate(-142.639,-232.982)" />
  <polyline
     class="BarLine"
     stroke="#000000"
     stroke-width="4"
     stroke-linejoin="bevel"
     points="1830.85,528.233 1830.85,630.233"
     id="polyline4060"
     transform="translate(-142.639,-232.982)" />
  <polyline
     class="BarLine"
     stroke="#000000"
     stroke-width="4"
     stroke-linejoin="bevel"
     points="2350.51,528.233 2350.51,630.233"
     id="polyline4062"
     transform="translate(-142.639,-232.982)" />
  <polyline
     class="BarLine"
     stroke="#000000"
     stroke-width="4"
     stroke-linejoin="bevel"
     points="2916.27,528.233 2916.27,630.233"
     id="polyline4064"
     transform="translate(-142.639,-232.982)" />
  <polyline
     class="BarLine"
     stroke="#000000"
     stroke-width="4"
     stroke-linejoin="bevel"
     points="519.732,315.732 519.732,579.233"
     id="polyline4066"
     transform="translate(-142.639,-232.982)" />
  <polyline
     class="BarLine"
     stroke="#000000"
     stroke-width="4"
     stroke-linejoin="bevel"
     points="1322.58,315.732 1322.58,417.732"
     id="polyline4068"
     transform="translate(-142.639,-232.982)" />
  <polyline
     class="BarLine"
     stroke="#000000"
     stroke-width="4"
     stroke-linejoin="bevel"
     points="1830.85,315.732 1830.85,417.732"
     id="polyline4070"
     transform="translate(-142.639,-232.982)" />
  <polyline
     class="BarLine"
     stroke="#000000"
     stroke-width="4"
     stroke-linejoin="bevel"
     points="2350.51,315.732 2350.51,417.732"
     id="polyline4072"
     transform="translate(-142.639,-232.982)" />
  <polyline
     class="BarLine"
     stroke="#000000"
     stroke-width="4"
     stroke-linejoin="bevel"
     points="2916.27,315.732 2916.27,417.732"
     id="polyline4074"
     transform="translate(-142.639,-232.982)" />
  <polyline
     class="LedgerLine"
     stroke="#000000"
     stroke-width="4"
     stroke-linecap="square"
     stroke-linejoin="bevel"
     points="2096.13,441.732 2144.04,441.732"
     id="polyline4076"
     transform="translate(-142.639,-232.982)" />
  <polyline
     class="LedgerLine"
     stroke="#000000"
     stroke-width="4"
     stroke-linecap="square"
     stroke-linejoin="bevel"
     points="2780.47,441.732 2828.39,441.732"
     id="polyline4078"
     transform="translate(-142.639,-232.982)" />
  <polyline
     class="Stem"
     stroke="#0000ff"
     stroke-width="3.25"
     stroke-linecap="round"
     stroke-linejoin="bevel"
     points="1076.3,746.428 1076.3,807.358"
     id="polyline4080"
     transform="translate(-142.639,-232.982)" />
  <polyline
     class="Stem"
     stroke="#0000ff"
     stroke-width="3.25"
     stroke-linecap="round"
     stroke-linejoin="bevel"
     points="1199.26,746.428 1199.26,807.358"
     id="polyline4082"
     transform="translate(-142.639,-232.982)" />
  <polyline
     class="Stem"
     stroke="#0000ff"
     stroke-width="3.25"
     stroke-linecap="round"
     stroke-linejoin="bevel"
     points="1352.11,746.428 1352.11,807.358"
     id="polyline4084"
     transform="translate(-142.639,-232.982)" />
  <polyline
     class="Stem"
     stroke="#0000ff"
     stroke-width="3.25"
     stroke-linecap="round"
     stroke-linejoin="bevel"
     points="1591.29,746.428 1591.29,807.358"
     id="polyline4086"
     transform="translate(-142.639,-232.982)" />
  <polyline
     class="Stem"
     stroke="#0000ff"
     stroke-width="3.25"
     stroke-linecap="round"
     stroke-linejoin="bevel"
     points="1710.88,746.428 1710.88,807.358"
     id="polyline4088"
     transform="translate(-142.639,-232.982)" />
  <polyline
     class="Stem"
     stroke="#0000ff"
     stroke-width="3.25"
     stroke-linecap="round"
     stroke-linejoin="bevel"
     points="1860.37,746.428 1860.37,807.358"
     id="polyline4090"
     transform="translate(-142.639,-232.982)" />
  <polyline
     class="Stem"
     stroke="#000000"
     stroke-width="3.25"
     stroke-linecap="round"
     stroke-linejoin="bevel"
     points="2105.25,746.428 2105.25,807.358"
     id="polyline4092"
     transform="translate(-142.639,-232.982)" />
  <polyline
     class="Stem"
     stroke="#000000"
     stroke-width="3.25"
     stroke-linecap="round"
     stroke-linejoin="bevel"
     points="2227.69,746.428 2227.69,807.358"
     id="polyline4094"
     transform="translate(-142.639,-232.982)" />
  <polyline
     class="Stem"
     stroke="#000000"
     stroke-width="3.25"
     stroke-linecap="round"
     stroke-linejoin="bevel"
     points="2379.14,746.428 2379.14,807.358"
     id="polyline4096"
     transform="translate(-142.639,-232.982)" />
  <polyline
     class="Stem"
     stroke="#000000"
     stroke-width="3.25"
     stroke-linecap="round"
     stroke-linejoin="bevel"
     points="2663.3,746.428 2663.3,807.358"
     id="polyline4098"
     transform="translate(-142.639,-232.982)" />
  <polyline
     class="Stem"
     stroke="#000000"
     stroke-width="3.25"
     stroke-linecap="round"
     stroke-linejoin="bevel"
     points="922.614,346.428 922.614,416.732"
     id="polyline4100"
     transform="translate(-142.639,-232.982)" />
  <polyline
     class="Stem"
     stroke="#000000"
     stroke-width="3.25"
     stroke-linecap="round"
     stroke-linejoin="bevel"
     points="999.459,371.428 999.459,441.732"
     id="polyline4102"
     transform="translate(-142.639,-232.982)" />
  <polyline
     class="Stem"
     stroke="#000000"
     stroke-width="3.25"
     stroke-linecap="round"
     stroke-linejoin="bevel"
     points="1105.97,374.537 1105.97,297.982"
     id="polyline4104"
     transform="translate(-142.639,-232.982)" />
  <polyline
     class="Stem"
     stroke="#000000"
     stroke-width="3.25"
     stroke-linecap="round"
     stroke-linejoin="bevel"
     points="1228.92,399.537 1228.92,316.732"
     id="polyline4106"
     transform="translate(-142.639,-232.982)" />
  <polyline
     class="Stem"
     stroke="#000000"
     stroke-width="3.25"
     stroke-linecap="round"
     stroke-linejoin="bevel"
     points="1382.68,387.892 1382.68,307.357"
     id="polyline4108"
     transform="translate(-142.639,-232.982)" />
  <polyline
     class="Stem"
     stroke="#000000"
     stroke-width="3.25"
     stroke-linecap="round"
     stroke-linejoin="bevel"
     points="1620.95,424.537 1620.95,341.732"
     id="polyline4110"
     transform="translate(-142.639,-232.982)" />
  <polyline
     class="Stem"
     stroke="#000000"
     stroke-width="3.25"
     stroke-linecap="round"
     stroke-linejoin="bevel"
     points="1740.55,412.037 1740.55,329.232"
     id="polyline4112"
     transform="translate(-142.639,-232.982)" />
  <polyline
     class="Stem"
     stroke="#000000"
     stroke-width="3.25"
     stroke-linecap="round"
     stroke-linejoin="bevel"
     points="1890.94,400.392 1890.94,316.732"
     id="polyline4114"
     transform="translate(-142.639,-232.982)" />
  <polyline
     class="Stem"
     stroke="#000000"
     stroke-width="3.25"
     stroke-linecap="round"
     stroke-linejoin="bevel"
     points="2134.92,437.037 2134.92,354.232"
     id="polyline4116"
     transform="translate(-142.639,-232.982)" />
  <polyline
     class="Stem"
     stroke="#000000"
     stroke-width="3.25"
     stroke-linecap="round"
     stroke-linejoin="bevel"
     points="2257.36,424.537 2257.36,341.732"
     id="polyline4118"
     transform="translate(-142.639,-232.982)" />
  <polyline
     class="Stem"
     stroke="#000000"
     stroke-width="3.25"
     stroke-linecap="round"
     stroke-linejoin="bevel"
     points="2408.8,412.037 2408.8,329.232"
     id="polyline4120"
     transform="translate(-142.639,-232.982)" />
  <polyline
     class="Stem"
     stroke="#000000"
     stroke-width="3.25"
     stroke-linecap="round"
     stroke-linejoin="bevel"
     points="2535.1,387.037 2535.1,316.732"
     id="polyline4122"
     transform="translate(-142.639,-232.982)" />
  <polyline
     class="Stem"
     stroke="#000000"
     stroke-width="3.25"
     stroke-linecap="round"
     stroke-linejoin="bevel"
     points="2614.03,412.037 2614.03,341.732"
     id="polyline4124"
     transform="translate(-142.639,-232.982)" />
  <polyline
     class="Stem"
     stroke="#000000"
     stroke-width="3.25"
     stroke-linecap="round"
     stroke-linejoin="bevel"
     points="2692.97,424.537 2692.97,341.732"
     id="polyline4126"
     transform="translate(-142.639,-232.982)" />
  <polyline
     class="Stem"
     stroke="#000000"
     stroke-width="3.25"
     stroke-linecap="round"
     stroke-linejoin="bevel"
     points="2819.26,437.037 2819.26,354.232"
     id="polyline4128"
     transform="translate(-142.639,-232.982)" />
  <path
     class="Note"
     fill="#0000ff"
     d="m 954.011,494.985 c 3.12,0 5.76,0.813 7.92,2.438 2.01,1.76 3.02,3.973 3.02,6.64 0,4.49 -2.31,8.688 -6.93,12.594 -4.68,3.906 -9.7,5.859 -15.04,5.859 -3.13,0 -5.76,-0.812 -7.91,-2.437 -2.02,-1.761 -3.03,-3.974 -3.03,-6.641 0,-4.489 2.34,-8.687 7.03,-12.594 4.56,-3.906 9.54,-5.859 14.94,-5.859"
     id="path4130" />
  <path
     class="Note"
     fill="#0000ff"
     d="m 1076.961,494.985 c 3.12,0 5.77,0.813 7.92,2.438 2.01,1.76 3.02,3.973 3.02,6.64 0,4.49 -2.31,8.688 -6.92,12.594 -4.69,3.906 -9.71,5.859 -15.05,5.859 -3.13,0 -5.76,-0.812 -7.91,-2.437 -2.02,-1.761 -3.03,-3.974 -3.03,-6.641 0,-4.489 2.34,-8.687 7.03,-12.594 4.56,-3.906 9.54,-5.859 14.94,-5.859"
     id="path4132" />
  <path
     class="Note"
     fill="#0000ff"
     d="m 1229.811,494.985 c 3.13,0 5.77,0.813 7.93,2.438 2.01,1.76 3.01,3.973 3.01,6.64 0,4.49 -2.31,8.688 -6.92,12.594 -4.69,3.906 -9.7,5.859 -15.05,5.859 -3.12,0 -5.76,-0.812 -7.9,-2.437 -2.02,-1.761 -3.03,-3.974 -3.03,-6.641 0,-4.489 2.34,-8.687 7.03,-12.594 4.56,-3.906 9.54,-5.859 14.93,-5.859"
     id="path4134" />
  <path
     class="Note"
     fill="#0000ff"
     d="m 1468.991,494.985 c 3.13,0 5.77,0.813 7.93,2.438 2.01,1.76 3.01,3.973 3.01,6.64 0,4.49 -2.31,8.688 -6.92,12.594 -4.69,3.906 -9.7,5.859 -15.05,5.859 -3.12,0 -5.76,-0.812 -7.9,-2.437 -2.02,-1.761 -3.03,-3.974 -3.03,-6.641 0,-4.489 2.34,-8.687 7.03,-12.594 4.56,-3.906 9.54,-5.859 14.93,-5.859"
     id="path4136" />
  <path
     class="Note"
     fill="#0000ff"
     d="m 1588.581,494.985 c 3.13,0 5.77,0.813 7.93,2.438 2.01,1.76 3.01,3.973 3.01,6.64 0,4.49 -2.3,8.688 -6.92,12.594 -4.69,3.906 -9.7,5.859 -15.05,5.859 -3.12,0 -5.76,-0.812 -7.9,-2.437 -2.02,-1.761 -3.03,-3.974 -3.03,-6.641 0,-4.489 2.34,-8.687 7.03,-12.594 4.56,-3.906 9.54,-5.859 14.93,-5.859"
     id="path4138" />
  <path
     class="Note"
     fill="#0000ff"
     d="m 1738.081,494.985 c 3.12,0 5.76,0.813 7.92,2.438 2.01,1.76 3.02,3.973 3.02,6.64 0,4.49 -2.31,8.688 -6.93,12.594 -4.68,3.906 -9.7,5.859 -15.04,5.859 -3.13,0 -5.76,-0.812 -7.91,-2.437 -2.02,-1.761 -3.03,-3.974 -3.03,-6.641 0,-4.489 2.34,-8.687 7.03,-12.594 4.56,-3.906 9.54,-5.859 14.94,-5.859"
     id="path4140" />
  <path
     class="Note"
     d="m 1982.961,494.985 c 3.12,0 5.76,0.813 7.92,2.438 2.01,1.76 3.02,3.973 3.02,6.64 0,4.49 -2.31,8.688 -6.93,12.594 -4.68,3.906 -9.7,5.859 -15.04,5.859 -3.13,0 -5.76,-0.812 -7.91,-2.437 -2.02,-1.761 -3.03,-3.974 -3.03,-6.641 0,-4.489 2.34,-8.687 7.03,-12.594 4.56,-3.906 9.54,-5.859 14.94,-5.859"
     id="path4142" />
  <path
     class="Note"
     d="m 2105.401,494.985 c 3.12,0 5.76,0.813 7.92,2.438 2.01,1.76 3.02,3.973 3.02,6.64 0,4.49 -2.31,8.688 -6.93,12.594 -4.68,3.906 -9.7,5.859 -15.04,5.859 -3.13,0 -5.76,-0.812 -7.91,-2.437 -2.02,-1.761 -3.03,-3.974 -3.03,-6.641 0,-4.489 2.34,-8.687 7.03,-12.594 4.56,-3.906 9.54,-5.859 14.94,-5.859"
     id="path4144" />
  <path
     class="Note"
     d="m 2256.841,494.985 c 3.12,0 5.76,0.813 7.92,2.438 2.01,1.76 3.02,3.973 3.02,6.64 0,4.49 -2.31,8.688 -6.93,12.594 -4.68,3.906 -9.7,5.859 -15.04,5.859 -3.13,0 -5.76,-0.812 -7.91,-2.437 -2.02,-1.761 -3.03,-3.974 -3.03,-6.641 0,-4.489 2.34,-8.687 7.03,-12.594 4.56,-3.906 9.54,-5.859 14.94,-5.859"
     id="path4146" />
  <path
     class="Note"
     d="m 2541.001,494.985 c 3.13,0 5.77,0.813 7.93,2.438 2.01,1.76 3.01,3.973 3.01,6.64 0,4.49 -2.3,8.688 -6.92,12.594 -4.69,3.906 -9.7,5.859 -15.05,5.859 -3.12,0 -5.76,-0.812 -7.9,-2.437 -2.02,-1.761 -3.03,-3.974 -3.03,-6.641 0,-4.489 2.34,-8.687 7.03,-12.594 4.56,-3.906 9.54,-5.859 14.93,-5.859"
     id="path4148" />
  <path
     class="Note"
     d="m 800.319,94.985 c 3.125,0 5.765,0.812 7.922,2.437 2.01,1.761 3.015,3.974 3.015,6.641 0,4.489 -2.307,8.687 -6.922,12.594 -4.687,3.906 -9.703,5.859 -15.046,5.859 -3.125,0 -5.761,-0.812 -7.907,-2.437 -2.02,-1.761 -3.031,-3.974 -3.031,-6.641 0,-4.49 2.344,-8.688 7.031,-12.594 4.563,-3.906 9.542,-5.859 14.938,-5.859"
     id="path4150" />
  <path
     class="Note"
     d="m 877.161,119.985 c 3.13,0 5.77,0.812 7.92,2.437 2.02,1.761 3.02,3.974 3.02,6.641 0,4.49 -2.31,8.687 -6.92,12.594 -4.69,3.906 -9.7,5.859 -15.05,5.859 -3.12,0 -5.76,-0.812 -7.9,-2.437 -2.026,-1.761 -3.036,-3.974 -3.036,-6.641 0,-4.49 2.346,-8.688 7.036,-12.594 4.56,-3.906 9.54,-5.859 14.93,-5.859"
     id="path4152" />
  <path
     class="Note"
     d="m 954.011,132.485 c 3.12,0 5.76,0.812 7.92,2.437 2.01,1.761 3.02,3.974 3.02,6.641 0,4.49 -2.31,8.687 -6.93,12.594 -4.68,3.906 -9.7,5.859 -15.04,5.859 -3.13,0 -5.76,-0.812 -7.91,-2.437 -2.02,-1.761 -3.03,-3.974 -3.03,-6.641 0,-4.49 2.34,-8.688 7.03,-12.594 4.56,-3.906 9.54,-5.859 14.94,-5.859"
     id="path4154" />
  <path
     class="Note"
     d="m 1076.961,157.485 c 3.12,0 5.77,0.812 7.92,2.437 2.01,1.761 3.02,3.974 3.02,6.641 0,4.49 -2.31,8.687 -6.92,12.594 -4.69,3.906 -9.71,5.859 -15.05,5.859 -3.13,0 -5.76,-0.812 -7.91,-2.437 -2.02,-1.761 -3.03,-3.974 -3.03,-6.641 0,-4.49 2.34,-8.688 7.03,-12.594 4.56,-3.906 9.54,-5.859 14.94,-5.859"
     id="path4156" />
  <path
     class="Note"
     d="m 1238.491,152.204 c 0,-1.105 -0.42,-2.047 -1.27,-2.829 -0.85,-0.843 -1.83,-1.265 -2.93,-1.265 -1.95,0 -5.89,1.953 -11.82,5.859 -6.12,3.969 -9.87,6.802 -11.23,8.5 -0.72,0.906 -1.08,1.849 -1.08,2.828 0,1.104 0.43,2.047 1.28,2.828 0.78,0.844 1.76,1.266 2.92,1.266 1.89,0 5.86,-1.953 11.93,-5.859 5.99,-3.907 9.69,-6.74 11.12,-8.5 0.72,-0.844 1.08,-1.787 1.08,-2.828 m -5.17,-7.219 c 5.59,0 8.39,2.406 8.39,7.219 0,2.343 -0.68,5.078 -2.05,8.203 -1.36,3.062 -3.19,5.406 -5.47,7.031 -5.01,3.385 -11.29,5.078 -18.84,5.078 -5.61,0 -8.41,-2.406 -8.41,-7.219 0,-2.146 0.69,-4.849 2.05,-8.109 1.3,-3.125 3.12,-5.5 5.47,-7.125 5.02,-3.385 11.31,-5.078 18.86,-5.078"
     id="path4158" />
  <path
     class="Note"
     d="m 1468.991,182.485 c 3.13,0 5.77,0.812 7.93,2.437 2.01,1.761 3.01,3.974 3.01,6.641 0,4.49 -2.31,8.687 -6.92,12.594 -4.69,3.906 -9.7,5.859 -15.05,5.859 -3.12,0 -5.76,-0.812 -7.9,-2.437 -2.02,-1.761 -3.03,-3.974 -3.03,-6.641 0,-4.49 2.34,-8.688 7.03,-12.594 4.56,-3.906 9.54,-5.859 14.93,-5.859"
     id="path4160" />
  <path
     class="Note"
     d="m 1588.581,169.985 c 3.13,0 5.77,0.812 7.93,2.437 2.01,1.761 3.01,3.974 3.01,6.641 0,4.49 -2.3,8.687 -6.92,12.594 -4.69,3.906 -9.7,5.859 -15.05,5.859 -3.12,0 -5.76,-0.812 -7.9,-2.437 -2.02,-1.761 -3.03,-3.974 -3.03,-6.641 0,-4.49 2.34,-8.688 7.03,-12.594 4.56,-3.906 9.54,-5.859 14.93,-5.859"
     id="path4162" />
  <path
     class="Note"
     d="m 1746.751,164.704 c 0,-1.105 -0.42,-2.047 -1.26,-2.829 -0.86,-0.843 -1.84,-1.265 -2.94,-1.265 -1.95,0 -5.89,1.953 -11.81,5.859 -6.13,3.969 -9.87,6.802 -11.24,8.5 -0.72,0.906 -1.07,1.849 -1.07,2.828 0,1.104 0.42,2.047 1.28,2.828 0.78,0.844 1.75,1.266 2.92,1.266 1.88,0 5.86,-1.953 11.92,-5.859 5.99,-3.907 9.7,-6.74 11.13,-8.5 0.71,-0.844 1.07,-1.787 1.07,-2.828 m -5.17,-7.219 c 5.6,0 8.39,2.406 8.39,7.219 0,2.343 -0.68,5.078 -2.04,8.203 -1.37,3.062 -3.19,5.406 -5.47,7.031 -5.01,3.385 -11.3,5.078 -18.85,5.078 -5.6,0 -8.4,-2.406 -8.4,-7.219 0,-2.146 0.68,-4.849 2.04,-8.109 1.31,-3.125 3.13,-5.5 5.47,-7.125 5.02,-3.385 11.31,-5.078 18.86,-5.078"
     id="path4164" />
  <path
     class="Note"
     d="m 1982.961,194.985 c 3.12,0 5.76,0.812 7.92,2.437 2.01,1.761 3.02,3.974 3.02,6.641 0,4.49 -2.31,8.687 -6.93,12.594 -4.68,3.906 -9.7,5.859 -15.04,5.859 -3.13,0 -5.76,-0.812 -7.91,-2.437 -2.02,-1.761 -3.03,-3.974 -3.03,-6.641 0,-4.49 2.34,-8.688 7.03,-12.594 4.56,-3.906 9.54,-5.859 14.94,-5.859"
     id="path4166" />
  <path
     class="Note"
     d="m 2105.401,182.485 c 3.12,0 5.76,0.812 7.92,2.437 2.01,1.761 3.02,3.974 3.02,6.641 0,4.49 -2.31,8.687 -6.93,12.594 -4.68,3.906 -9.7,5.859 -15.04,5.859 -3.13,0 -5.76,-0.812 -7.91,-2.437 -2.02,-1.761 -3.03,-3.974 -3.03,-6.641 0,-4.49 2.34,-8.688 7.03,-12.594 4.56,-3.906 9.54,-5.859 14.94,-5.859"
     id="path4168" />
  <path
     class="Note"
     d="m 2256.841,169.985 c 3.12,0 5.76,0.812 7.92,2.437 2.01,1.761 3.02,3.974 3.02,6.641 0,4.49 -2.31,8.687 -6.93,12.594 -4.68,3.906 -9.7,5.859 -15.04,5.859 -3.13,0 -5.76,-0.812 -7.91,-2.437 -2.02,-1.761 -3.03,-3.974 -3.03,-6.641 0,-4.49 2.34,-8.688 7.03,-12.594 4.56,-3.906 9.54,-5.859 14.94,-5.859"
     id="path4170" />
  <path
     class="Note"
     d="m 2383.131,144.985 c 3.13,0 5.77,0.812 7.93,2.437 2.01,1.761 3.01,3.974 3.01,6.641 0,4.49 -2.3,8.687 -6.92,12.594 -4.69,3.906 -9.7,5.859 -15.05,5.859 -3.12,0 -5.76,-0.812 -7.9,-2.437 -2.02,-1.761 -3.03,-3.974 -3.03,-6.641 0,-4.49 2.34,-8.688 7.03,-12.594 4.56,-3.906 9.54,-5.859 14.93,-5.859"
     id="path4172" />
  <path
     class="Note"
     d="m 2462.071,169.985 c 3.12,0 5.77,0.812 7.92,2.437 2.01,1.761 3.02,3.974 3.02,6.641 0,4.49 -2.31,8.687 -6.92,12.594 -4.69,3.906 -9.71,5.859 -15.05,5.859 -3.13,0 -5.76,-0.812 -7.91,-2.437 -2.02,-1.761 -3.03,-3.974 -3.03,-6.641 0,-4.49 2.34,-8.688 7.03,-12.594 4.56,-3.906 9.54,-5.859 14.94,-5.859"
     id="path4174" />
  <path
     class="Note"
     d="m 2541.001,182.485 c 3.13,0 5.77,0.812 7.93,2.437 2.01,1.761 3.01,3.974 3.01,6.641 0,4.49 -2.3,8.687 -6.92,12.594 -4.69,3.906 -9.7,5.859 -15.05,5.859 -3.12,0 -5.76,-0.812 -7.9,-2.437 -2.02,-1.761 -3.03,-3.974 -3.03,-6.641 0,-4.49 2.34,-8.688 7.03,-12.594 4.56,-3.906 9.54,-5.859 14.93,-5.859"
     id="path4176" />
  <path
     class="Note"
     d="m 2667.301,194.985 c 3.13,0 5.77,0.812 7.92,2.437 2.01,1.761 3.02,3.974 3.02,6.641 0,4.49 -2.31,8.687 -6.92,12.594 -4.69,3.906 -9.71,5.859 -15.05,5.859 -3.13,0 -5.76,-0.812 -7.91,-2.437 -2.02,-1.761 -3.03,-3.974 -3.03,-6.641 0,-4.49 2.35,-8.688 7.03,-12.594 4.57,-3.906 9.55,-5.859 14.94,-5.859"
     id="path4178" />
  <path
     class="Clef"
     d="m 448.125,533.751 h -9.188 c -0.719,0 -1.078,-0.323 -1.078,-0.969 v -48.063 c 0,-0.645 0.359,-0.968 1.078,-0.968 h 9.188 c 0.645,0 0.968,0.323 0.968,0.968 v 48.063 c 0,0.646 -0.323,0.969 -0.968,0.969 m -22.079,0 h -9.281 c -0.646,0 -0.969,-0.323 -0.969,-0.969 v -48.063 c 0,-0.645 0.323,-0.968 0.969,-0.968 h 9.281 c 0.719,0 1.079,0.323 1.079,0.968 v 48.063 c 0,0.646 -0.36,0.969 -1.079,0.969"
     id="path4180" />
  <path
     class="Clef"
     d="m 448.125,371.251 h -9.188 c -0.719,0 -1.078,-0.323 -1.078,-0.969 v -48.063 c 0,-0.646 0.359,-0.968 1.078,-0.968 h 9.188 c 0.645,0 0.968,0.322 0.968,0.968 v 48.063 c 0,0.646 -0.323,0.969 -0.968,0.969 m -22.079,0 h -9.281 c -0.646,0 -0.969,-0.323 -0.969,-0.969 v -48.063 c 0,-0.646 0.323,-0.968 0.969,-0.968 h 9.281 c 0.719,0 1.079,0.322 1.079,0.968 v 48.063 c 0,0.646 -0.36,0.969 -1.079,0.969"
     id="path4182" />
  <path
     class="Clef"
     d="m 435.812,133.157 c 0,0 0.198,0 0.594,0 0.26,-0.063 0.484,-0.094 0.672,-0.094 7.291,0 13.281,2.573 17.968,7.719 4.688,5.073 7.032,10.994 7.032,17.765 0,8.407 -3.479,15.245 -10.438,20.516 -1.823,1.437 -4.203,2.609 -7.14,3.516 0.333,4.229 0.5,7.645 0.5,10.25 0,0.52 -0.068,2.411 -0.204,5.671 -0.26,6.053 -2.343,11.292 -6.25,15.719 -3.77,4.365 -8.458,6.547 -14.062,6.547 -5.271,0 -9.76,-1.854 -13.469,-5.562 -3.719,-3.782 -5.578,-8.339 -5.578,-13.672 0,-2.802 1.078,-5.183 3.234,-7.141 2.209,-1.948 4.776,-2.922 7.704,-2.922 2.604,0 4.786,1.011 6.546,3.031 1.823,1.886 2.735,4.23 2.735,7.032 0,2.531 -0.912,4.708 -2.735,6.531 -1.822,1.823 -4.005,2.734 -6.546,2.734 -1.042,0 -2.047,-0.192 -3.016,-0.578 2.865,4.229 6.672,6.344 11.422,6.344 4.489,0 8.166,-1.823 11.031,-5.469 3,-3.771 4.63,-8.166 4.891,-13.187 0.125,-3.125 0.187,-4.912 0.187,-5.36 0,-3.646 -0.13,-6.64 -0.39,-8.984 -3.25,0.521 -6.146,0.781 -8.688,0.781 -9.052,0 -16.766,-3.583 -23.141,-10.75 -6.25,-7.229 -9.375,-15.823 -9.375,-25.781 0,-2.083 0.193,-4.198 0.579,-6.344 0.395,-1.76 0.885,-3.682 1.468,-5.765 0.323,-1.178 1.203,-3.068 2.641,-5.672 0.521,-0.782 1.107,-1.758 1.758,-2.93 0.651,-1.172 1.107,-1.951 1.367,-2.336 0.646,-1.302 1.911,-3.062 3.797,-5.281 0.521,-0.584 1.06,-1.232 1.617,-1.945 0.557,-0.714 1.031,-1.3 1.422,-1.758 0.391,-0.459 0.682,-0.818 0.875,-1.078 0.193,-0.261 1.659,-1.985 4.398,-5.172 0.646,-0.657 1.279,-1.357 1.899,-2.102 0.62,-0.745 1.125,-1.331 1.515,-1.758 0.391,-0.427 0.685,-0.734 0.883,-0.922 -2.344,-7.75 -3.812,-13.937 -4.406,-18.562 -0.448,-3.708 -0.672,-8.787 -0.672,-15.234 0,-5.667 1.302,-10.974 3.906,-15.922 2.532,-5.136 6.078,-9.334 10.641,-12.594 0.26,-0.198 0.583,-0.297 0.969,-0.297 0.458,0 0.786,0.099 0.984,0.297 3.51,4.229 6.537,9.729 9.078,16.5 2.604,6.771 3.906,12.927 3.906,18.469 0,6.25 -1.494,12.109 -4.484,17.578 -3.385,5.791 -7.75,11.781 -13.094,17.969 1.365,4.291 3.188,11.026 5.469,20.203 m 8.297,45.422 c 3.385,-1.24 6.026,-3.355 7.922,-6.344 2.083,-2.865 3.125,-6.089 3.125,-9.672 0,-4.625 -1.563,-8.729 -4.688,-12.313 -3.198,-3.708 -7.271,-5.791 -12.218,-6.25 2.802,13.74 4.755,25.266 5.859,34.579 m -37.781,-22.563 c 0,6.448 2.604,12.115 7.812,17 5.334,4.75 11.323,7.125 17.969,7.125 2.729,0 5.396,-0.198 8,-0.594 -1.042,-9.896 -3.094,-21.744 -6.156,-35.547 -3.709,0.396 -6.667,1.698 -8.875,3.907 -2.157,2.281 -3.235,4.854 -3.235,7.718 0,4.948 2.641,8.954 7.922,12.016 0.448,0.458 0.672,0.948 0.672,1.469 0,0.521 -0.224,1.005 -0.672,1.453 -0.396,0.458 -0.885,0.687 -1.469,0.687 -0.062,0 -0.354,-0.062 -0.875,-0.187 -3.718,-2.021 -6.583,-4.625 -8.593,-7.813 -1.896,-3.395 -2.844,-6.817 -2.844,-10.265 0,-4.49 1.401,-8.557 4.203,-12.203 2.927,-3.646 6.734,-5.99 11.422,-7.032 -1.823,-7.291 -3.318,-12.989 -4.484,-17.093 -1.042,1.177 -2.295,2.593 -3.758,4.25 -1.464,1.656 -2.326,2.651 -2.586,2.984 -2.344,3.052 -4.136,5.427 -5.375,7.125 -2.219,3.063 -3.849,5.698 -4.891,7.906 -1.104,2.479 -2.078,5.183 -2.922,8.11 -0.843,2.802 -1.265,5.797 -1.265,8.984 m 32.609,-99.312 c -4.885,2.406 -8.724,5.854 -11.516,10.343 -2.864,4.625 -4.296,9.604 -4.296,14.938 0,4.687 1.171,11.005 3.515,18.953 4.688,-5.667 8.203,-10.906 10.547,-15.719 2.469,-5.083 3.703,-10.39 3.703,-15.922 0,-4.166 -0.651,-8.364 -1.953,-12.593"
     id="path4184" />
  <path
     class="KeySig"
     d="m 517.211,92.141 v 7.719 c 0,2.739 0.13,4.922 0.39,6.547 2.146,-1.823 3.677,-3.188 4.594,-4.094 1.042,-1.042 2.083,-2.477 3.125,-4.305 1.042,-1.828 1.562,-3.653 1.562,-5.476 0,-1.823 -0.39,-3.386 -1.171,-4.688 -0.782,-1.302 -1.823,-1.953 -3.125,-1.953 -1.563,0 -2.865,0.589 -3.907,1.766 -0.979,1.302 -1.468,2.797 -1.468,4.484 m -4.11,17.875 -1.265,-59.469 c 0.916,-0.521 1.83,-0.781 2.742,-0.781 0.911,0 1.82,0.26 2.726,0.781 l -0.781,34.469 c 2.667,-2.281 5.729,-3.422 9.188,-3.422 2.531,0 4.643,1.042 6.336,3.125 1.692,2.083 2.539,4.464 2.539,7.141 0,1.687 -0.553,3.479 -1.657,5.375 -1.041,1.75 -2.146,3.114 -3.312,4.094 -0.656,0.52 -2.318,1.822 -4.985,3.906 -0.781,0.583 -1.708,1.265 -2.781,2.047 -1.073,0.781 -1.739,1.27 -2,1.468 -0.458,0.261 -0.885,0.782 -1.281,1.563 -0.448,0.656 -0.969,1.208 -1.563,1.656 -0.447,0.396 -0.997,0.594 -1.648,0.594 -0.651,0 -1.174,-0.229 -1.57,-0.688 -0.459,-0.458 -0.688,-1.078 -0.688,-1.859"
     id="path4186" />
  <path
     class="KeySig"
     d="m 492.211,129.641 v 7.719 c 0,2.739 0.13,4.922 0.39,6.547 2.146,-1.823 3.677,-3.188 4.594,-4.094 1.042,-1.042 2.083,-2.477 3.125,-4.305 1.042,-1.828 1.562,-3.653 1.562,-5.476 0,-1.823 -0.39,-3.386 -1.171,-4.688 -0.782,-1.302 -1.823,-1.953 -3.125,-1.953 -1.563,0 -2.865,0.589 -3.907,1.766 -0.979,1.302 -1.468,2.797 -1.468,4.484 m -4.11,17.875 -1.265,-59.469 c 0.916,-0.521 1.83,-0.781 2.742,-0.781 0.911,0 1.82,0.26 2.726,0.781 l -0.781,34.469 c 2.667,-2.281 5.729,-3.422 9.188,-3.422 2.531,0 4.643,1.042 6.335,3.125 1.693,2.084 2.54,4.464 2.54,7.141 0,1.687 -0.553,3.479 -1.657,5.375 -1.041,1.75 -2.146,3.114 -3.312,4.094 -0.656,0.52 -2.318,1.822 -4.985,3.906 -0.781,0.583 -1.708,1.265 -2.781,2.047 -1.073,0.781 -1.739,1.271 -2,1.468 -0.458,0.261 -0.885,0.782 -1.281,1.563 -0.448,0.656 -0.969,1.208 -1.563,1.656 -0.447,0.396 -0.997,0.594 -1.648,0.594 -0.651,0 -1.174,-0.229 -1.57,-0.688 -0.459,-0.458 -0.688,-1.078 -0.688,-1.859"
     id="path4188" />
  <path
     class="TimeSig"
     d="m 595.726,506.016 c -1.687,0 -3.38,-0.651 -5.078,-1.953 -1.625,-1.239 -2.437,-3.062 -2.437,-5.469 0,-2.02 0.682,-3.812 2.046,-5.375 1.303,-1.562 3.027,-2.343 5.172,-2.343 0.719,0 1.177,0.031 1.375,0.093 -3,-3.833 -7.005,-5.817 -12.015,-5.953 h -1.266 v 47.469 c 0.198,0 0.427,0.031 0.688,0.094 0,0 0.192,0 0.578,0 3.906,0 7.229,-1.433 9.968,-4.297 2.792,-2.802 4.745,-6.417 5.86,-10.844 0.187,-0.646 0.578,-0.969 1.172,-0.969 0.843,0 1.265,0.391 1.265,1.172 0,0.459 -0.198,1.339 -0.593,2.641 -0.386,1.229 -1.068,2.661 -2.047,4.297 -0.782,1.562 -1.886,3.219 -3.313,4.969 -1.302,1.5 -3.062,2.802 -5.281,3.906 -2.083,1.041 -4.427,1.562 -7.031,1.562 -0.261,0 -0.453,-0.031 -0.578,-0.093 0,0 -0.23,0 -0.688,0 v 7.812 c 0,0.656 -0.359,0.984 -1.078,0.984 h -1.656 c -0.657,0 -0.985,-0.328 -0.985,-0.984 v -8.109 c -6.833,-1.105 -11.875,-4 -15.125,-8.688 -3.26,-4.812 -4.89,-10.542 -4.89,-17.187 0,-6.834 1.63,-12.563 4.89,-17.188 3.052,-4.687 8.094,-7.583 15.125,-8.687 v -8.11 c 0,-0.656 0.328,-0.984 0.985,-0.984 h 1.656 c 0.656,0 1.016,0.328 1.078,0.984 v 7.813 h 1.266 c 5.343,0 9.578,1.823 12.703,5.469 3.25,3.645 4.875,7.26 4.875,10.843 0,2.084 -0.651,3.776 -1.953,5.078 -1.167,1.365 -2.729,2.047 -4.688,2.047 m -15.922,25.782 v -46.094 c -2.666,0.979 -4.39,2.864 -5.172,5.656 -0.781,2.865 -1.171,6.969 -1.171,12.313 v 5.078 5.078 c 0,5.344 0.39,9.448 1.171,12.312 0.782,2.792 2.506,4.677 5.172,5.657"
     id="path4190" />
  <path
     class="TimeSig"
     d="m 595.726,343.516 c -1.687,0 -3.38,-0.651 -5.078,-1.953 -1.625,-1.24 -2.437,-3.062 -2.437,-5.469 0,-2.021 0.682,-3.812 2.046,-5.375 1.303,-1.562 3.027,-2.343 5.172,-2.343 0.719,0 1.177,0.031 1.375,0.093 -3,-3.833 -7.005,-5.817 -12.015,-5.953 h -1.266 v 47.469 c 0.198,0 0.427,0.031 0.688,0.094 0,0 0.192,0 0.578,0 3.906,0 7.229,-1.433 9.968,-4.297 2.792,-2.802 4.745,-6.417 5.86,-10.844 0.187,-0.646 0.578,-0.969 1.172,-0.969 0.843,0 1.265,0.391 1.265,1.172 0,0.459 -0.198,1.339 -0.593,2.641 -0.386,1.229 -1.068,2.661 -2.047,4.297 -0.782,1.562 -1.886,3.218 -3.313,4.968 -1.302,1.5 -3.062,2.803 -5.281,3.907 -2.083,1.041 -4.427,1.562 -7.031,1.562 -0.261,0 -0.453,-0.031 -0.578,-0.094 0,0 -0.23,0 -0.688,0 v 7.813 c 0,0.656 -0.359,0.984 -1.078,0.984 h -1.656 c -0.657,0 -0.985,-0.328 -0.985,-0.984 v -8.109 c -6.833,-1.105 -11.875,-4 -15.125,-8.688 -3.26,-4.812 -4.89,-10.542 -4.89,-17.187 0,-6.834 1.63,-12.563 4.89,-17.188 3.052,-4.687 8.094,-7.583 15.125,-8.687 v -8.11 c 0,-0.656 0.328,-0.984 0.985,-0.984 h 1.656 c 0.656,0 1.016,0.328 1.078,0.984 v 7.813 h 1.266 c 5.343,0 9.578,1.823 12.703,5.468 3.25,3.646 4.875,7.261 4.875,10.844 0,2.084 -0.651,3.776 -1.953,5.078 -1.167,1.365 -2.729,2.047 -4.688,2.047 m -15.922,25.781 v -46.093 c -2.666,0.979 -4.39,2.864 -5.172,5.656 -0.781,2.865 -1.171,6.969 -1.171,12.312 v 5.079 5.078 c 0,5.343 0.39,9.448 1.171,12.312 0.782,2.792 2.506,4.677 5.172,5.656"
     id="path4192" />
  <path
     class="TimeSig"
     d="m 595.726,131.016 c -1.687,0 -3.38,-0.651 -5.078,-1.953 -1.625,-1.24 -2.437,-3.063 -2.437,-5.469 0,-2.021 0.682,-3.812 2.046,-5.375 1.303,-1.562 3.027,-2.344 5.172,-2.344 0.719,0 1.177,0.032 1.375,0.094 -3,-3.833 -7.005,-5.818 -12.015,-5.953 h -1.266 v 47.469 c 0.198,0 0.427,0.031 0.688,0.094 0,0 0.192,0 0.578,0 3.906,0 7.229,-1.433 9.968,-4.297 2.792,-2.802 4.745,-6.417 5.86,-10.844 0.187,-0.646 0.578,-0.969 1.172,-0.969 0.843,0 1.265,0.391 1.265,1.172 0,0.458 -0.198,1.339 -0.593,2.641 -0.386,1.229 -1.068,2.661 -2.047,4.297 -0.782,1.562 -1.886,3.218 -3.313,4.968 -1.302,1.5 -3.062,2.802 -5.281,3.907 -2.083,1.041 -4.427,1.562 -7.031,1.562 -0.261,0 -0.453,-0.031 -0.578,-0.094 0,0 -0.23,0 -0.688,0 v 7.813 c 0,0.656 -0.359,0.984 -1.078,0.984 h -1.656 c -0.657,0 -0.985,-0.328 -0.985,-0.984 v -8.11 c -6.833,-1.104 -11.875,-4 -15.125,-8.687 -3.26,-4.813 -4.89,-10.542 -4.89,-17.188 0,-6.833 1.63,-12.562 4.89,-17.187 3.052,-4.688 8.094,-7.583 15.125,-8.688 v -8.109 c 0,-0.656 0.328,-0.984 0.985,-0.984 h 1.656 c 0.656,0 1.016,0.328 1.078,0.984 v 7.813 h 1.266 c 5.343,0 9.578,1.822 12.703,5.468 3.25,3.646 4.875,7.261 4.875,10.844 0,2.083 -0.651,3.776 -1.953,5.078 -1.167,1.365 -2.729,2.047 -4.688,2.047 m -15.922,25.781 v -46.093 c -2.666,0.979 -4.39,2.864 -5.172,5.656 -0.781,2.864 -1.171,6.969 -1.171,12.312 v 5.078 5.079 c 0,5.343 0.39,9.447 1.171,12.312 0.782,2.792 2.506,4.677 5.172,5.656"
     id="path4194" />
  <path
     class="Rest"
     d="m 691.929,508.751 h -35.546 c -0.657,0 -0.985,-0.328 -0.985,-0.985 v -13.672 c 0,-0.645 0.328,-0.968 0.985,-0.968 h 35.546 c 0.646,0 0.969,0.323 0.969,0.968 v 13.672 c 0,0.657 -0.323,0.985 -0.969,0.985"
     id="path4196" />
  <path
     class="Rest"
     fill="#0000ff"
     d="m 1326.841,500.938 c 0,-1.177 0.66,-2.479 1.97,-3.906 0.97,-1.042 2.4,-2.281 4.3,-3.719 1.42,-0.969 2.82,-2.432 4.18,-4.39 1.31,-1.886 1.96,-3.938 1.96,-6.157 0,-2.604 -0.85,-4.911 -2.53,-6.922 l -3.52,-4.203 c -0.26,-0.26 -0.39,-0.586 -0.39,-0.976 0,-0.391 0.19,-0.748 0.58,-1.071 0.46,-0.333 0.85,-0.5 1.17,-0.5 0.46,0 0.82,0.198 1.08,0.594 l 15.14,17.969 c 0.65,0.844 0.97,1.687 0.97,2.531 0,1.177 -0.65,2.479 -1.96,3.906 -0.84,0.917 -2.23,2.157 -4.18,3.719 -1.5,0.906 -2.93,2.37 -4.3,4.391 -1.3,1.885 -1.95,3.937 -1.95,6.156 0,2.74 0.78,5.052 2.34,6.938 l 8.39,9.859 c 0.2,0.198 0.36,0.526 0.49,0.984 0,0.448 -0.17,0.839 -0.49,1.172 -0.46,0.323 -0.85,0.485 -1.17,0.485 -0.13,0 -0.65,-0.36 -1.56,-1.079 -0.98,-0.781 -2.28,-1.531 -3.91,-2.25 -1.82,-0.708 -3.61,-1.062 -5.37,-1.062 -1.63,0 -2.96,0.453 -4,1.359 -0.91,0.917 -1.36,2.677 -1.36,5.282 0,3.968 0.94,7.093 2.82,9.375 0.2,0.26 0.23,0.583 0.1,0.968 -0.13,0.261 -0.36,0.391 -0.69,0.391 -0.45,0 -1.45,-1.172 -3.01,-3.516 -1.64,-2.468 -3.17,-5.302 -4.6,-8.5 -1.5,-3.385 -2.25,-6.182 -2.25,-8.39 0,-2.802 1.34,-4.203 4,-4.203 3.06,0 7.04,1.041 11.92,3.125 l -13.18,-15.829 c -0.66,-0.843 -0.99,-1.687 -0.99,-2.531"
     id="path4198" />
  <path
     class="Rest"
     d="m 1837.961,500.938 c 0,-1.177 0.65,-2.479 1.96,-3.906 0.97,-1.042 2.41,-2.281 4.3,-3.719 1.43,-0.969 2.82,-2.432 4.19,-4.39 1.3,-1.886 1.95,-3.938 1.95,-6.157 0,-2.604 -0.84,-4.911 -2.53,-6.922 l -3.52,-4.203 c -0.26,-0.26 -0.39,-0.586 -0.39,-0.976 0,-0.391 0.2,-0.748 0.58,-1.071 0.46,-0.333 0.85,-0.5 1.17,-0.5 0.46,0 0.82,0.198 1.08,0.594 l 15.14,17.969 c 0.65,0.844 0.97,1.687 0.97,2.531 0,1.177 -0.65,2.479 -1.95,3.906 -0.85,0.917 -2.24,2.157 -4.19,3.719 -1.5,0.906 -2.93,2.37 -4.3,4.391 -1.3,1.885 -1.95,3.937 -1.95,6.156 0,2.74 0.78,5.052 2.34,6.938 l 8.4,9.859 c 0.19,0.198 0.35,0.526 0.48,0.984 0,0.448 -0.16,0.839 -0.48,1.172 -0.46,0.323 -0.85,0.485 -1.18,0.485 -0.12,0 -0.64,-0.36 -1.56,-1.079 -0.98,-0.781 -2.28,-1.531 -3.91,-2.25 -1.82,-0.708 -3.61,-1.062 -5.37,-1.062 -1.63,0 -2.96,0.453 -4,1.359 -0.91,0.917 -1.36,2.677 -1.36,5.282 0,3.968 0.94,7.093 2.83,9.375 0.2,0.26 0.23,0.583 0.09,0.968 -0.12,0.261 -0.35,0.391 -0.69,0.391 -0.44,0 -1.45,-1.172 -3.01,-3.516 -1.64,-2.468 -3.17,-5.302 -4.59,-8.5 -1.5,-3.385 -2.25,-6.182 -2.25,-8.39 0,-2.802 1.33,-4.203 4,-4.203 3.06,0 7.03,1.041 11.92,3.125 l -13.19,-15.829 c -0.66,-0.843 -0.98,-1.687 -0.98,-2.531"
     id="path4200" />
  <path
     class="Rest"
     d="m 2360.571,500.938 c 0,-1.177 0.66,-2.479 1.97,-3.906 0.97,-1.042 2.4,-2.281 4.3,-3.719 1.43,-0.969 2.82,-2.432 4.19,-4.39 1.3,-1.886 1.95,-3.938 1.95,-6.157 0,-2.604 -0.85,-4.911 -2.53,-6.922 l -3.52,-4.203 c -0.26,-0.26 -0.39,-0.586 -0.39,-0.976 0,-0.391 0.19,-0.748 0.58,-1.071 0.46,-0.333 0.85,-0.5 1.17,-0.5 0.46,0 0.82,0.198 1.08,0.594 l 15.14,17.969 c 0.65,0.844 0.97,1.687 0.97,2.531 0,1.177 -0.65,2.479 -1.95,3.906 -0.85,0.917 -2.24,2.157 -4.19,3.719 -1.5,0.906 -2.93,2.37 -4.3,4.391 -1.3,1.885 -1.95,3.937 -1.95,6.156 0,2.74 0.78,5.052 2.34,6.938 l 8.39,9.859 c 0.2,0.198 0.36,0.526 0.49,0.984 0,0.448 -0.16,0.839 -0.49,1.172 -0.46,0.323 -0.85,0.485 -1.17,0.485 -0.12,0 -0.65,-0.36 -1.56,-1.079 -0.98,-0.781 -2.28,-1.531 -3.91,-2.25 -1.82,-0.708 -3.61,-1.062 -5.37,-1.062 -1.63,0 -2.96,0.453 -4,1.359 -0.91,0.917 -1.36,2.677 -1.36,5.282 0,3.968 0.94,7.093 2.83,9.375 0.19,0.26 0.22,0.583 0.09,0.968 -0.13,0.261 -0.35,0.391 -0.69,0.391 -0.45,0 -1.45,-1.172 -3.01,-3.516 -1.64,-2.468 -3.17,-5.302 -4.6,-8.5 -1.5,-3.385 -2.25,-6.182 -2.25,-8.39 0,-2.802 1.34,-4.203 4,-4.203 3.06,0 7.04,1.041 11.92,3.125 l -13.18,-15.829 c -0.66,-0.843 -0.99,-1.687 -0.99,-2.531"
     id="path4202" />
  <path
     class="Rest"
     d="m 2644.741,500.938 c 0,-1.177 0.65,-2.479 1.97,-3.906 0.97,-1.042 2.4,-2.281 4.29,-3.719 1.43,-0.969 2.83,-2.432 4.19,-4.39 1.3,-1.886 1.95,-3.938 1.95,-6.157 0,-2.604 -0.84,-4.911 -2.53,-6.922 l -3.51,-4.203 c -0.26,-0.26 -0.39,-0.586 -0.39,-0.976 0,-0.391 0.19,-0.748 0.58,-1.071 0.45,-0.333 0.84,-0.5 1.17,-0.5 0.46,0 0.81,0.198 1.08,0.594 l 15.14,17.969 c 0.64,0.844 0.96,1.687 0.96,2.531 0,1.177 -0.65,2.479 -1.95,3.906 -0.84,0.917 -2.24,2.157 -4.19,3.719 -1.5,0.906 -2.93,2.37 -4.29,4.391 -1.3,1.885 -1.96,3.937 -1.96,6.156 0,2.74 0.79,5.052 2.35,6.938 l 8.39,9.859 c 0.2,0.198 0.36,0.526 0.48,0.984 0,0.448 -0.16,0.839 -0.48,1.172 -0.46,0.323 -0.85,0.485 -1.17,0.485 -0.13,0 -0.65,-0.36 -1.57,-1.079 -0.98,-0.781 -2.28,-1.531 -3.9,-2.25 -1.83,-0.708 -3.62,-1.062 -5.38,-1.062 -1.62,0 -2.96,0.453 -4,1.359 -0.9,0.917 -1.36,2.677 -1.36,5.282 0,3.968 0.95,7.093 2.83,9.375 0.2,0.26 0.23,0.583 0.1,0.968 -0.13,0.261 -0.36,0.391 -0.69,0.391 -0.45,0 -1.46,-1.172 -3.02,-3.516 -1.63,-2.468 -3.16,-5.302 -4.59,-8.5 -1.5,-3.385 -2.25,-6.182 -2.25,-8.39 0,-2.802 1.33,-4.203 4,-4.203 3.06,0 7.03,1.041 11.92,3.125 l -13.19,-15.829 c -0.65,-0.843 -0.98,-1.687 -0.98,-2.531"
     id="path4204" />
  <path
     class="Rest"
     d="m 908.281,361.876 h -35.55 c -0.65,0 -0.98,-0.323 -0.98,-0.969 v -13.672 c 0,-0.656 0.33,-0.984 0.98,-0.984 h 35.55 c 0.65,0 0.97,0.328 0.97,0.984 v 13.672 c 0,0.646 -0.32,0.969 -0.97,0.969"
     id="path4206" />
  <path
     class="Rest"
     d="m 1451.861,361.876 h -35.55 c -0.66,0 -0.99,-0.323 -0.99,-0.969 v -13.672 c 0,-0.656 0.33,-0.984 0.99,-0.984 h 35.55 c 0.64,0 0.96,0.328 0.96,0.984 v 13.672 c 0,0.646 -0.32,0.969 -0.96,0.969"
     id="path4208" />
  <path
     class="Rest"
     d="m 1965.821,361.876 h -35.55 c -0.65,0 -0.98,-0.323 -0.98,-0.969 v -13.672 c 0,-0.656 0.33,-0.984 0.98,-0.984 h 35.55 c 0.65,0 0.97,0.328 0.97,0.984 v 13.672 c 0,0.646 -0.32,0.969 -0.97,0.969"
     id="path4210" />
  <path
     class="Rest"
     d="m 2508.531,361.876 h -35.55 c -0.65,0 -0.98,-0.323 -0.98,-0.969 v -13.672 c 0,-0.656 0.33,-0.984 0.98,-0.984 h 35.55 c 0.65,0 0.97,0.328 0.97,0.984 v 13.672 c 0,0.646 -0.32,0.969 -0.97,0.969"
     id="path4212" />
  <path
     class="Rest"
     d="m 654.804,125.938 c 0,-1.177 0.657,-2.479 1.969,-3.906 0.969,-1.042 2.401,-2.282 4.297,-3.719 1.427,-0.969 2.823,-2.432 4.188,-4.391 1.302,-1.885 1.953,-3.937 1.953,-6.156 0,-2.604 -0.844,-4.911 -2.532,-6.922 l -3.515,-4.203 c -0.261,-0.26 -0.391,-0.586 -0.391,-0.977 0,-0.39 0.193,-0.747 0.578,-1.07 0.459,-0.333 0.849,-0.5 1.172,-0.5 0.458,0 0.818,0.198 1.078,0.594 l 15.141,17.969 c 0.646,0.843 0.969,1.687 0.969,2.531 0,1.177 -0.651,2.479 -1.953,3.906 -0.844,0.917 -2.24,2.156 -4.188,3.719 -1.5,0.906 -2.932,2.37 -4.297,4.391 -1.302,1.885 -1.953,3.937 -1.953,6.156 0,2.739 0.781,5.052 2.344,6.937 l 8.39,9.86 c 0.198,0.198 0.36,0.526 0.485,0.984 0,0.448 -0.162,0.839 -0.485,1.172 -0.458,0.323 -0.849,0.484 -1.171,0.484 -0.125,0 -0.646,-0.359 -1.563,-1.078 -0.979,-0.781 -2.281,-1.531 -3.906,-2.25 -1.823,-0.708 -3.615,-1.062 -5.375,-1.062 -1.625,0 -2.959,0.453 -4,1.359 -0.906,0.917 -1.36,2.677 -1.36,5.281 0,3.969 0.943,7.094 2.829,9.375 0.197,0.261 0.229,0.584 0.093,0.969 -0.125,0.26 -0.354,0.391 -0.687,0.391 -0.448,0 -1.453,-1.172 -3.016,-3.516 -1.635,-2.469 -3.167,-5.302 -4.594,-8.5 -1.5,-3.385 -2.25,-6.182 -2.25,-8.391 0,-2.802 1.334,-4.203 4,-4.203 3.063,0 7.037,1.042 11.922,3.125 l -13.187,-15.828 c -0.656,-0.844 -0.985,-1.687 -0.985,-2.531"
     id="path4214" />
  <path
     class="Articulation"
     fill="#0000ff"
     d="m 1244.911,455.798 c 1.24,0 1.86,0.617 1.86,1.851 0,1.234 -0.62,1.852 -1.86,1.852 l -41.2,10.656 c -0.14,0.062 -0.33,0.094 -0.6,0.094 -0.84,0 -1.26,-0.651 -1.26,-1.953 0,-1.042 0.46,-1.662 1.37,-1.86 l 25.1,-6.437 13.97,-2.344 -13.97,-2.344 -25.1,-6.453 c -0.91,-0.198 -1.37,-0.818 -1.37,-1.859 0,-1.302 0.42,-1.953 1.26,-1.953 0.27,0 0.46,0.036 0.6,0.109 l 41.2,10.641"
     id="path4216" />
  <path
     class="Articulation"
     fill="#0000ff"
     d="m 1753.181,455.798 c 1.23,0 1.85,0.617 1.85,1.851 0,1.234 -0.62,1.852 -1.85,1.852 l -41.21,10.656 c -0.13,0.062 -0.33,0.094 -0.59,0.094 -0.85,0 -1.27,-0.651 -1.27,-1.953 0,-1.042 0.46,-1.662 1.38,-1.86 l 25.09,-6.437 13.97,-2.344 -13.97,-2.344 -25.09,-6.453 c -0.92,-0.198 -1.38,-0.818 -1.38,-1.859 0,-1.302 0.42,-1.953 1.27,-1.953 0.26,0 0.46,0.036 0.59,0.109 l 41.21,10.641"
     id="path4218" />
  <path
     class="Articulation"
     d="m 2271.941,455.798 c 1.24,0 1.86,0.617 1.86,1.851 0,1.234 -0.62,1.852 -1.86,1.852 l -41.21,10.656 c -0.13,0.062 -0.33,0.094 -0.59,0.094 -0.84,0 -1.27,-0.651 -1.27,-1.953 0,-1.042 0.46,-1.662 1.38,-1.86 l 25.09,-6.437 13.97,-2.344 -13.97,-2.344 -25.09,-6.453 c -0.92,-0.198 -1.38,-0.818 -1.38,-1.859 0,-1.302 0.43,-1.953 1.27,-1.953 0.26,0 0.46,0.036 0.59,0.109 l 41.21,10.641"
     id="path4220" />
  <path
     class="Articulation"
     d="m 807.807,73.204 h -25.984 c -0.448,0 -0.933,-0.198 -1.453,-0.594 -0.396,-0.386 -0.594,-0.839 -0.594,-1.36 0,-0.52 0.198,-0.979 0.594,-1.375 0.52,-0.385 1.005,-0.578 1.453,-0.578 h 25.984 c 0.458,0 0.948,0.193 1.469,0.578 0.385,0.396 0.578,0.855 0.578,1.375 0,0.521 -0.193,0.974 -0.578,1.36 -0.521,0.396 -1.011,0.594 -1.469,0.594"
     id="path4222" />
  <path
     class="Articulation"
     d="m 884.651,98.204 h -25.98 c -0.45,0 -0.94,-0.198 -1.456,-0.594 -0.396,-0.386 -0.594,-0.839 -0.594,-1.36 0,-0.52 0.198,-0.979 0.594,-1.375 0.516,-0.385 1.006,-0.578 1.456,-0.578 h 25.98 c 0.46,0 0.95,0.193 1.47,0.578 0.39,0.396 0.58,0.855 0.58,1.375 0,0.521 -0.19,0.974 -0.58,1.36 -0.52,0.396 -1.01,0.594 -1.47,0.594"
     id="path4224" />
  <path
     class="Articulation"
     d="m 961.501,173.204 h -25.99 c -0.45,0 -0.93,-0.193 -1.45,-0.579 -0.4,-0.395 -0.6,-0.854 -0.6,-1.375 0,-0.52 0.2,-0.974 0.6,-1.359 0.52,-0.396 1,-0.594 1.45,-0.594 h 25.99 c 0.45,0 0.94,0.198 1.46,0.594 0.39,0.385 0.58,0.839 0.58,1.359 0,0.521 -0.19,0.98 -0.58,1.375 -0.52,0.386 -1.01,0.579 -1.46,0.579"
     id="path4226" />
  <path
     class="Articulation"
     d="m 1084.451,198.204 h -25.99 c -0.44,0 -0.93,-0.193 -1.45,-0.579 -0.4,-0.395 -0.59,-0.854 -0.59,-1.375 0,-0.52 0.19,-0.973 0.59,-1.359 0.52,-0.396 1.01,-0.594 1.45,-0.594 h 25.99 c 0.46,0 0.95,0.198 1.47,0.594 0.38,0.386 0.57,0.839 0.57,1.359 0,0.521 -0.19,0.98 -0.57,1.375 -0.52,0.386 -1.01,0.579 -1.47,0.579"
     id="path4228" />
  <path
     class="Articulation"
     d="m 1244.911,208.008 c 1.24,0 1.86,0.617 1.86,1.852 0,1.234 -0.62,1.851 -1.86,1.851 l -41.2,10.641 c -0.14,0.073 -0.33,0.109 -0.6,0.109 -0.84,0 -1.26,-0.651 -1.26,-1.953 0,-1.041 0.46,-1.661 1.37,-1.859 l 25.1,-6.453 13.97,-2.344 -13.97,-2.344 -25.1,-6.437 c -0.91,-0.198 -1.37,-0.818 -1.37,-1.86 0,-1.302 0.42,-1.953 1.26,-1.953 0.27,0 0.46,0.032 0.6,0.094 l 41.2,10.656"
     id="path4230" />
  <path
     class="Articulation"
     d="m 1476.481,223.204 h -25.98 c -0.45,0 -0.93,-0.193 -1.45,-0.579 -0.4,-0.395 -0.6,-0.854 -0.6,-1.375 0,-0.52 0.2,-0.973 0.6,-1.359 0.52,-0.396 1,-0.594 1.45,-0.594 h 25.98 c 0.46,0 0.95,0.198 1.47,0.594 0.39,0.386 0.58,0.839 0.58,1.359 0,0.521 -0.19,0.98 -0.58,1.375 -0.52,0.386 -1.01,0.579 -1.47,0.579"
     id="path4232" />
  <path
     class="Articulation"
     d="m 1596.071,210.704 h -25.98 c -0.45,0 -0.93,-0.193 -1.45,-0.579 -0.4,-0.395 -0.6,-0.854 -0.6,-1.375 0,-0.52 0.2,-0.973 0.6,-1.359 0.52,-0.396 1,-0.594 1.45,-0.594 h 25.98 c 0.46,0 0.95,0.198 1.47,0.594 0.39,0.386 0.58,0.839 0.58,1.359 0,0.521 -0.19,0.98 -0.58,1.375 -0.52,0.386 -1.01,0.579 -1.47,0.579"
     id="path4234" />
  <path
     class="Articulation"
     d="m 1753.181,208.133 c 1.23,0 1.85,0.617 1.85,1.852 0,1.234 -0.62,1.851 -1.85,1.851 l -41.21,10.641 c -0.13,0.073 -0.33,0.109 -0.59,0.109 -0.85,0 -1.27,-0.651 -1.27,-1.953 0,-1.041 0.46,-1.661 1.38,-1.859 l 25.09,-6.453 13.97,-2.344 -13.97,-2.344 -25.09,-6.437 c -0.92,-0.198 -1.38,-0.818 -1.38,-1.86 0,-1.302 0.42,-1.953 1.27,-1.953 0.26,0 0.46,0.032 0.59,0.094 l 41.21,10.656"
     id="path4236" />
  <path
     class="Articulation"
     d="m 1990.451,235.704 h -25.99 c -0.45,0 -0.93,-0.193 -1.45,-0.579 -0.4,-0.395 -0.59,-0.854 -0.59,-1.375 0,-0.52 0.19,-0.973 0.59,-1.359 0.52,-0.396 1,-0.594 1.45,-0.594 h 25.99 c 0.45,0 0.94,0.198 1.47,0.594 0.38,0.386 0.57,0.839 0.57,1.359 0,0.521 -0.19,0.98 -0.57,1.375 -0.53,0.386 -1.02,0.579 -1.47,0.579"
     id="path4238" />
  <path
     class="Articulation"
     d="m 2112.891,223.204 h -25.99 c -0.45,0 -0.93,-0.193 -1.45,-0.579 -0.4,-0.395 -0.59,-0.854 -0.59,-1.375 0,-0.52 0.19,-0.973 0.59,-1.359 0.52,-0.396 1,-0.594 1.45,-0.594 h 25.99 c 0.46,0 0.94,0.198 1.47,0.594 0.38,0.386 0.57,0.839 0.57,1.359 0,0.521 -0.19,0.98 -0.57,1.375 -0.53,0.386 -1.01,0.579 -1.47,0.579"
     id="path4240" />
  <path
     class="Articulation"
     d="m 2271.941,248.132 c 1.24,0 1.86,0.617 1.86,1.852 0,1.234 -0.62,1.851 -1.86,1.851 l -41.21,10.641 c -0.13,0.073 -0.33,0.109 -0.59,0.109 -0.84,0 -1.27,-0.651 -1.27,-1.953 0,-1.042 0.46,-1.661 1.38,-1.859 l 25.09,-6.453 13.97,-2.344 -13.97,-2.344 -25.09,-6.437 c -0.92,-0.198 -1.38,-0.818 -1.38,-1.86 0,-1.302 0.43,-1.953 1.27,-1.953 0.26,0 0.46,0.031 0.59,0.094 l 41.21,10.656"
     id="path4242" />
  <path
     class="Articulation"
     d="m 2674.791,235.704 h -25.99 c -0.44,0 -0.93,-0.193 -1.45,-0.579 -0.39,-0.395 -0.59,-0.854 -0.59,-1.375 0,-0.52 0.2,-0.973 0.59,-1.359 0.52,-0.396 1.01,-0.594 1.45,-0.594 h 25.99 c 0.46,0 0.95,0.198 1.47,0.594 0.38,0.386 0.58,0.839 0.58,1.359 0,0.521 -0.2,0.98 -0.58,1.375 -0.52,0.386 -1.01,0.579 -1.47,0.579"
     id="path4244" />
  <path
     class="Dynamic"
     d="m 747.579,270.797 c 0,-0.208 0.161,-0.729 0.484,-1.562 0.917,-2.521 2.255,-5.021 4.016,-7.5 2.323,-3.24 4.88,-4.859 7.671,-4.859 1.209,0 2.152,0.479 2.829,1.437 0.635,0.875 1.015,2.016 1.14,3.422 2.115,-3.24 4.516,-4.859 7.203,-4.859 1.073,0 2.032,0.479 2.875,1.437 0.761,1.083 1.198,2.302 1.313,3.656 2.042,-3.396 4.385,-5.093 7.031,-5.093 1.281,0 2.511,0.549 3.688,1.648 1.177,1.099 1.765,2.57 1.765,4.414 0,0.354 -0.057,0.792 -0.172,1.313 l -3.187,13.562 c -0.042,0.156 -0.063,0.276 -0.063,0.359 0,0.521 0.183,0.782 0.547,0.782 0.636,0 1.636,-0.521 3,-1.563 l 2.094,-1.625 c 0.406,0 0.609,0.162 0.609,0.485 0,0.239 -0.104,0.458 -0.312,0.656 -2.833,2.687 -4.813,4.427 -5.938,5.219 -1.833,1.322 -3.593,1.984 -5.281,1.984 -0.958,0 -1.677,-0.261 -2.156,-0.781 -0.521,-0.563 -0.802,-1.224 -0.844,-1.985 0,-0.271 0.042,-0.588 0.125,-0.953 l 3.422,-14.875 c 0.115,-0.604 0.193,-1.026 0.234,-1.265 0,-1.157 -0.317,-1.735 -0.953,-1.735 -0.76,0 -1.541,0.297 -2.344,0.891 -0.677,0.521 -1.156,1.224 -1.437,2.109 l -4.984,17.281 c -0.198,0.636 -0.579,0.954 -1.141,0.954 h -5.219 c -0.479,0 -0.719,-0.198 -0.719,-0.594 0,-0.125 0.021,-0.245 0.063,-0.36 l 4.922,-17.281 c 0.198,-0.719 0.297,-1.198 0.297,-1.437 0,-1.042 -0.401,-1.563 -1.203,-1.563 -0.761,0 -1.5,0.318 -2.219,0.953 -0.761,0.646 -1.261,1.328 -1.5,2.047 l -5.875,17.281 c -0.198,0.636 -0.599,0.954 -1.203,0.954 h -5.219 c -0.396,0 -0.594,-0.162 -0.594,-0.485 0,-0.114 0.037,-0.271 0.11,-0.469 l 5.89,-17.281 c 0.198,-0.604 0.297,-1.068 0.297,-1.39 0,-1.073 -0.458,-1.61 -1.375,-1.61 -1.281,0 -2.406,0.86 -3.375,2.578 -0.75,1.115 -1.568,2.912 -2.453,5.391 -0.198,0.562 -0.62,0.844 -1.266,0.844 -0.395,-0.115 -0.593,-0.292 -0.593,-0.532 m 62.296,-12.421 -4.796,15.468 c -1.802,5.761 -4.584,11.141 -8.344,16.141 -3.958,5.239 -7.995,7.859 -12.11,7.859 -2.166,0 -4.07,-0.56 -5.71,-1.679 -1.641,-1.12 -2.461,-2.576 -2.461,-4.368 0,-2.041 0.442,-3.765 1.328,-5.171 0.916,-1.438 2.114,-2.157 3.593,-2.157 1.167,0 2.139,0.42 2.915,1.258 0.776,0.839 1.164,1.8 1.164,2.883 0,1.042 -0.558,1.943 -1.672,2.703 -1.24,0.833 -1.86,1.672 -1.86,2.516 0,0.645 0.86,0.968 2.578,0.968 1.803,0 3.183,-0.744 4.141,-2.234 1.042,-1.594 1.88,-3.87 2.516,-6.828 0.156,-0.802 0.276,-1.344 0.359,-1.625 l 6.422,-25.734 h -4.984 c -0.438,0 -0.776,-0.162 -1.016,-0.485 -0.24,-0.396 -0.359,-0.776 -0.359,-1.14 0,-0.48 0.119,-0.839 0.359,-1.079 0.323,-0.323 0.661,-0.484 1.016,-0.484 h 5.89 c 1.552,-4.719 4.229,-8.937 8.031,-12.656 3.719,-3.636 7.719,-5.453 12,-5.453 2.198,0 4.099,0.578 5.704,1.734 1.604,1.156 2.421,2.594 2.453,4.313 0,1.927 -0.417,3.63 -1.25,5.109 -1,1.437 -2.203,2.156 -3.61,2.156 -1.156,0 -2.135,-0.409 -2.937,-1.226 -0.802,-0.818 -1.203,-1.769 -1.203,-2.852 0,-0.958 0.591,-1.807 1.773,-2.547 1.182,-0.739 1.774,-1.63 1.774,-2.672 0,-0.718 -0.901,-1.078 -2.704,-1.078 -0.958,0 -1.937,0.339 -2.937,1.016 -0.635,0.437 -1.354,1.359 -2.156,2.765 -0.521,0.875 -0.964,1.954 -1.328,3.235 -0.073,0.281 -0.349,1.719 -0.829,4.312 -0.281,1.521 -0.583,2.802 -0.906,3.844 h 5.391 c 0.448,0 0.831,0.151 1.148,0.453 0.318,0.302 0.477,0.672 0.477,1.11 0,0.437 -0.159,0.817 -0.477,1.14 -0.317,0.323 -0.7,0.485 -1.148,0.485 h -6.235"
     id="path4246" />
  <path
     class="Beam"
     fill-rule="evenodd"
     d="m 778.35,177.178 80.091,26.057 V 216.38 L 778.35,190.323 v -13.145"
     id="path4248" />
  <path
     class="Beam"
     fill-rule="evenodd"
     d="m 2390.831,76.165 82.19,26.029 v 13.112 l -82.19,-26.029 V 76.165"
     id="path4250" />
  <path
     class="StaffText"
     d="m 778.6,28.813 c 0,-0.594 0.068,-1.149 0.203,-1.664 0.136,-0.516 0.37,-0.998 0.703,-1.446 0.334,-0.447 0.649,-0.854 0.946,-1.218 0.297,-0.365 0.744,-0.737 1.343,-1.117 0.599,-0.381 1.099,-0.696 1.5,-0.946 0.401,-0.25 1.011,-0.549 1.829,-0.898 0.817,-0.349 1.442,-0.615 1.875,-0.797 0.432,-0.182 1.114,-0.456 2.046,-0.82 0.933,-0.365 1.618,-0.631 2.055,-0.797 v -3.032 c 0,-2.75 -1.266,-4.125 -3.797,-4.125 -1,0 -1.851,0.243 -2.554,0.727 -0.704,0.484 -1.055,1.06 -1.055,1.727 0,0.26 0.042,0.625 0.125,1.093 0.083,0.469 0.125,0.771 0.125,0.907 0,0.562 -0.224,1.052 -0.672,1.468 -0.448,0.417 -0.974,0.625 -1.578,0.625 -0.563,0 -1.06,-0.216 -1.492,-0.648 -0.433,-0.432 -0.649,-0.935 -0.649,-1.508 0,-1.562 0.808,-2.885 2.422,-3.969 1.615,-1.083 3.604,-1.625 5.969,-1.625 2.739,0 4.625,0.657 5.656,1.969 1.031,1.313 1.547,3.313 1.547,6 v 9.703 c 0,1.094 0.109,1.847 0.328,2.258 0.219,0.412 0.609,0.617 1.172,0.617 0.698,0 1.432,-0.312 2.203,-0.937 v 1.297 c -0.864,1 -1.622,1.682 -2.273,2.046 -0.651,0.365 -1.394,0.547 -2.227,0.547 -1.031,0 -1.789,-0.291 -2.273,-0.875 -0.485,-0.583 -0.795,-1.541 -0.93,-2.875 -2.865,2.5 -5.297,3.75 -7.297,3.75 -1.531,0 -2.789,-0.507 -3.773,-1.523 -0.985,-1.016 -1.477,-2.32 -1.477,-3.914 m 12.5,-1.297 v -7.203 c -3,1.094 -5.099,2.154 -6.297,3.18 -1.198,1.026 -1.797,2.268 -1.797,3.726 0,1.365 0.334,2.378 1,3.039 0.667,0.662 1.381,0.992 2.141,0.992 1.135,0 2.354,-0.38 3.656,-1.14 0.531,-0.302 0.88,-0.62 1.047,-0.953 0.167,-0.334 0.25,-0.881 0.25,-1.641 M 813.897,9.907 c 0.167,-0.771 0.333,-1.438 0.5,-2 0.167,-0.563 0.526,-1.383 1.078,-2.461 0.552,-1.078 1.169,-1.974 1.852,-2.688 0.682,-0.713 1.632,-1.351 2.851,-1.914 C 821.397,0.282 822.772,0 824.303,0 c 2.594,0 4.784,0.844 6.571,2.532 1.786,1.687 2.679,3.776 2.679,6.265 0,3.771 -2.135,7.891 -6.406,12.36 l -8.391,8.796 h 11.938 c 1.135,0 1.979,-0.192 2.531,-0.578 0.552,-0.385 1.292,-1.291 2.219,-2.718 l 0.656,0.25 -2.75,6.843 h -19.5 v -0.593 l 8.906,-9.454 c 4.334,-4.604 6.5,-8.937 6.5,-13 0,-2.104 -0.651,-3.807 -1.953,-5.109 -1.302,-1.302 -3.005,-1.953 -5.109,-1.953 -1.729,0 -3.12,0.477 -4.172,1.43 -1.052,0.953 -2.078,2.648 -3.078,5.086 l -1.047,-0.25"
     id="path4252" />
</svg>
