<svg width="98" height="74" xmlns="http://www.w3.org/2000/svg" xmlns:xlink="http://www.w3.org/1999/xlink" overflow="hidden"><defs><clipPath id="clip0"><path d="M727 263 825 263 825 337 727 337Z" fill-rule="evenodd" clip-rule="evenodd"/></clipPath></defs><g clip-path="url(#clip0)" transform="translate(-727 -263)"><path d="M736.5 276.5C736.5 269.873 741.873 264.5 748.5 264.5 755.128 264.5 760.5 269.873 760.5 276.5 760.5 283.127 755.128 288.5 748.5 288.5 741.873 288.5 736.5 283.127 736.5 276.5Z" stroke="#2F528F" stroke-miterlimit="8" fill="#FF0000" fill-rule="evenodd"/><path d="M736.5 300.5C736.5 293.873 741.873 288.5 748.5 288.5 755.128 288.5 760.5 293.873 760.5 300.5 760.5 307.127 755.128 312.5 748.5 312.5 741.873 312.5 736.5 307.127 736.5 300.5Z" stroke="#2F528F" stroke-miterlimit="8" fill="#FFFF00" fill-rule="evenodd"/><text font-family="Calibri,Calibri_MSFontService,sans-serif" font-weight="400" font-size="24" transform="translate(742.5 308)">F</text><path d="M736.5 324.5C736.5 317.873 741.873 312.5 748.5 312.5 755.128 312.5 760.5 317.873 760.5 324.5 760.5 331.127 755.128 336.5 748.5 336.5 741.873 336.5 736.5 331.127 736.5 324.5Z" stroke="#2F528F" stroke-miterlimit="8" fill="#FF0000" fill-rule="evenodd"/><path d="M768.5 276.5C768.5 269.873 773.873 264.5 780.5 264.5 787.128 264.5 792.5 269.873 792.5 276.5 792.5 283.127 787.128 288.5 780.5 288.5 773.873 288.5 768.5 283.127 768.5 276.5Z" stroke="#2F528F" stroke-miterlimit="8" fill="#FF0000" fill-rule="evenodd"/><path d="M768.5 300.5C768.5 293.873 773.873 288.5 780.5 288.5 787.128 288.5 792.5 293.873 792.5 300.5 792.5 307.127 787.128 312.5 780.5 312.5 773.873 312.5 768.5 307.127 768.5 300.5Z" stroke="#2F528F" stroke-miterlimit="8" fill="#FFFF00" fill-rule="evenodd"/><path d="M768.5 324.5C768.5 317.873 773.873 312.5 780.5 312.5 787.128 312.5 792.5 317.873 792.5 324.5 792.5 331.127 787.128 336.5 780.5 336.5 773.873 336.5 768.5 331.127 768.5 324.5Z" stroke="#2F528F" stroke-miterlimit="8" fill="#FF0000" fill-rule="evenodd"/><path d="M800.5 276.5C800.5 269.873 805.873 264.5 812.5 264.5 819.128 264.5 824.5 269.873 824.5 276.5 824.5 283.127 819.128 288.5 812.5 288.5 805.873 288.5 800.5 283.127 800.5 276.5Z" stroke="#2F528F" stroke-miterlimit="8" fill="#FF0000" fill-rule="evenodd"/><path d="M800.5 300.5C800.5 293.873 805.873 288.5 812.5 288.5 819.128 288.5 824.5 293.873 824.5 300.5 824.5 307.127 819.128 312.5 812.5 312.5 805.873 312.5 800.5 307.127 800.5 300.5Z" stroke="#2F528F" stroke-miterlimit="8" fill="#FF0000" fill-rule="evenodd"/><path d="M800.5 324.5C800.5 317.873 805.873 312.5 812.5 312.5 819.128 312.5 824.5 317.873 824.5 324.5 824.5 331.127 819.128 336.5 812.5 336.5 805.873 336.5 800.5 331.127 800.5 324.5Z" stroke="#2F528F" stroke-miterlimit="8" fill="#FFFF00" fill-rule="evenodd"/></g></svg>