<svg width="98" height="75" xmlns="http://www.w3.org/2000/svg" xmlns:xlink="http://www.w3.org/1999/xlink" overflow="hidden"><defs><clipPath id="clip0"><path d="M534 262 632 262 632 337 534 337Z" fill-rule="evenodd" clip-rule="evenodd"/></clipPath></defs><g clip-path="url(#clip0)" transform="translate(-534 -262)"><path d="M543.5 275.5C543.5 268.873 548.873 263.5 555.5 263.5 562.128 263.5 567.5 268.873 567.5 275.5 567.5 282.127 562.128 287.5 555.5 287.5 548.873 287.5 543.5 282.127 543.5 275.5Z" stroke="#2F528F" stroke-miterlimit="8" fill="#FF0000" fill-rule="evenodd"/><path d="M543.5 299.5C543.5 292.873 548.873 287.5 555.5 287.5 562.128 287.5 567.5 292.873 567.5 299.5 567.5 306.127 562.128 311.5 555.5 311.5 548.873 311.5 543.5 306.127 543.5 299.5Z" stroke="#2F528F" stroke-miterlimit="8" fill="#00B050" fill-rule="evenodd"/><text font-family="Calibri,Calibri_MSFontService,sans-serif" font-weight="400" font-size="24" transform="translate(549.317 307)">F</text><path d="M543.5 323.5C543.5 316.873 548.873 311.5 555.5 311.5 562.128 311.5 567.5 316.873 567.5 323.5 567.5 330.127 562.128 335.5 555.5 335.5 548.873 335.5 543.5 330.127 543.5 323.5Z" stroke="#2F528F" stroke-miterlimit="8" fill="#FF0000" fill-rule="evenodd"/><path d="M575.5 275.5C575.5 268.873 580.873 263.5 587.5 263.5 594.128 263.5 599.5 268.873 599.5 275.5 599.5 282.127 594.128 287.5 587.5 287.5 580.873 287.5 575.5 282.127 575.5 275.5Z" stroke="#2F528F" stroke-miterlimit="8" fill="#FF0000" fill-rule="evenodd"/><path d="M575.5 299.5C575.5 292.873 580.873 287.5 587.5 287.5 594.128 287.5 599.5 292.873 599.5 299.5 599.5 306.127 594.128 311.5 587.5 311.5 580.873 311.5 575.5 306.127 575.5 299.5Z" stroke="#2F528F" stroke-miterlimit="8" fill="#00B050" fill-rule="evenodd"/><path d="M575.5 323.5C575.5 316.873 580.873 311.5 587.5 311.5 594.128 311.5 599.5 316.873 599.5 323.5 599.5 330.127 594.128 335.5 587.5 335.5 580.873 335.5 575.5 330.127 575.5 323.5Z" stroke="#2F528F" stroke-miterlimit="8" fill="#FF0000" fill-rule="evenodd"/><path d="M607.5 275.5C607.5 268.873 612.873 263.5 619.5 263.5 626.128 263.5 631.5 268.873 631.5 275.5 631.5 282.127 626.128 287.5 619.5 287.5 612.873 287.5 607.5 282.127 607.5 275.5Z" stroke="#2F528F" stroke-miterlimit="8" fill="#FF0000" fill-rule="evenodd"/><path d="M607.5 299.5C607.5 292.873 612.873 287.5 619.5 287.5 626.128 287.5 631.5 292.873 631.5 299.5 631.5 306.127 626.128 311.5 619.5 311.5 612.873 311.5 607.5 306.127 607.5 299.5Z" stroke="#2F528F" stroke-miterlimit="8" fill="#FF0000" fill-rule="evenodd"/><path d="M607.5 323.5C607.5 316.873 612.873 311.5 619.5 311.5 626.128 311.5 631.5 316.873 631.5 323.5 631.5 330.127 626.128 335.5 619.5 335.5 612.873 335.5 607.5 330.127 607.5 323.5Z" stroke="#2F528F" stroke-miterlimit="8" fill="#00B050" fill-rule="evenodd"/></g></svg>