<svg width="90" height="74" xmlns="http://www.w3.org/2000/svg" xmlns:xlink="http://www.w3.org/1999/xlink" overflow="hidden"><defs><clipPath id="clip0"><path d="M63 71 153 71 153 145 63 145Z" fill-rule="evenodd" clip-rule="evenodd"/></clipPath></defs><g clip-path="url(#clip0)" transform="translate(-63 -71)"><path d="M64.5001 84.5001C64.5001 77.8726 69.8726 72.5001 76.5001 72.5001 83.1275 72.5001 88.5001 77.8726 88.5001 84.5001 88.5001 91.1275 83.1275 96.5001 76.5001 96.5001 69.8726 96.5001 64.5001 91.1275 64.5001 84.5001Z" stroke="#2F528F" stroke-miterlimit="8" fill="#FF0000" fill-rule="evenodd"/><path d="M96.5001 84.5001C96.5001 77.8726 101.873 72.5001 108.5 72.5001 115.127 72.5001 120.5 77.8726 120.5 84.5001 120.5 91.1275 115.127 96.5001 108.5 96.5001 101.873 96.5001 96.5001 91.1275 96.5001 84.5001Z" stroke="#2F528F" stroke-miterlimit="8" fill="#FF0000" fill-rule="evenodd"/><path d="M96.5001 108.5C96.5001 101.873 101.873 96.5001 108.5 96.5001 115.127 96.5001 120.5 101.873 120.5 108.5 120.5 115.127 115.127 120.5 108.5 120.5 101.873 120.5 96.5001 115.127 96.5001 108.5Z" stroke="#2F528F" stroke-miterlimit="8" fill="#FF0000" fill-rule="evenodd"/><path d="M128.5 84.5001C128.5 77.8726 133.873 72.5001 140.5 72.5001 147.127 72.5001 152.5 77.8726 152.5 84.5001 152.5 91.1275 147.127 96.5001 140.5 96.5001 133.873 96.5001 128.5 91.1275 128.5 84.5001Z" stroke="#2F528F" stroke-miterlimit="8" fill="#FF0000" fill-rule="evenodd"/><path d="M128.5 108.5C128.5 101.873 133.873 96.5001 140.5 96.5001 147.127 96.5001 152.5 101.873 152.5 108.5 152.5 115.127 147.127 120.5 140.5 120.5 133.873 120.5 128.5 115.127 128.5 108.5Z" stroke="#2F528F" stroke-miterlimit="8" fill="#FF0000" fill-rule="evenodd"/><path d="M128.5 132.5C128.5 125.873 133.873 120.5 140.5 120.5 147.127 120.5 152.5 125.873 152.5 132.5 152.5 139.127 147.127 144.5 140.5 144.5 133.873 144.5 128.5 139.127 128.5 132.5Z" stroke="#2F528F" stroke-miterlimit="8" fill="#FF0000" fill-rule="evenodd"/></g></svg>