<svg width="90" height="74" xmlns="http://www.w3.org/2000/svg" xmlns:xlink="http://www.w3.org/1999/xlink" overflow="hidden"><defs><clipPath id="clip0"><path d="M447 71 537 71 537 145 447 145Z" fill-rule="evenodd" clip-rule="evenodd"/></clipPath></defs><g clip-path="url(#clip0)" transform="translate(-447 -71)"><path d="M448.5 84.5001C448.5 77.8726 453.873 72.5001 460.5 72.5001 467.127 72.5001 472.5 77.8726 472.5 84.5001 472.5 91.1275 467.127 96.5001 460.5 96.5001 453.873 96.5001 448.5 91.1275 448.5 84.5001Z" stroke="#2F528F" stroke-miterlimit="8" fill="#00B050" fill-rule="evenodd"/><path d="M480.5 84.5001C480.5 77.8726 485.873 72.5001 492.5 72.5001 499.127 72.5001 504.5 77.8726 504.5 84.5001 504.5 91.1275 499.127 96.5001 492.5 96.5001 485.873 96.5001 480.5 91.1275 480.5 84.5001Z" stroke="#2F528F" stroke-miterlimit="8" fill="#00B050" fill-rule="evenodd"/><path d="M480.5 108.5C480.5 101.873 485.873 96.5001 492.5 96.5001 499.127 96.5001 504.5 101.873 504.5 108.5 504.5 115.127 499.127 120.5 492.5 120.5 485.873 120.5 480.5 115.127 480.5 108.5Z" stroke="#2F528F" stroke-miterlimit="8" fill="#FF0000" fill-rule="evenodd"/><path d="M512.5 84.5001C512.5 77.8726 517.873 72.5001 524.5 72.5001 531.128 72.5001 536.5 77.8726 536.5 84.5001 536.5 91.1275 531.128 96.5001 524.5 96.5001 517.873 96.5001 512.5 91.1275 512.5 84.5001Z" stroke="#2F528F" stroke-miterlimit="8" fill="#00B050" fill-rule="evenodd"/><path d="M512.5 108.5C512.5 101.873 517.873 96.5001 524.5 96.5001 531.128 96.5001 536.5 101.873 536.5 108.5 536.5 115.127 531.128 120.5 524.5 120.5 517.873 120.5 512.5 115.127 512.5 108.5Z" stroke="#2F528F" stroke-miterlimit="8" fill="#FF0000" fill-rule="evenodd"/><path d="M512.5 132.5C512.5 125.873 517.873 120.5 524.5 120.5 531.128 120.5 536.5 125.873 536.5 132.5 536.5 139.127 531.128 144.5 524.5 144.5 517.873 144.5 512.5 139.127 512.5 132.5Z" stroke="#2F528F" stroke-miterlimit="8" fill="#FF0000" fill-rule="evenodd"/></g></svg>