<svg width="90" height="74" xmlns="http://www.w3.org/2000/svg" xmlns:xlink="http://www.w3.org/1999/xlink" overflow="hidden"><defs><clipPath id="clip0"><path d="M255 71 345 71 345 145 255 145Z" fill-rule="evenodd" clip-rule="evenodd"/></clipPath></defs><g clip-path="url(#clip0)" transform="translate(-255 -71)"><path d="M256.5 84.5001C256.5 77.8726 261.873 72.5001 268.5 72.5001 275.127 72.5001 280.5 77.8726 280.5 84.5001 280.5 91.1275 275.127 96.5001 268.5 96.5001 261.873 96.5001 256.5 91.1275 256.5 84.5001Z" stroke="#2F528F" stroke-miterlimit="8" fill="#FFFF00" fill-rule="evenodd"/><path d="M288.5 84.5001C288.5 77.8726 293.873 72.5001 300.5 72.5001 307.127 72.5001 312.5 77.8726 312.5 84.5001 312.5 91.1275 307.127 96.5001 300.5 96.5001 293.873 96.5001 288.5 91.1275 288.5 84.5001Z" stroke="#2F528F" stroke-miterlimit="8" fill="#FFFF00" fill-rule="evenodd"/><path d="M288.5 108.5C288.5 101.873 293.873 96.5001 300.5 96.5001 307.127 96.5001 312.5 101.873 312.5 108.5 312.5 115.127 307.127 120.5 300.5 120.5 293.873 120.5 288.5 115.127 288.5 108.5Z" stroke="#2F528F" stroke-miterlimit="8" fill="#FF0000" fill-rule="evenodd"/><path d="M320.5 84.5001C320.5 77.8726 325.873 72.5001 332.5 72.5001 339.127 72.5001 344.5 77.8726 344.5 84.5001 344.5 91.1275 339.127 96.5001 332.5 96.5001 325.873 96.5001 320.5 91.1275 320.5 84.5001Z" stroke="#2F528F" stroke-miterlimit="8" fill="#FFFF00" fill-rule="evenodd"/><path d="M320.5 108.5C320.5 101.873 325.873 96.5001 332.5 96.5001 339.127 96.5001 344.5 101.873 344.5 108.5 344.5 115.127 339.127 120.5 332.5 120.5 325.873 120.5 320.5 115.127 320.5 108.5Z" stroke="#2F528F" stroke-miterlimit="8" fill="#FF0000" fill-rule="evenodd"/><path d="M320.5 132.5C320.5 125.873 325.873 120.5 332.5 120.5 339.127 120.5 344.5 125.873 344.5 132.5 344.5 139.127 339.127 144.5 332.5 144.5 325.873 144.5 320.5 139.127 320.5 132.5Z" stroke="#2F528F" stroke-miterlimit="8" fill="#FF0000" fill-rule="evenodd"/></g></svg>