<svg width="186" height="83" xmlns="http://www.w3.org/2000/svg" xmlns:xlink="http://www.w3.org/1999/xlink" overflow="hidden"><defs><clipPath id="clip0"><path d="M254 254 440 254 440 337 254 337Z" fill-rule="evenodd" clip-rule="evenodd"/></clipPath></defs><g clip-path="url(#clip0)" transform="translate(-254 -254)"><path d="M255.5 276.5C255.5 269.873 260.873 264.5 267.5 264.5 274.127 264.5 279.5 269.873 279.5 276.5 279.5 283.127 274.127 288.5 267.5 288.5 260.873 288.5 255.5 283.127 255.5 276.5Z" stroke="#2F528F" stroke-miterlimit="8" fill="#00B050" fill-rule="evenodd"/><path d="M255.5 300.5C255.5 293.873 260.873 288.5 267.5 288.5 274.127 288.5 279.5 293.873 279.5 300.5 279.5 307.127 274.127 312.5 267.5 312.5 260.873 312.5 255.5 307.127 255.5 300.5Z" stroke="#2F528F" stroke-miterlimit="8" fill="#FF0000" fill-rule="evenodd"/><path d="M255.5 324.5C255.5 317.873 260.873 312.5 267.5 312.5 274.127 312.5 279.5 317.873 279.5 324.5 279.5 331.127 274.127 336.5 267.5 336.5 260.873 336.5 255.5 331.127 255.5 324.5Z" stroke="#2F528F" stroke-miterlimit="8" fill="#FF0000" fill-rule="evenodd"/><path d="M287.5 276.5C287.5 269.873 292.873 264.5 299.5 264.5 306.127 264.5 311.5 269.873 311.5 276.5 311.5 283.127 306.127 288.5 299.5 288.5 292.873 288.5 287.5 283.127 287.5 276.5Z" stroke="#2F528F" stroke-miterlimit="8" fill="#FFFF00" fill-rule="evenodd"/><text font-family="Calibri,Calibri_MSFontService,sans-serif" font-weight="400" font-size="24" transform="translate(293.317 284)">F</text><path d="M287.5 300.5C287.5 293.873 292.873 288.5 299.5 288.5 306.127 288.5 311.5 293.873 311.5 300.5 311.5 307.127 306.127 312.5 299.5 312.5 292.873 312.5 287.5 307.127 287.5 300.5Z" stroke="#2F528F" stroke-miterlimit="8" fill="#FF0000" fill-rule="evenodd"/><path d="M287.5 324.5C287.5 317.873 292.873 312.5 299.5 312.5 306.127 312.5 311.5 317.873 311.5 324.5 311.5 331.127 306.127 336.5 299.5 336.5 292.873 336.5 287.5 331.127 287.5 324.5Z" stroke="#2F528F" stroke-miterlimit="8" fill="#FF0000" fill-rule="evenodd"/><path d="M319.5 276.5C319.5 269.873 324.873 264.5 331.5 264.5 338.127 264.5 343.5 269.873 343.5 276.5 343.5 283.127 338.127 288.5 331.5 288.5 324.873 288.5 319.5 283.127 319.5 276.5Z" stroke="#2F528F" stroke-miterlimit="8" fill="#FFFF00" fill-rule="evenodd"/><path d="M319.5 300.5C319.5 293.873 324.873 288.5 331.5 288.5 338.127 288.5 343.5 293.873 343.5 300.5 343.5 307.127 338.127 312.5 331.5 312.5 324.873 312.5 319.5 307.127 319.5 300.5Z" stroke="#2F528F" stroke-miterlimit="8" fill="#FF0000" fill-rule="evenodd"/><path d="M319.5 324.5C319.5 317.873 324.873 312.5 331.5 312.5 338.127 312.5 343.5 317.873 343.5 324.5 343.5 331.127 338.127 336.5 331.5 336.5 324.873 336.5 319.5 331.127 319.5 324.5Z" stroke="#2F528F" stroke-miterlimit="8" fill="#FF0000" fill-rule="evenodd"/><path d="M351.5 275.5C351.5 268.873 356.873 263.5 363.5 263.5 370.127 263.5 375.5 268.873 375.5 275.5 375.5 282.127 370.127 287.5 363.5 287.5 356.873 287.5 351.5 282.127 351.5 275.5Z" stroke="#2F528F" stroke-miterlimit="8" fill="#FFFF00" fill-rule="evenodd"/><path d="M351.5 299.5C351.5 292.873 356.873 287.5 363.5 287.5 370.127 287.5 375.5 292.873 375.5 299.5 375.5 306.127 370.127 311.5 363.5 311.5 356.873 311.5 351.5 306.127 351.5 299.5Z" stroke="#2F528F" stroke-miterlimit="8" fill="#00B050" fill-rule="evenodd"/><text font-family="Calibri,Calibri_MSFontService,sans-serif" font-weight="400" font-size="24" transform="translate(357.317 307)">F</text><path d="M351.5 323.5C351.5 316.873 356.873 311.5 363.5 311.5 370.127 311.5 375.5 316.873 375.5 323.5 375.5 330.127 370.127 335.5 363.5 335.5 356.873 335.5 351.5 330.127 351.5 323.5Z" stroke="#2F528F" stroke-miterlimit="8" fill="#FF0000" fill-rule="evenodd"/><path d="M383.5 275.5C383.5 268.873 388.873 263.5 395.5 263.5 402.127 263.5 407.5 268.873 407.5 275.5 407.5 282.127 402.127 287.5 395.5 287.5 388.873 287.5 383.5 282.127 383.5 275.5Z" stroke="#2F528F" stroke-miterlimit="8" fill="#FFFF00" fill-rule="evenodd"/><path d="M383.5 299.5C383.5 292.873 388.873 287.5 395.5 287.5 402.127 287.5 407.5 292.873 407.5 299.5 407.5 306.127 402.127 311.5 395.5 311.5 388.873 311.5 383.5 306.127 383.5 299.5Z" stroke="#2F528F" stroke-miterlimit="8" fill="#00B050" fill-rule="evenodd"/><path d="M383.5 323.5C383.5 316.873 388.873 311.5 395.5 311.5 402.127 311.5 407.5 316.873 407.5 323.5 407.5 330.127 402.127 335.5 395.5 335.5 388.873 335.5 383.5 330.127 383.5 323.5Z" stroke="#2F528F" stroke-miterlimit="8" fill="#FF0000" fill-rule="evenodd"/><path d="M415.5 275.5C415.5 268.873 420.873 263.5 427.5 263.5 434.127 263.5 439.5 268.873 439.5 275.5 439.5 282.127 434.127 287.5 427.5 287.5 420.873 287.5 415.5 282.127 415.5 275.5Z" stroke="#2F528F" stroke-miterlimit="8" fill="#FFFF00" fill-rule="evenodd"/><path d="M415.5 299.5C415.5 292.873 420.873 287.5 427.5 287.5 434.127 287.5 439.5 292.873 439.5 299.5 439.5 306.127 434.127 311.5 427.5 311.5 420.873 311.5 415.5 306.127 415.5 299.5Z" stroke="#2F528F" stroke-miterlimit="8" fill="#FFFF00" fill-rule="evenodd"/><path d="M415.5 323.5C415.5 316.873 420.873 311.5 427.5 311.5 434.127 311.5 439.5 316.873 439.5 323.5 439.5 330.127 434.127 335.5 427.5 335.5 420.873 335.5 415.5 330.127 415.5 323.5Z" stroke="#2F528F" stroke-miterlimit="8" fill="#FF0000" fill-rule="evenodd"/></g></svg>